<mxfile host="Electron" agent="Mozilla/5.0 (Macintosh; Intel Mac OS X 10_15_7) AppleWebKit/537.36 (KHTML, like Gecko) draw.io/25.0.2 Chrome/128.0.6613.186 Electron/32.2.5 Safari/537.36" version="25.0.2">
  <diagram name="Page-1" id="4Qqj-zQhiqw2lSyx1QOB">
    <mxGraphModel dx="880" dy="1569" grid="1" gridSize="10" guides="1" tooltips="1" connect="1" arrows="1" fold="1" page="1" pageScale="1" pageWidth="850" pageHeight="1100" math="0" shadow="0">
      <root>
        <mxCell id="0" />
        <mxCell id="1" parent="0" />
        <mxCell id="mdbk473jcDKpl6JDTXw1-5" value="" style="rounded=0;whiteSpace=wrap;html=1;fillColor=#FFFFFF;strokeColor=#666666;dashed=1;" vertex="1" parent="1">
          <mxGeometry x="110" y="-130" width="570" height="560" as="geometry" />
        </mxCell>
        <mxCell id="mdbk473jcDKpl6JDTXw1-8" value="" style="rounded=0;whiteSpace=wrap;html=1;fillColor=#FFFFFF;strokeColor=#666666;dashed=1;" vertex="1" parent="1">
          <mxGeometry x="290" y="-100" width="195" height="160" as="geometry" />
        </mxCell>
        <mxCell id="mdbk473jcDKpl6JDTXw1-4" style="edgeStyle=orthogonalEdgeStyle;rounded=0;orthogonalLoop=1;jettySize=auto;html=1;entryX=0;entryY=0.5;entryDx=0;entryDy=0;strokeColor=#000000;" edge="1" parent="1" source="mdbk473jcDKpl6JDTXw1-2" target="mdbk473jcDKpl6JDTXw1-3">
          <mxGeometry relative="1" as="geometry" />
        </mxCell>
        <mxCell id="mdbk473jcDKpl6JDTXw1-9" style="edgeStyle=orthogonalEdgeStyle;rounded=0;orthogonalLoop=1;jettySize=auto;html=1;strokeColor=#000000;entryX=0;entryY=0.5;entryDx=0;entryDy=0;" edge="1" parent="1" source="mdbk473jcDKpl6JDTXw1-2" target="mdbk473jcDKpl6JDTXw1-7">
          <mxGeometry relative="1" as="geometry">
            <Array as="points">
              <mxPoint x="190" y="-40" />
            </Array>
          </mxGeometry>
        </mxCell>
        <mxCell id="mdbk473jcDKpl6JDTXw1-2" value="Python" style="shape=image;verticalLabelPosition=bottom;labelBackgroundColor=none;verticalAlign=top;aspect=fixed;imageAspect=0;image=data:image/png,iVBORw0KGgoAAAANSUhEUgAAAgAAAAIACAYAAAD0eNT6AAAACXBIWXMAAAsTAAALEwEAmpwYAAAgAElEQVR4nO3de7gfVXXw8Zn55ex9khBuKqIU8AJWRa2I1gugVNDaCi9eiIpaW7Xm8UWRhuTM/gW1x9ZKFSvetaCtFfHSqEWxb0zy2/vMnnNCRIgUa8TiBVCpBQTlKuGSrPeZk1hvXHJyZmbP5ft5nvWPj605e9astX57blEEAAAAAAAAAAAAAAAAAAAAAAAAAAAAAAAAAAAAAAAAAAAAAAAAAAAAAAAAAAAAAAAAAAAAAAAAAAAAAAAAAAAAAAAAAAAAAAAAAAAAAAAAAAAAAAAAAAAAAAAAAAAAAAAAAAAAAAAAAAAAAAAAAAAAAAAAAAAAAAAAAAAAAAAAAAAAAAAAAAAAAAAAAAAAAAAAAAAAAAAAAAAAAAAAAADQCivWLY7M6IDIjA4dpPY5ydCdmAynls2GsSuSoTWJsafFqXvnbBj7/ji1Z20P97k4datnw9izf+0/n/3vFv93ydC+PhmOXlr8/44msidHw9EjZv83AQBA2SSOTssfEg1HT09S+7Kiicep+9D2Ru2mEuO+maTu6iS1tyfGSZiwNyfGXVb8e+LUfSpO7RlJat84MFPPj9L1j4kms3HyAgCA31b8ih5OHZYY9/LEuLfEqftYbNz6JHWXJ8ZtCdfYS4zU/iQxbqbYXUjS0amDdOqPoxXuQJIBANB9y9fuHZnREUnqXhcb9544dV9NUntlYuy24A065O5B6i6KjfuXYndjMHTPnV0nAABaZ+nqQbTKPjYx9pVxas/csVV/bfhm26awm4udkOL+hWjCPilatmks9GEFAOA3TbjfT1L36ti4DybGXpAYd2v4BtqxKO5xSN3GJLWT0XD0lGhyMiENAQD1Stc/prgjPjbuszuubYdvkP2La+PUfnJgpo5ndwAAUI3JNbsXj7/Fqf1MkrprGtD8iF9fg9ReF6fufdHK7ImcAgCA+ZlY/9Dtv/Lt2iR1d9B0WzN0fKN4/8HsfRgAAOyUyfMXJenoz4vH1fp9Z34Xwn6/GOB4BwEA4N6Z0aGxsR9OjLsxfOMiSl2D4h6N1L6WmwYBADtIPJgYHZuk9kKabi+Gjm9EE/ZI0h8Aet347QtmrxWHb0pErWtgtxXfPIhWTT8odBYCAGo0mLB/lKT2UhpvzweP1F0zMPY4Tj4A6Lrla/cuvmzHjX0NaL4NitjYc6KJDUtCpycAoALFG/qS1F0futkQDV2D1H4nGmYHcfIBQFdMZuOzH5gJ3WCINqzBDYOJqaNDpywAYL5Wukcmxn2zAY2FaM0a2Dtn3xsAAGingXHPTlL7s/ANhWjpGgxD5zAAYK7M6Igktbc0oIkQbV6D1L2Vkw8A2iJ1z6D5N6B5dibsX4dOaQDA/TGjQxNjbw7fNIiOrcH/5eQDgKY6Jdtz9sMv4ZsF0bU1SO1dg+HomNApDgD4HRLHxn4xeKMgursGqbspSt0hnHwA0CBJOvWm4A2C6P4apO7yaDLbLXS+AwAKK9btw+d7G9AcexKxsWdz4gFAA8TGfTx0UyD6tQYDM/Xi0HkPAP22MntiYtzdoRsC0bM1SO110Sr74NDpDwC9Fafu34I3A6KXaxCn7hOh8x8A+smMDigezwrdCIierkHqtkYT2ZNDnwYA0DuxsacHbwJEz9fA+tDnAQD0y+RqVVyHDd8AiL6vwcDYF4Y+HQCgNwapfU7owk+wBjty4BuhzwcA6I04tR+gAdOAm5IDkRkdFfqcAIBe4J3/4Zse8as1iI39cuhzAgC6L13/GJoPDbhxTwQMR48KfWoAQKclxr0meMEnWIPfyoE4de8IfW4AQKfFxn6YBkwDblwOpO4HxVcpQ58fANBZSeouCl7sCdbgHnIgGk4dFvr8AIBuWrZpLEnt7TRgGnATcyA27l2hTxEA6KaV7pGhizzBGtxHDlwW+hQBgE4aDEfH0IBpwM3NAbstWjX9oNDnCQB0TmLsX4Yv8gRrcO85MDBTx4c+TwCgc+LUvj1Y80nd1jh1WWLsaYOJqaOjN6/dP1qxbvHsP+yUbM/i/QSD1J6w/S2F9iqaZD8HpTi1Z4Q+TwCgc4pvsNff+O0tsbHvLj4/vPP/Uol3fK/g66EbElH3GtgLqjwHAKCX4tR+qdZfc8Z9PppY/9Bd/xdLPBi6pewI9GoQuaHMnAcAbL8HwNdSxFN3R3G/QWmLfmr2wCS1eQOaE1HDGkTDmb04YQGgRElqL62+gNtfFNv3pR+4ydUqyCUMovY1iIajp5SePwDQZ0nqflRx89+WGPfyyv6AyckkNu4rNOWODybD0UsryyEA6KPE2J9WWbhjY0+v/I8woz2KF8YEb1JElWswUXkeAUCfJMbdWGHR/nrxC72WP2TCPql4rJAm3M1BJE7d39SSRwDQF4lxt1ZVtKPh1FPr/Fvi1H0qdKMiKhoAjHtPnbkEAJ23/e78Sn6xjWr/Y1a4AxPjttCEuzeIxKk9q/Z8AoAu23GTXukFu3iDX4i/J07tF0I3K6KCAcC4c0PkEwB0lMSVNKvU3RZNZuMh/qLtLwmiCXdtDWZfIAUAaPYAEBtrgx2j4gVBFe1qEAwAANARFQ0AqfuHbr/bgGAHAABaraJLAMa+IeRftf0LgzTpLq0BlwAAoA0DwIT7sz594IhgAACAlqlsB+CVIf+q2LjzaMrdGkzYAQCAVuwATJ0U8kDFxk2FblgEAwAA9PAmQHtGyL8qMfYqGnC3hhB2AACgHY8Brg12oIYze/FNgPANmwEAAHr5IiB7S7Rs01iIv2hg7AtDNyuCAQAAenoToJOBsceF+Iti4z5LA+7eEMIlAABoyQAQp+782g/WinX7JMb+InSzIhgAAKC3A0DxOt5opX1CnX9NbOy7ab7dHEDYAQCA1gwAszFd/G/UctAm1h/Mp4DDN2oGAABohcoHgCJOrvzPWL5xYWLsxaGbFMEAAAAtUcsAsCUyo6Oq/BtiY79I8+32AMIlAABo3wBQxI3RqqnDSz94k9mC2NgPh25OBAMAALRMbQOAJKm7LRm6E0v7py9fu3ds3Hqabz8GEHYAAKCtA8AvC3lqP1k8rjeff/Vgwr4gSd0PQjclggEAAFqq/gFgR9wYp+4d0Wl2v7n8WwfGPTsx9gIab/+GD3YAAKAbA8D2SN3W2S/3pW7VYGLq6OjNa/ePJrPdZh8dHM7sFaXukEFqT4hT+4EktVeGbkIEAwAAdETgAYBgDdgBAIAQGAAYQtoxhHAJAABKxQAQurERDAAAEAADAA24HUMIOwAAUCoGgNCNjWAAAIAAGABowO0YQtgBAIBSMQCEbmwEAwAABMAAQANuxxDCDgAAlIoBIHRjIxgAACAABgAacDuGEHYAAKBUDAChGxvBAAAAATAA0IDbMYSwAwAApWIACN3YCAYAAAiAAYAG3I4hhB0AACgVA0DoxkYwAABAAAwANOB2DCHsAAAAA0DwZkQwAABAy7EDQDNvx0DDDgAAlIoBIHRjIxgAACAABgAacDuGEHYAAKBUDAChGxvBAAAAQQyGbikRZg2S1L2EASDcACASxZLr1c0N9Unx6qOS63dKrt4iXp0q0+oEmR57gmTReNnrAQCoDTswDRgApJXh9VbJ1VXi1TrJ1Vtlevxw2RSNlb1GAIBKMAAwAJQ6GNwiuV4juX6DbIz25qQFgMZiAGAAqGyXYIt4/RXxaqlk0YLQmQ4A+A0MAAwAdVwyUFdJpl/HJQIAaAwGAAaAOu8dKO4Z0MvYEQCA4BgAGACC3ER4meTjzwid/QDQYwwADADBniLYJrk6S7Jot9BnAQD0EAMAA0DoQUBdIX78yNBnAgD0DAMAA0Aj4i7xyoQ+GwCgRxgAGACCN/9f3w34lGyMFoY+KwCgBxgAGACaFmpGRtEeoc8MAOg4BgAGgCbuBOhvyGjJA0KfHQDQYQwADACNjf+QbLcHhj5DAKCjGAAYABq9E3CpZNGeoc8SAOggBgAGgKaHymRzpEKfKQDQMQwADABt2AlQHw99pgBAxzAAMAC0Zgg4NfTZAgAdwgDAANCWAUBvFa//KPQZAwAdwQDAANCmUD+WjdHeoc8aAOgABgAGgNbFF0OfNUA9hjN7Ren6x0TDqcOiVVOHD4ajYwbp1B8Phm4pwRrMNweS1L1kZxtg3yM27vNln94iUdyAhtq+8Po1ZR8LoH5mtEeU2j9MjP2LOHXvjFP7pcS4ryep+1Fi3JbQRY9gDcgBBoAGDgA3Sb7oIbQstMfS1YPIuD9IUvvG2LjP7mjyFFjWgBxoQQ6wA9C0UOeELunAfVuxbp/E2L+MU3d+krqbQhcxgjUgBxgAOrILsI2nAtA8p9n9ktStTIybSVK3lYJL0yUH2p8D7AA0cgj4tmyKxkKXfPTd5GRS3KAXp251YuydoYsVwRqQAwwAwRt0PfH60OUffTWxYUkytCZJ7ZUUXJouOdDdHGAHoKm7AOq/ZWO0MHQrQJ+sWLc4MfaUJHXXhC5MBGtADjAA9Dqm1fLQLQF9cPIanRg3kaT2OooujZcc6E8OsAPQ5FA/lQ3RktDtAV1m3DMT4y4LXYgI1oAcYAAI33QbFl6loVsEumj52r3j1J6VGLuNwkvzJQf6mQPsADR+F+BqnghAqQape1Fi3A2hiw/BGpADDADhm2zDIxs7kRaI+ZvMFhSv5uVXP42XxksOsAPQkvB6E+0P82NGBySp20jhp/CTA+QAlwDatgswfgQtELvGjI5IUvszCj+FnxwgB7gHoI2hPkn7w5wNJkbHJqm7jcJP4ScHyAFuAmxt3CoXRrvTArHTEmNfySt8Kfo0fnKApwA6Ea+l/WGnJOnUm7jZj8JP8ycHeAywK6FmaH+4X8nQncgX+yj8NH9ygPcAdO1TwepgWiDu1WBi6ujEuC0Uf4o/OUAOMAB0bQhQp9H+cM+Go6ckqb2Fwk/hJwfIAd4E2Mm4mPaH33Va/hC+4kfRp/GTA7wKOHiTrjoeTgvEr0xOJnHqRhR/ij85QA4wAHQ91F/R/vC/YuPeRuGn8JMD5AAfA+pBeJXT/rDdxNSzEuPupvhT/MkBcoABoBdxl4yiPWiBfTexYUmSuqsp/BR+coAc4HPAfQp1fOj2g8Di1J5J4afwkwPkwK7mQGzc58uuSyJRHL5Bdjy8+lDZxw1tsip7HK/5pfDT/MmB+eQAA0BbBwB9eegWhGAkTlK7geJP8ScHyAEGgJ5Gph9GE+6hxNi/oPBT+MkBcmC+ORAbd27Z9YlLAHXtAoy/quxjh6ZbtmksMe4Kij/FnxwgB+Y9AKTuY2WXKAaAunYB1FllHzs0XJK6V1P4KfzkADlQRg4UNxKXXaMYAOraAdDfLvvYocmWrh4kqbuc4k/xJwfIgVJyILVp2WWKAaC2AWCbbIz2Lvv4oaES415O4afwkwPkQGk5MOH+rOw6xQBQ442A0+rYso8fGknixNjNFH+KPzlADpSVA5EZHVp6pVoT6doaYN/D69PLPn5oIjM6gsJP4ScHyIHycsDeGZ28RpddquTCaPfgjbEv4fkuQC/Eqf0nij/FnxwgB0rMgW9WUavkgsX7BG+MfQmvb5MsWlDFcURTrFi3ODH2Zoo/xZ8cIAfKyoHY2HOqKFeSqUcHb4x9imzsiVUcRzQEj/5R9Gn85EDpOZDaN1ZRr8SPHxm8KfYpMv26Ko4jGiIxboYGQAMgB8iBEq//b4tWuAOrqFfi1YuCN8VehTq7iuOIJliZ7VucrBR/ij85QA6U+Ot/U1UlS7xaEb4p9ii8vrSqY4nA2P6n6NP4yYHyt//dW6uqWZKrjwRviv2Ku2VdtLiq44mA4tStpgHQAMgBcqDMHIhW2idUVbMkV6MGNMV+xfT44VUdT4QymS1IjP05xZ/iTw6QAyVe/7+4yrIlubomeEPsW3h9UpXHFCFM2CMp/BR+coAcKDUHhqOXVlWyxC7cL3gz7GUovgzYNXHq3kHxp/iTA+RAiTnww2JnsaqaJV4dF74Z9jC8urCqY4pAePyPwk/zJwdKvvlvZZU1S7x+b/Bm2M+4VSRKqjy2qNOyTWNJ6m6jAdAAyAFyoKQcuDYyoz2qLFvFN+ob0Az7GV4dXOWxRZ2Go6dQ+Cn85AA5UN6vf/vaKksW1/8DDwDT6oQqjy9qlKRTb6L4U/zJAXKgpBz4RjQ5WekWsWT61cF/Bfc5vJqs8viiRrFxn6X4U/zJAXJg/jlgt0Vp9rSqa5bk+jPBm2C/4zNVH2PUJDHuCoo/xZ8cIAfmmwOxcf9Ydb2SzZGSXF3fgCbY57ik6uOMOqyyD6bwU/jJAXKghLv+vx1Nnr+o6pLFB4Aa8yRAXPWxRsUGqXsRxZ/iTw6QA/O86e/2yLg/qKNgS67Pb0ADJGbGD6jjeKNCcWrPoPhT/MkBcmBeOTCcWlZHoZYLFu8jXt9JA27AAOL1c+o45qhQYtw0xZ/iTw6QA/O47v/xuoo0n/9t1ABwUl3HHVXgBUA0PhofOTC/m/6+UuXrfn+b5PpbwRsfITvW4F11HXdUgRcAUfwZAMiBXb/uf2G0Yl1t34Yvtpxpvg0aQLz+XF3HHhVIjDuZBkADIAfIgbnngN0cLV+7d52FWbzKgzc9Qn61BuprdR5/lCw27l8o/hR/coAcmGPzvzhaNf2gOguyZPoomm/DBhCvflJnDqBkSWovpfhT/MkBcmAO1/ynosk1u9ddjMUrF7zhEfJblwC2SRaN150LKMPkapWk7g6KP8WfHCAHdrL5nxdNZrUXfJkeP5zm29ABZEY/ou58QBlWZk+k8FP4yQFyYCdy4O4ktZNVf+Dn3vDrv8mXAcafHiInME9J6l5N8af4kwPkwP3c6X/dIJ3641AFV6bHXha8yRFy72ugjg+VG5iH2Lj3Uvwp/uQAOXAfzT+PJtY/NFShlQ3REsnV1TTgBg8hXtfyBkiULE7diOJP8ScHyIHfbfzutmRoTbR09SBk4RWvzwze4Ij7WQP11pA5gl2UpO5qij/FnxwgB37jRr/U/r9ohTswdGEVP/Z4yfVdNOCGDyFefTB0rmCuJjYsSYzdRvGn+JMD5MCOZ/uvGgzd0iYUU1kdDcSrDcGbG7EzA8C5ofMFc5XaP6TwU/jJAXKguMlvdrs/wON990a8+muab2sGkC+HzhfMUWLcqyj+FH9yoOeN39gV0fKNC5tUQMWPH8nWf5tCTYXOGcxRbOzpwQsQwRqQAyEa/4XFD4Am/eL/JZmJ9pJcXRW+qRE7vQZebwqdN5ijOHWrKb40YHKgJzmQupvi1H0smrBPamqxFIli8fo8mm/Lhg+vLw+dO5ijJLWbghclgjUgB6ps+tfHxp4zMPa46OQ1uulFUqbV8uDNjNiFAUDxQaC2KYoDxZcGTA50KAdS+7PiEb7EuLdEq6YOD/Xa3l0h0+pYyfXdNOA2DiHqp6HzB3MxuWb34MWKYA3IgV39ZX9TkrpL4tR+ITbuXYlxr4lW2cdGkcRtLISSLXiy5PrW8I2M2MU1uDF0DmEujPsDii8NuOQcuDZJ7YbYuHN3vGJ6mAynliWpe13xbDmxq2swOmb217wZHRoNR4+ITs0e2KViJ7l+uOTqGppvq4ePW0PnEeZgMGFfwADAALDrW83uR7Gxn06MWx6Z0RGRGe3BCYi5ktGSB4jX/9WABkbMbw22kP0tkkxMncQAwAAwhxzYEhv778nQvj6aWH9w6PxFZ5r/JppvB4YPr7eGzifMQWzs3zIAMADcTw7cHafuq4lxLy/uGeEEQ1kkW7Sv5PpbwRsXUdYAsI2zo0ViY89mAGAAuOccsD9OjD0tOs3uFzpP0T0yM36A5Pq7NN9ODSBbQucV5iBO3fkMAAwAv3Vd/5Jk6E6Mlm0a42RCFSTTDxOvftCAhkWUuQZe38wZ0yKJsRczADAA7Hh2/Mribv02PTOO9pHphU8tXhhD8+3g8OH1DaHzC3OQGPdDBoC+DwD2x8UjetFktoCTB1WS6fFXite/CN6oiIrWQP0PZ1CLzL5IJHgDIgKtwa2JcRNN+wIcukc2R0py9REab8eHD69+GDrXsLOWrh4kxm6jAfdyAJmJhqNHcbKgajK924OKz8QGb05EDQOA/jZnVFsMZ/ZqQCMi6lyD1N2WDK3hOj/qINPqBcW2MM23LwOI+hpnVluY7GE04P4MIHFq10Ur3IGh0w7dJzPRXpKrs8I3JKLmAeCroXMPO2tl9sTQTYmoYw3stjh17+RXP+ogXi0Vr66j+fZw+PD6c5xlbZG6Z9CAOz+E3Dj7DXigYuLVweL1ecGbEBFwDdTZnGhtYUZHNaBBEVWtQeou3/5pWKA6smHhQ8WrfxSv76T59nwA8foMzrWWGKT2OTTgbg4gsbFfjiY2LAmdY+gu2RAtEa9M8fa34I2HaMYaeLUidF5iJw2G7k9DNyqiguaf2s/wUh9URfJFDxGv3y5e/yx4wyEatgZjr+DMa4nBhH0BDbhbQ0jxcSdu9kPZRKJY8vFnilfnitd3hG80RCPXYFofzdnXEoPUnhC6YRFl/vJ374siiUPnFbpDMvVoydVbJVffC95ciOavwczYIaFzFjtpYKZeTAPuxhASG3s6iY/5kjWRlkwfJV6fLrm+LHhDIdq1BqMlD+AsbAkuAXSl+bt/DJ1LaB+RKJFcP1y8etH2hq9G4vVtwZsI0dY1uL24VBQ6r7GTBhOjY0M3L2Lezf8rxTcdupL0kkULZGb8gNmt55mxwyTXz5ZcPX/Hy2WIua5BPvYK8XqZ5PqNkuu/2fG43pck19+SXG9pQNMgurIGXv9X6PqBORgMR8+jAbd4CEndRdGKdYvbmPSyLlos0+PPklytFK8+KrlaL7n6vuT6ruCFjGANyIFdyAHFa4DbhPcAtLr5/yBaZR8ctYRk0Z6Sj71UvPqAeL2JRk+Tpcl2LQfUR0LXGcyFcc8M3siIXVgD+/NoYv3BTU92yXZ7oPjxV4nXX+HRsdDFmWANKh8AJkLXHMzFhH0SDbiFQ8jQndjURJfNkZLpsZdJrjLxeitFl8ZLDvQkB7xaGrr+YC6G2UHBmxnRiTv+xY0fKLl+h+TqmuCFiGANyIEAA8DYoaHrEOZilX0wDbhNQ4jdHE2ev6h5X4BT50qu76bo0njJgZ7mgNdbZVPUqNqE+7N848LwTY3YqTVI7e3RSvuEpiS15OP7S67O4ma+BhRfgjUIngPqytA1CbsgMfZOmnAbhhD7huZ8AU6fyU19oQsuwRo0KgfWhK5N2AWJcdeGb27Eff/6dxc14QM/Mq2OFa9+2IBiQ7AG5ECzcuA9oesTdkFi3H/SgBs8gKRuazScemrI5JZs0b6Sq3MaUGQI1oAcaGYO/GXIGoVdFBtrgzc54l7XIDb2wyGTe/trePUNDSgwBGtADjQ1B/z400PWKeyi2NhP04AbOoSk7vpoOArydS1ZHQ0k12/jWf4GFFeCNWj6EwBZtFuIOoV5ilN7ZvBGR9zbGrwm4JZ/FrywEKwBOdD8HPD68hB1CiVIjBvSgBs4hKT2e9FktqDuJBenH7njozzhCwvBGpADzc8Brz9Xd51CSRJjXxm82RGN+PUv2YIni1fXBS8oBGtADrQoB9SqumsVyjJhj6QBN24I+WE0uVrVmeSS62eL1zeFLyYEa0AOtCoHvPqTOmsVymRGBzSg4RG/vgZD+/o6k7w4gXmxTwMKKcEatDEHskX71lmvUKalqwe8DbBBA0hqfxJNZuN1Jbn4BU+RXN8SvIgQrAE50L4c8OqKumoVKpIYd0Xwxkf8cgB4c12JLpk+SLy6NngRIVgDcqCtOfDpuuoVKhIbN0UDbshb/968dv86El3yRQ8pPuDRgAJCsAbkQFtzwKs31VGvUKE4dR8L3vwIiVO7ro5EF4kS8coGLx4Ea0AOtDsHsgVPrqNmoUJJ6lbSgBswhKT2ZXUkung1GbxwEKwBOdD2HLhdNke1Pq2ECgwmRscGb37EjdHyjQurTnDJx58pub67AcWDYA3IgVbngJqpul6hDsPsIBpw2CEkTt1Hqz7MMhPtJbm6OnzhIFgDcqD1OeD1u6uuWajtUUC3hSEg3AAwGLrnVn2YxasPBi8aBGtADnQjB7x6UdU1CzVJjLuMASDYtf9bopPX6CqPr0yrx0qu7wpeNAjWgBzoRg7YhftVWbNQozh1qxkAAm3/G3de1cdXvFoXvGAQrAE50JEcUFdVXbNQo+IFNAwAoS4B2FOqPLbi1QvDFwyCNSAHOpMDni8AdgpPAoS7/h+Z0aFVHlvJ9UXBCwbBGpAD3ckBryr90YK6vXnt/uwAhLj+724qbsKs6rDK9PizghcLgjUgB7qVAzNjh1VVsxBIkrrrGQJq3/73VR5TyfX5wYsFwRqQA93JgeL7IRIlVdYtBBCnLmMAqHcAiFN7ZlXHU7w6WLzeGrxgEKwBOdCdHPDqE1XVLAQUG/deBoDaLwG8uqrjKV7/ffBiQbAG5EC3csCPvaSqmoWAEuNezgBQ7wAQTdgjqzqe4vV/BS8WBGtADnQpB+6SLNqzqpqFkHglcIABYP1DK9v+D18sCNaAHOhSDniVV1Gv0AgSJ8bdwC5Abdv/dxRrXsmR9MoELxYEa0AOdCsHMn1yFfUKDVF8k54BoLYB4OqqjqN4tSF4sSBYA3KgSzmwRUZLHlBVzUIDxKl9OwNAbQPAJVUcQ8miBbPf6g5fMAjWgBzoTg78axX1Cg0ymHD/hwGgngEgNm6qimMoM2OHNKBYEKwBOdClHMj086qoV2iSFev2YQCoaQBI3VerOITix14evFgQrAE50KEcUFfL6qiyN5aiQRLjvssQUMcAYL9UxfGTXL8rfMEgWANyoEM58LYqahUaKDb2nxkAarkE8Pkqjp94/e8NKBgEa0AOdCEHvL5ZNkZ7V1Gr0EBJal/LANDiASDXlwQvGgRrQA50Iwe8/vsq6hSaalX2aAaAFg8AXv138KJBsAbkQBdy4Fa5YPE+VdQpNJbESWqvYwho6QCQ61saUDgI1oAcaM3jq5QAAA6GSURBVH8OvKeKGoWGK25QYwBo6QDg9Z0NKBwEa0AOtDkHvL5JskX7VlGj0HCJccsZANo3AIhEcfDCQbAG5ED7c8CrU8quT2iLVdnjGAAYAIIXIYI1IAdC5MB/Fm8UDd2GEPY+gJ8wBLADQAGmCZMDPcoBr7dJPv5Mmm/Pxan7FAMAA0DwgkSwBuRAjQOA+njo3oMGSNLRnzMAMABQfGnA5EBfckB9Ty6Mdg/de9AEK7N9k9RtZQjgJsDwhYlgDciBinNgi+RjTwrddtAgSWo3MAAwANB8aD7kQMdzwOuTQvcbNExi7AoGAAaA4MWJYA3IgSqbfyXvJEHbmexhibHbGAJ4DwAFmCZMDnQwB7z+uqyLFoduNWioJHWXMAAwAAQvVARrQA6UnQPf5V3/uE9J6lYxADAAUHxpwORAl3JAXS1u/EDaH+7baXa/xLi7GQJ4FXD4okWwBuRACc3/GpkZO4TWh50Sp3YdAwADAM2H5kMOtD0H1JUyrR5F68NOS4buRAYABoDwxYtgDciBXc4BrzeLXbgfrQ9zM5mNJ8b+nCGArwHSgGhA5EALc8ArL1m0J60PuyQ29v0MAAwAwQsZwRqQA3P51b9Ncv1+2RwpWh923Yp1D+dmQAYAii8NmBxoSQ54fZN4tZS2h1LExp3HLkA5Q0BsXOlv3xKJ4uBFh2ANyIHwOeDVhZLrh5ddY9Bnxj2TAYABIHhxI1gDcuDecuBG8eoUWR0NQrcLdFBi7MUMAewAUIBpwuRAw3LA669IPr5/6B6BDhsYexwDAANA8GJHsAbkwK+2+zN9TOjegJ5IUreRIYB7ACjANGFyIOgv/kuLm/yKe39C9wT0yGA4OoYBgAGA4s8AQA7U3vS3Sa5GMq2ODd0H0GOxcVMMATwFQANgCCAHasmBn0uuzuId/miG4dRhvBeAAYDizwBADlSWAzdKrj8tuXqxrIl06JIP/IY4dR9iF4D3ANAAGALIgbK2+NUV4tVHJdfP5e19aLbJNbsnqf0JQwAvAqIBMASQA3O+nn+H5PpiyfX7Zm/m27DwoaFLOjAniXGvYgBgAKD4MwCQA/d27V5/R7zKJVeflFwNJVfHi1cHSxYtoN2g5SSOU/dVhgBeBdyuBqC+Nvuri2AN5p8DLyyew5dpfbTMjB02G/n4/pJF46GrM1C9Fev2SYz9H4YAvgXQou3X0r/FAAC9NBiOnpcYu40hgI8BBW/uDAAAUK84tR9gAGAACN7cGQAAoGbLNo3xgiAGgODNnQEAAAJYvnbvxLjvshNw34NAbFzp16CLd4IHb6xtCe4BAIAKrHSPTIz9KUMAA0DwRs8AAAA1m5h6VpK62xgC2AEI3uzZAQCAmk3YIxNjb2YI4BJA8IbPJQAAqJkZHcEQwAAQvOEzAABAAKl7RmLcDewEcBNgY4KbAAGgxhsDU/sthgCeAgje/BkAAKBmk9lucWq/wBDAY4AMAADQOxInxg0T47b0eRDgPQDsAABAPw2zgxJjfehGzADQgO14LgEAQM9MTiaJsackqb0ldENmB6ABTZl7AACgZ07NHhin7p19enEQlwAYAAAAv7Qy2zdO3fsSY38RukEzADTgVzpPAQBAz5jRHolxr4pTN0qM3Ra6WbMD0MHgPQAA0HCr7GPj1L0jMe7riXF3h27cXAJoQPNmAACAnjkl23Ngpo6PjX1/YuwFSequD93IdzW4B4ABAAAwH8vX7h2l2dOKSwaJcROxcW+LjX13nNqz4tR+Jk7d6iZGko5OLfvAi0Rx8F/WrQn1NfFqKRFqDcafXnb+A0BvMQCEHiqInV4D7sEAgPIwANCAWzOEMAAAQHkYABrQ2AgGAACoGwMADbg1Awg7AABQHgaABjQ2ggEAAOrGAEADbs0Awg4AAJSHAaABjY1gAACAujEA0IBbM4CwAwAA5WEAaEBjIxgAAKBuDAA04NYMIOwAAEB5GAAa0NgIBgAAqBsDAA24NQMIOwAAUB4GgAY0NoIBAADqxgBAA27NAMIOAACUhwGgAY2NYAAAgLoxANCAWzOAsAMAAOVhAGhAYyMYAACgbgwANODWDCDsAABAeRgAGtDYCAYAAKgbAwANuDUDCDsAAFAeBoAGNDaCAQAA6sYA0PMG7PVW8cqLV2+WaX205OP7y7po8WxuZNGeskH9vkyrF4jX75ZcX8YOAAB0BANAb+Mu8eqj4sYPnFO+5Av+ULz+wuzgUP+w8vnqzgQA6BkGgF7Gl2VaPWpeeZMtfJp4/U0GAABoKQaA4M24zl/QWyVXw+KYl5I7WTQuuTq7xn8/OwAAUBYGgN7E7eLVcVWcOZLrtzEAAEDLMAAEb8x1/HLeJvnYKyrNozp2AtgBAIDyMAA0oEFX3zjfXvU5I5uisdmnCRgAAKAdGAA6HxeJREktuZTph0mut1Q4yHAPAACUhQGg4+EXPKXOs0W8+gADAAC0AANAl5u/Wlt7Pk3v9iDJ9S3V/D3sAABAaRgAOj0AvDDEqSK5+iQDAAA0HANAZ+NW2RypIDnl1XEMAADQcAwAXQ21PlhOjaI9JNd3l7+jwSUAACgNA0BHw+szQp4m4tUVDAAA0GAMAJ0dAE4KmldeOQYAAGgwBoCOxvT4K4PmldfnMQAAQIMxAHQ0svE/C5pXXn+JAQAAGowBoLPxhqB5lauMAQAAGowBoLPxnqB55dWPGAAAoMEYALoaaipYTo2WPGD7FwhL/pt4DBAAysMA0Nm4XTZFi0KcKzKtTqjkb2IAAIByidd3NqBhEWWvwfTYy0KcK5Lr1RUNAJ8L8fcAQGeJ1z+jAXdwAPEqrz2X8kUPmd19qObvObfuvwcAOk1y9ePgzYqoZg0yfVStueT1eyscaD5R598CAJ0nuf4ODbizQ8h/yqZorJY8mlaPrfZykjq7jr8DAHpDcn1xAxoVUdUaePXBynMoi3abHTYqPY7qw1X/HQDQK5W8tpVo2hq8vrL8kSiu7Ma/34x3VfU3AEAvidfvbkCDIqpcg2JrPhs7sfTcyaIF4tVH6zl+alXZ/34A6LXi1yENuDcDyPtFoqSUvJmJ9pJcjbqwiwEAvSSZPqYBjYmoaw28sjI99oR55YzXz5Fcfb/W41bBDgYA9JpkC3+PBtyzAcTrrcVjdZLpg+Z0rT/TR0muvhrk35zp51V7JgBAD4lXPwzelIgQg8A2ydXXxKtJyfVzxY0fOHtHf9Hsiy3+mbFDxKulxZMEkqsrgx6jbOxxoc8TAOgcyfWnacAMIY3OgSzaLfR5AgCdI16fFLzAE6zBve5UqOtCnyMA0Enixx5PA6YBNzgHLgp9jgBAJ21/mUvga7wEa3DvOwB8CAgAqlK8aY0mTBNuZg6ov+LMB4CKyMzYYeELPcEa3EMOZONHcOIDQIUk19+lATGENO6dBTwBAADVEq9OC17wCdbgNweASznvAaBi29/vrm+lCdOEG5QDf8eJDwA1kFx9pAFFn2ANtufA9MKncuIDQA3Eq4Nnr7vSgBhCQueAV9eW9fVCAMBOEK8/G7z4E6xBrj7CCQsAdX8h0OvbaMI04bA7AGOP58QHgJqJ16czADAAhMsBlXHSA0AAsiFaIrm6hiGAISDQ9f+lnPgAEIh49UIGAAaA+pu/3ixZtIATHwACklydwxDAEFDzAPAcTnoACExG0R6Sq6sYAhgCasqBfwud8wCAHSTTR0mu72IIYAio+Jf/TTKjH8GJBwANIrl+IwMAA0C1OTD2itB5DgC4B+LVhxgCGAKq+fWvPsRJBwANVdyZLblazxDAEFBuDqiNsibSofMbAHAfZF20uHhJC0MAQ0BJOXBJ8RVKTjoAaM8QMMUQwBAwzxz4D9kY7R06nwEAcyBZtJt4lTMEMATs4rb/DM0fAFpKNkWLxOvPMwQwBMzxhr8PyqZoLHT+AgDmQSSKxSsjXm9lEGAQuJ8cuF28fg0nHAB0iORjLxWvf8EQwBBwL7/6L5Bs7HGh8xQAUAHx6jHi9SaGAIaAX8uBn4tXp4hECScdAHSYbI6UeH265PpuBoFeDwJ3iVefELv4waFzEgBQI5keP3z2s67hGxERovFn+iBOOADo9ZsD9RskV9fTiDs/iGyRXP0TH/MBAPyv4nlv8eoD4vUdDWhURJlr4PW3ZVotl2y3B5LyAIB7JNnC3xOvz5Rc30IjbvEg4vXNs7/28/FnkOoAgJ0moyUPEK8mJVfXBG9mxE6uQXGs1Nni1Z9KFo2T7gCAXVa8DU68Ok5y/UUuDzRsGCle7OT1NyXX7yp+6fMYHwCgEsU15NkbBr1aO/vGuNANsH9RPLZ5iXj9XsnV8bynHwAQ5hsDuXq+5OrDkuvv8JrhKhq+ulpyfb7k+m0yrY6VLNqTVAcANIqMoj0k18/e8c2BL4hX1zbgF3Nb4m7J1fck1/8muXrL9mv4i/YNfUwBANglxfPm4tVSyfXfzQ4F23cK7mxAww35oZ1LxevPzd5g6cdeItNjT5A1kSbFAADdv6lwZuwQmVYniFd/PdsMi+vaxfvowzfo+YfXN+y4Tn/e7LX64h37xaUSpx/JTXoAANwDmYn2knzsSZKrF4tXKyTX75Nc/6t4tUG8umL7m+yCNfcbJVffF68ulFyvEa8+Jbn+B8n0ybNPSfixx8uGaAkHFgCAqt5PMK0eJdnCp4lXfyL52Csk12+c3U3I9TvF6zMkV2ftiH+WXK/eHuqcX/3nxWNzs//dv91+z8LsfQsnidfLxOvXzN5hn40fIdPqscWHcorXJXMwAQAAAAAAAAAAAAAAAAAAAAAAAAAAAAAAAAAAAAAAAAAAAAAAAAAAAAAAAAAAAAAAAAAAAAAAAAAAAAAAAAAAAAAAAAAAAAAAAAAAAAAAAAAAAAAAAAAAAAAAAAAAAAAAAAAAAAAAAAAAAAAAAAAAAAAAAAAAAAAAAAAAAAAAAAAAAAAAAAAAAAAAAAAAAAAAAAAAAAAAAAAAAAAAAABA1BX/H6P6VMuk3fudAAAAAElFTkSuQmCC;imageBackground=#FFFFFF;imageBorder=#666666;fontColor=#000000;" vertex="1" parent="1">
          <mxGeometry x="140" y="100" width="100" height="100" as="geometry" />
        </mxCell>
        <mxCell id="mdbk473jcDKpl6JDTXw1-3" value="PySpark" style="shape=image;verticalLabelPosition=bottom;labelBackgroundColor=none;verticalAlign=top;aspect=fixed;imageAspect=0;image=data:image/png,iVBORw0KGgoAAAANSUhEUgAAAacAAADXCAYAAAC+up7tAAAWv2lDQ1BJQ0MgUHJvZmlsZQAAWIWVWAc41u/Xv7/PxmPvvffee++VvSmPx17x2KJBKSMVQkZmViEqKxSKSElUKhVJEYWUZL5f/d70///f63rf6z3XdX/vz3Oe8z33OOf+nnNuAFgBISwsGEEDQEhoJMnWWI/H2cWVBzsHKAAXQMNPVgIxIkzX2toCwPSn/3daew6gvX5Mck/X//z/fyVab58IIgCQNYy9vCOIITC+Cbc1YhgpEgDkNZjPHxMZtoefwJiBBE8Qxh/2sN8/eH0Pe/3GKPxvGXtbfRjzAIDDEwgkPwDwEjCfJ5roB+vBw2vA0IV6B4QCQOcJY62QkMPeALCUwjIisEwYjB/AWMXrX/T4/ZtOr32dBILfPv5nLb8JZxAQERZMiPt/bsf/TSHBUX/GEIYb3p9kYgv3dPCefQg6bL6PQ70OWP3BAd6/5X9j/ygThz+YGKHv+gdHBNuZ/sHeBAPzfT3BByz+YN8Ao32ZgEhT+z/YJ8LQ7g8mHbbdH9eXpK/7BxNIf+cQFeSwz/f3Md3XH+9v7/QHRwc4HtifW5Cd+V8Z/X0+Kcp2fy0+ocZ6f8c12t+HkIh/WXuA6f67kf72Jvv7QPg7f59Q3b86I5z35+btY2D4V8ZhXz4sUm9/rLBg6315n2DjfX5EtN3+u5Gwc/5913p/DwMJZtZ/MNAHh0Ew3EiAB1jAvwwAiPSJjdxbiP7hsDhSgJ9/JI8ufNp8eExDiVISPHIycgoA7J3df1xj1fb3mYSYRv7yvGRhl96GXXP4Ly9kC4CGkwBw3f/LE6qF/f8oAFeLiFGk6H94qL0HGpADasAAfzS4AD8QAZJADigBdaADDIEZsAL2wAUcBETgD0LgmceABHACpIB0cB5cBAWgBFSAGlAPmkEr6AQ9oB88BE/AM/AaTIFZsACWwRrYhCAIC1FC9BArxA0JQuKQHKQCaUGGkAVkC7lAnpAfFApFQQlQMpQOZUEFUBlUCzVB7VAPNAiNQi+haWge+gZtIJAIPIIBwYkQQkgjVBC6CHOEPcID4YcIR8QjTiIyEfmIcsQ1RAuiB/EQ8QwxhVhA/EACJAWSCcmLlESqIPWRVkhXpC+ShDyKTEPmIsuRDcgO5AByDDmFXET+QmFQ9CgelCRKHWWCckARUeGoo6gMVAGqBtWCuocaQ02jllE7aEo0B1ocrYY2RTuj/dAx6BR0LroKfQt9H/0MPYtew2AwTBhhjDLGBOOCCcQcwWRgijGNmLuYUcwM5gcWi2XFimM1sVZYAjYSm4K9hL2GvYN9ip3FruMocNw4OZwRzhUXikvC5eLqcN24p7hPuE0yGjJBMjUyKzJvsjiyc2SVZB1kI2SzZJvktOTC5Jrk9uSB5CfI88kbyO+TT5KvUlBQ8FGoUthQBFAcp8inuE7xgGKa4heeDi+G18e746Pwmfhq/F38S/wqJSWlEKUOpStlJGUmZS1lH+VbynUqeiopKlMqb6pjVIVULVRPqb5Sk1ELUutSH6SOp86lvkE9Qr1IQ0YjRKNPQ6A5SlNI007zguYHLT2tLK0VbQhtBm0d7SDtHB2WTojOkM6b7iRdBV0f3Qw9kp6fXp+eSJ9MX0l/n36WAcMgzGDKEMiQzlDP8JhhmZGOUYHRkTGWsZCxi3GKCckkxGTKFMx0jqmZ6TnTBjMnsy6zD3MqcwPzU+afLOwsOiw+LGksjSzPWDZYeVgNWYNYL7C2sr5hQ7GJsdmwxbBdZrvPtsjOwK7OTmRPY29mf8WB4BDjsOU4wlHBMczxg5OL05gzjPMSZx/nIhcTlw5XIFcOVzfXPDc9txZ3AHcO9x3uzzyMPLo8wTz5PPd4lnk5eE14o3jLeB/zbvIJ8znwJfE18r3hJ+dX4fflz+Hv5V8W4BawFEgQuCrwSpBMUEXQXzBPcEDwp5CwkJPQaaFWoTlhFmFT4Xjhq8KTIpQi2iLhIuUi46IYURXRINFi0SdiCDFFMX+xQrERcYS4kniAeLH4qARaQlUiVKJc4oUkXlJXMlryquS0FJOUhVSSVKvUV2kBaVfpC9ID0jsyijLBMpUyr2XpZM1kk2Q7ZL/JickR5QrlxuUp5Y3kj8m3ya8oiCv4KFxWmFCkV7RUPK3Yq7itpKxEUmpQmlcWUPZULlJ+ocKgYq2SofJAFa2qp3pMtVP1l5qSWqRas9qSuqR6kHqd+pyGsIaPRqXGjCafJkGzTHNKi0fLU6tUa0qbV5ugXa79Xodfx1unSueTrqhuoO413a96MnokvVt6P/XV9BP17xogDYwN0gweG9IZOhgWGL414jPyM7pqtGysaHzE+K4J2sTc5ILJC1NOU6JpremymbJZotk9c7y5nXmB+XsLMQuSRYclwtLMMtty8oDggdADrVbAytQq2+qNtbB1uPVtG4yNtU2hzUdbWdsE2wE7ertDdnV2a/Z69ufsXzuIOEQ59DpSO7o71jr+dDJwynKacpZ2TnR+6MLmEuDS5op1dXStcv3hZuh20W3WXdE9xf25h7BHrMfgQbaDwQe7DlEfIhy64Yn2dPKs89wiWBHKCT+8TL2KvJaJ+sQ84oK3jneO97yPpk+WzydfTd8s3zk/Tb9sv3l/bf9c/8UA/YCCgJVAk8CSwJ9BVkHVQbvBTsGNIbgQz5D2ULrQoNB7h7kOxx4eDRMPSwmbClcLvxi+TDInVUVAER4RbZEMcJI0HCUSdSpqOlorujB6PcYx5kYsbWxo7HCcWFxq3Kd4o/grR1BHiEd6E3gTTiRMJ+omlh2Fjnod7T3Gf+zksdnjxsdrTpCfCDrxKEkmKSvpe7JTcsdJzpPHT86cMj51NYUqhZTy4rT66ZIzqDMBZx6nyqdeSt1J804bSpdJz03fyiBmDJ2VPZt/djfTN/PxOaVzl89jzoeef35B+0JNFm1WfNZMtmV2Sw5PTlrO94uHLg7mKuSW5JHnReVN5Vvkt10SuHT+0laBf8GzQr3CxiKOotSin8XexU8v61xuKOEsSS/ZKA0onSgzLmspFyrPrcBURFd8rHSsHLiicqW2iq0qvWq7OrR6qsa25l6tcm1tHUfduauIq1FX56+5X3tSb1Df1iDZUNbI1Jh+HVyPuv65ybPpebN5c+8NlRsNNwVvFt2iv5XWArXEtSy3+rdOtbm0jbabtfd2qHfcui11u7qTt7Owi7HrXDd598nu3Tvxd37cDbu72OPXM9N7qPd1n3Pf+D2be4/vm99/0G/U3zegO3DngeaDzkG1wfYhlaHWh0oPW4YVh289Unx067HS45YR5ZG2J6pPOkY1Rrufaj/tGTMY6x83HX/47MCz0ecOzydeuL+YmvCemHsZ/HLlVfSrzdfHJ9GTaW9o3uS+5Xhb/k70XeOU0lTXtMH08Hu7969niDMLHyI+bM2e/Ej5MfcT96faObm5znmj+Sef3T7PLoQtbC6mfKH9UvRV5OvNJZ2l4WXn5dkV0srut4xV1tXq7wrfe39Y/3i7FrK2+TNtnXW95pfKr4ENp41PmzFb2K38bdHtjh3zncndkN3dMAKJ8DsVQMIN4esLwLdqAChdAKCH83Jyt39y6/8mJJx8IODeEZKCFhAnkXLIOVQpmgDHumVsGy6DzI9cm4IBT0NJR0VDzUDDQctLJ06vxmDJ6MUUy5zN0sA6zDbH/oNjmwvHzcIjyCvDp8VvJeApGCF0RrhYpFn0kThagiDZLc0jc0R2XF5MIUaxVxmjoq8aqVahPqyxpEWuTavDqMuix6rPZsBsyGBEbYwz3jX5brpg9s58zKLfsvVAjVWB9VmbZNt4u0j7cIcIxxino85nXHJcy93q3Rs86g5WHarwLCOUeJUSy7wrfWp9G/3a/fsCRgLfBq2EYELZDouHqYWbkBwiDkb6RAVHh8dEx8bFJcYfP1Kc0JE4dvTzsZ0TVEnsyUInpU4ppqid1jqjl2qcZpNOyig6O5i5fl70gnvW2ezunMVcpjz1fPdLsQXnCyuKWoqHLr8pWSlDlTNViFSqXjGtcq72q4mqTarLvFp47Up9U8OdxpHrU02rNzA32W/JtBi2urSFtB/vyLpd1nm2K7Lb5Y7mXe4e0PO+t6+v6l76fVK/x4DZA7VBrsGFocqHTsOY4cZH9o/WHxeMaI/MPskeNRzdenp7LGnc6hn3s6/Pu16kTTi85H4596r+dfik/OT3N81vw97Jvdueejxd8j5sRucD7Yf3s00fT3yynuOe+zJ/+3Pqgv0i6+LLL3lfXZf4l34tf1pZWRX9fm5NfJ16w2ZrcXf3t/35oesIC8QyMhdlhPqBrsZ4YQWwc7gGskhyXQpBPC1+g3KB6jX1E5r7tN10rfRtDJ2MXUw9zIMso6wDbF3sLRxNnFe5arireC7zZvOd568QGBD8KswkoiMaLFYg/kBiTUpI2k7mqGyd3Kj8miKLkoqylQpBNVCNqO6iYampq6WgLajDoIvQXdJ7rd9vcN2wwOikcbCJramSGbs5MP9k8djy1oESq1TraBuira2dnr2cg4AjkxPOadP5i8s711G3e+6tsDeUHMrxTCMc94omhnqH+oT6hvgF+wcFBAb6B/kEE0IOhroedgqzC7ciWUa4RPrCKXNiTEpsZlxO/KUjRQnFiSVHS4+VHi89UZHUkvz45FwK+jQf7A/EtOT0ioyes28zf56nusCfpZxtkeN1MTb3XF5lfselkYKZwp/FZJfZSsRL1cqMyx0r/CuPXsmpqq9+UPOhDlzlvKZe79RAasy4fqWps/nJjTc352/9aIXaKNtZOwRvy3Sqdul1m92xvuvQ49rr1md/z/S+Rr/kAPsD7IPlwedD7Q8LhxMeuT9WH2EbWX/yfPTm0+yxyHHnZzrPJV9wT7C8ZH7F9VpsUuON3Vuvd65TxtMK73lnqGZ2Pnydnf744tPI3MP5wc+DC48Wx758XoKWmVckvhmsen5P/tG0trCu8at0k2Wrbsfit/3FwT3IHJqAPaAfaYp8hvJEfUenYHgxrVg77CqumsyDnJ78CUUm3paSh3KZaoj6Gk0O7Qm6SPogBg9GTSYWplXYE0pZo9nM2XnZf3I84qzkSuR24pHnpeH9xNfOf0bAXpBTcEqoXJgoIijyUbRW7LC4igRKYlSyQIogLSK9KNMkGy2nJrcj36NwUtFYCac0pJyuYqlKptqvlqyuo76l0aYZqSWj9Vn7io6nLpvuuF6mvqn+jsENw0AjbqMx49Mm6iZfTEvMbMwh82YLL0tay/sHEq3UrH5a37QhwfnDkl2DfaiDpMMXx3qnEGcJ5zmXclcXNwa3UffzHnYHWQ++P9TgeYRg7sXh9ZXY453l4+7L77vgd8M/IcAwkCZwMqguOD7EMpQv9Nfhp2HV4WEkedJaRHtkYpR+ND56IqY6NiHOKV75CHsCMuFr4sujfcfqj+edOJEUlOx4UveUVArnacrTO2dWUj+mvUjvzig7m5zpc87kvOQF+gvbWZ+zJ3OeXnyU+zBvJH/80kTBZOG7og/Fc5eXStbKQDlFBWul6BWNKptq/5rjtfl1168OXJuq/9VIf12yybTZ70bKzapbD1oW22jbtTtSbo91cXX73qm/u9qr3nfq3mi/wEDCg9dDeg+bHok9LnmCGiU87RmXe9bxgvSS+PrKW/fp2tmxBcIq/579/7lj2SOMEgAXueAKlQYAu4sAnIUDhPASAMzkAFhTAmCvChBmmgDBEA8gQ679+AHBhSc5XBNzwNWmEjACTiAQHAc5oBbcBRNgBcJDInBtSISSoAroHvQJQYGQQTghkhCNiDdIPFITGYasRL5E0cA12glUJ2odrYSOQF9Fv8MwYswxSZjbcI0liw3FNmCX4FoqFneXDE/mSlZHtgNXSY0U9BRxFNN4C3w7pRhlMVzpZMC1zRm4msmkZaQtoZOk66S3pH/HQGLEMBYwSTH1MjsxL7IksbKyNrHZsm2wV3JYc2xz1nN5cFNz9/JE84rzTvHl8h8QwAh0CUYKSQrNC9eKBIvKiW6KDYoXSIRKGkpxS21Jv5bpks2Q85CXU6BQmFMcVGpULlBJVU1QI6mHaARoBmgFavvqWOoq6LHpA/2PcIbcYlRmnGly1DTCLNg8yOKwZfyBNKsy63abMdsle0oHSUcbpxjnUpdh1013SQ+vgwWHnhHoveyI+d5vfPn8/PzrA1aD1IKTQ4YPs4T5hrdGkEcSom7HcMZ2xHsk4BLbj4WdEE+aP1mdQjzDkTqWfvqsyjnZC6HZD3NN82cKUy+LljZV8F6Jq26pfX+NocHyembzy1vSrVkdUGfCHVRP7j1Ev8eDzoc8j06PfH/qO/72hdvLN5M+b79N5304+Elyfm4x4mv38tC3vO+yP2rWdtelftlt2GxabElto7Ynds7vGv/+fkAADfCAEfACaaANbIAPSABZsPV7wSRYhxghBcgeiobyoU7oPYIMIYtwQ6QjbiO+IHmQjsgM5H0UhNJBHUHdRC2ihdAEdDH6FYYF44TJx7zCcmK9sLXYFZw67gzuOZkwWTzZKLk4eSr5MoUbxSBeFX+Nko+yiIqFKp+ajbqURoTmBq0u7ThdID2CvphBlWGCMZaJjamL2YsFx3Kd1ZUNzXaDncjByDHEmcSlzvWT+xZPFK8S7wbfHf7TAtaCjIKTQlXCJBFdUTrRj2Jd4nkSEZK2UvLSzNLbMjOy3XJF8okKBEVTJQVlfhVGVQo1tDqkATQRWlhtSh20zobust6s/muDp4aDRr3GXSYdph1mXeb3LUYtpw/8sMbb8Nuq2znAWcx5x+tO484brvxuVu7HPJoPznnyEQ55FRFf+ND6Wvid9u8N2IatHRvSFroRph1+hjQeKRAVEz0SqxBXdASTQEqcPmZ7vD9JM7ntlHJK+xnt1KF054zPmafPK134nF11MSBP8RJ5wVzRyOWu0ubya5VXq+prWup6rj1qeH79ZfOzmw9arred7fDsFO9avtPQ499nfN9tIHww7eGVR3dGXo6ujKOfM07wvZKYVHirOqX6nvMDenbl09T844WOLyVLsSuGq4jvtWtaP/t/6WzUblFsE3du/LY/AuAAA+CHz74F8AXJoATcAVMQCj71B6BIqBDqgxYRTAhdRASiFjGN5ES6IYuR0yhhVBjqNhqHdkLXoHcwLph2LBc2FfsLF4x7D5/vMXJL8kEKS4pxvCd+iTKJipXqJrUd9RpNMa0J7SZdE30wgzjDV8YWpmRmOxZRVgTrO7YB9maOCs5LXBe58+A85Bps1QmBBcFfwhQiPKLKYnbi4RLZku1SMzJ0suZyF+THFZmUHJQvqDxUQ6lrasRo3tBa0dHXLdT7aeBo2GrManLEdNJcw6LA8peVk/ULW1+7DYcLTkLOba6GbkMexge7PaUJRURy70Sf734h/p8DA4I+hwSHfg0LD/8eERO5EZ0YyxrXdyQ8ke/os+Onk5STZ06lnRY/M5B2KP3b2aRzLOebsiyy5y+eyRPOHyjwLUIXl5dol74qj6ykulJdrVvzti7xGlf93UbvJrLm6zcdb223Vrabd3zrvNStc+dTz7k+zns5/dQDZwephy4Ocz2qGZF70v3UZOzpM8fnExOOL0deG0zefMv77tTU4nvXmYnZQx/n5kLn5xZsFxu/LC/xLGus6H9TWuVZ/fK94wdpjW2t9yfh58f14PWVX5G/Xm3obFRtUm5GbPZvUW85bZVuzW3Lbsdt926v7HDumO5E7ZTuDO+s7wrsWu8e2a3eHduz/z/38r/jBxw3ilb30BDvpYT/vBP/587+X2qT/+zB7+iyR3vRZY/2Ig34LzZidq6s6ynXAAAAVmVYSWZNTQAqAAAACAABh2kABAAAAAEAAAAaAAAAAAADkoYABwAAABIAAABEoAIABAAAAAEAAAGnoAMABAAAAAEAAADXAAAAAEFTQ0lJAAAAU2NyZWVuc2hvdBuYvncAAAHWaVRYdFhNTDpjb20uYWRvYmUueG1wAAAAAAA8eDp4bXBtZXRhIHhtbG5zOng9ImFkb2JlOm5zOm1ldGEvIiB4OnhtcHRrPSJYTVAgQ29yZSA2LjAuMCI+CiAgIDxyZGY6UkRGIHhtbG5zOnJkZj0iaHR0cDovL3d3dy53My5vcmcvMTk5OS8wMi8yMi1yZGYtc3ludGF4LW5zIyI+CiAgICAgIDxyZGY6RGVzY3JpcHRpb24gcmRmOmFib3V0PSIiCiAgICAgICAgICAgIHhtbG5zOmV4aWY9Imh0dHA6Ly9ucy5hZG9iZS5jb20vZXhpZi8xLjAvIj4KICAgICAgICAgPGV4aWY6UGl4ZWxZRGltZW5zaW9uPjIxNTwvZXhpZjpQaXhlbFlEaW1lbnNpb24+CiAgICAgICAgIDxleGlmOlBpeGVsWERpbWVuc2lvbj40MjM8L2V4aWY6UGl4ZWxYRGltZW5zaW9uPgogICAgICAgICA8ZXhpZjpVc2VyQ29tbWVudD5TY3JlZW5zaG90PC9leGlmOlVzZXJDb21tZW50PgogICAgICA8L3JkZjpEZXNjcmlwdGlvbj4KICAgPC9yZGY6UkRGPgo8L3g6eG1wbWV0YT4KYMMfYgAAQABJREFUeAHsvQm4ZVd137nu8Oax5kmluTQgJBAIgcBgxchgbBGDSezY7XbHTvwF54sTEifpL2kn7m53dxyM49gGTOIhOHZi4okYEAYbDEYCCYTQiOZSlUo1T6/qzdO9t3+/de6pehICVCUJF1Vnv3fu2WefPa6zz/qftfbae9c6uKhcRYGKAhUFKgpUFDiDKFA/g+pSVaWiQEWBigIVBSoKJAUqcKo6QkWBigIVBSoKnHEUqMDpjHskVYUqClQUqChQUaACp6oPVBSoKFBRoKLAGUeBCpzOuEdSVaiiQEWBigIVBSpwqvpARYGKAhUFKgqccRSowOmMeyRVhSoKVBSoKFBRoAKnqg9UFKgoUFGgosAZR4EKnM64R1JVqKJARYGKAhUFKnCq+kBFgYoCFQUqCpxxFKjA6Yx7JFWFKgpUFKgoUFGgAqeqD1QUqChQUaCiwBlHgQqczrhHUlWookBFgYoCFQUqcKr6QEWBigIVBSoKnHEUqMDpjHskVYUqClQUqChQUaACp6oPVBSoKFBRoKLAGUeBCpzOuEdSVaiiQEWBigIVBSpwqvpARYGKAhUFKgqccRSowOmMeyRVhSoKVBSoKFBRoAKnqg9UFKgoUFGgosAZR4EKnM64R1JVqKJARYGKAhUFKnCq+kBFgYoCFQUqCpxxFGiecTWqKlRRoKJARYEzmAKdTkTN+vGjv7goTp3ocNm9YSTvP8OVSTo145Guxk/+c61fZ3hmTI6Zj/fyP7M06Gx3tQ7ubG9k1b6KAhUFKgo8bwrIKRMV8IAYAlEXP8rTySKM523OJZidSF7cKuJ243khGHVWgNOJsPRYph7zJB6Zej6bXQVOZ/PTrdpWUaCiwAtKgROf8uBCQkMXcVYCT6JIAkkXwKxBCSTdDE7CSplRgT2JTSdvJgAW5Twj3gvaqjMzswqczsznUtWqokBFgTOMAikBgRHtdifqXSmnnXX0Goc01Wq3o9FoINksAyz469zpEGt5gQic64yk1Hui1WkAWN5DAiJuvVOPTr0RS3XlsVY0WxGNFnGa5EmZy6RucsdyS3HsbJecqjEnO1XlKgpUFKgo8BwoUAAUYtEyUpFAUhee2uCPYFOMErUXZ8CfVtQXJ2Nx10OxsH9XLE1MRAPQGRhdG/V150XzwiujPbyGdIASkAM+RadHECIv4jVa5AtARaOHotqxJCYBcpyI3cxYRWnPodLfplEqyenb9MFV1a4oUFHgW08BBKOoA0rtdg1pR90dqAIoLdUaMd9pRX99MXpaxyMevT8mvvT5mHn0z6MzcUcszSL5EL3e3x/NtddE/6WvivFXfHfEtuuj3bceHEKKqgs3AJOohHQmDLWRpsQoQakGJAGBePjl9tkuOVXg5MOuXEWBigIVBb4JBRKLRAVcS6BR5gGQDGmjrmvVlqJ36XC0vvpXsfuW34/pez8eq4dQ0fUiAIE9CEARSxGLANWU2r2tN8aWN/1Y9F33PbE8uDpa5NFnIRxKZUuAXgtIapIuVVwWhCqwhqqwA0p6PptdpdY7m59u1baKAhUFXjAKaEnnmE8b9VobkBArlGrq/jnW1JqP9gNfjMc+9KvRd+iOuGg8og/8WABcPBhWir6+iEEEn7Vw3l27PxuP/WkrrlhcjOZr3hSd0fVEYrwKyajt+JWqvMzfJmjJ5ylt+vJs6Nnszm7oPZufXNW2igIVBb6lFEhYQKpJdRrnpVYrFpFeCtkJmGJ8aeLjvx99O+6ILYAQOBIN7CAG5yL6uS2zZagqakhS8/MRW8bq0XPo87H9Ix+IeOKe6GkvRguAW6y1MIyoRwOgamqyDii2UPm10oCi22SR8Sx3FTid5Q+4al5FgYoCLwwFSsNwzb1raT/XRmICsgCV2uTemLnj4zG947OxFvDhP1V53E6dnMNEDhgtY/Qwa9ggGr6ldqwfaMfg8Xvi8Kc/HLH7kYieBTR/gBNlNBCdEpwsjetWF6gsPZGPbM5mV4HT2fx0q7ZVFKgo8IJRQGFFacgzirfobTajFxVfD6Z2rUe/HLvu/wss6g5F3yggpBoPiWm2uSom+lfHtJZ43bSq57QSF3BG+iPG4cLHHvhMTHzmI9GYPRQ9jF1pj4dBgMNPjGuRF4goOCYwGfg8XZmD52c7zL6Mk7684MeyrZd3u2dvdUNOpDHs+boKnJ4vBav0FQUqCpwTFEhwEFlk0BorAErtNhYOMROTj34p2gdvjzHApqPazsEoVXm1CdR5R6Mfo74hog4tMu7EAf7I0ZkXhZRFmpHO7tj3pY9E++GvAHiz0Ue+tQZlEQmbPQAQKU2RTa6fwQkPXLwQzkx1noujzN2VKE6EdqPlqevPm/6UgXpJ061i5nq6PxU4nS7lqnQVBSoKnGMUKIDJMSegIhYYc0pTuj2Px+yT98U440j9AM88EtMiBg/LA1jxISGp0UszcoCoThLxrB8AW8a/DGhpzTdE/IHpr8bRL3w2anv2EQ9prMMYFAlUITawCmw4zym5Pj8nJKnTewSFFCbOCSSFkUVx9tfwbhgF5p/l4Xc9QM9P8wPYGZbnbjzzFUyfh6vA6XkQr0paUaCiwLlEAZmzkgTMGL7bxPRbI4aZJ+6PxYOPxxjjSCzokHjVAGyW4K5OV3LcKQUlwMl5Ur0YSyzPFFZ7DYBpClDTim8NEtTRez4bi3feCrpNabiX6ZWdKBhCYyXIX+msx+m6Mq3TepeQdJY5tzm3OLQUVPrxXiE50eYMI4QGdNqYgCA11tpIjoDmMsRoAZyey7QJe1nn061hYUBy+qmrlBUFKgpUFDhnKKA0ACDAuEWZHrFh7njUD+6I+hSrQAw0YhpQUlSqKxGBKX3O0UVCUobowa80gFAEqHGP8EXOdQBqEX8vx/jsjjh8O8YRO+5jCaNFsiLDVi9gyGRcykaeSoAUrASO03WprLMZ1GwJUFkmryUmYrWobLsG6Ii+3LOItEbUw9EBhDogbg19pCtZLBPfOplH1od7Rs0WF57TrWLS6rQTVwkrClQUqChw7lBABg0iybgdA+KIpYVYOLyf5YeWooFEIfiUh4gkfilNaa3XwiiirUTFsUwkZSDnPuUhoHGMIEHN7L41jn/lU1gA7mE1CoGCuJiRqxrsgeGbp+75qM00tjAj29CLFNRkEKwHKajJtSrEGodjXZbV6JYoQHpg5E7aHppHg7juAZD6aXsPOsr60hJ5krf1y9/T/5GOlasoUFGgokBFgW9KAdV5MvVaMmymHqGTOxpzh3YHmAJTL1R6udyeecn8OSWTxd8SlODr4hs8PQFKNi7WKZDNMV41MByxChQ68EWMI+79TNTmjzLuhLrMOU5IK4mLCZCmI9HpOpNmubbJCpF/eVDjWtdfWAkW6sxZ6jFHtEUa6gThLJ6KO/9qkWMJA46lXuISh1y5X0hTqRrsAtapSHtkU7mKAhUFKgpUFPjmFCgYrqy3zSTZGmqw5YP7Yun4gRiBk7qSeJfnn8iKIMZminv6k0cDCkpNuVYsHnAqFjCiqGNAscD40xggNjz5eDz1qT+MePJ+xrDmUrW2DNd30dfMIxm/pZ2mK4GNczulINWGxdGxDMCmACbrrCoRYKyBnvUFrAaxJHSUSmnJlTEEImq2zBjcsmsBAlgJSJxL44k0oKDiqRZ9jlWuwOk5EqqKVlGgosC5TgFVal3GC6PtdJZi7vDeaE8fzvGlVNOBFyw0jrTDGRByPpNGEAIXC5UzsbaQsJSUBCsZcEOJCUDqIS7eqOEfx9/a/ZmYfeDWqM8cQCoDDLghaBQ758r4KeA0XQFwBVhq5OBcKg+B1DEl73um9nnUASLmC3O0AUstCAUr7wFLqgYJH2Di1gAiVYNg21dIeSelpxKgnmuVK3B6rpSq4lUUqChwblMgpQ0Aqit11JYXY3l6IlozhxJkZO46gYnRm2TQi4YBNBpPaHnuMJXMW5Wak3A1LXcsyTDsH3LbDI0kehnOGSXN3i98JJbuvxVwmwQEtJKT8RfgkQVY4Gk4ZR3/PTewbW9geafKMlcMpFxKSHDtqKMz1DbTsBZoS2wsEVsxj/S0iDTVqSNJAZ5BHrGIXSINTfAjZRvQ8tCdikrP+BU4SYXKVRSoKFBR4JtRICUVmLQqLgecFueQao6lROSlfFxgko/nuAs8WeHDxcMX4Nsz2JfP1tawJp8AAyApVQFIZmt6/tM5LqXpucYRzcP3xtE7PhFx8DEidTcsJGYRl4Sn61K0MbF5dZdHorLLhLe9BzS4LUiL5dc7nLPEHmCpZxYziCkkpUmkqONYI05jmbgQndYcwNqJBSwPpYFOMFJacvPF0p2KWg8BsnIVBSoKVBQ4dykgi5cdn2T1+LpS0kqqKGWo2Mv4SDExeShaR/Zj5UZ6M+AwmWBT7G5bTK5dZBxpjrDxl78tpo7Px8QjbKUBwA0MwchBIdfRS4kIpq6mTLWgYX3kNcb56H23xPj5V0bfWzZEZ2gTcTEtp8CvkUSsA/Gf5sqw8nziZiF92aJoYoHHKaUdrfQQ78y72QEMRc8Fj8loH3gcy8Q9sXj4SNRmZ6OB6NfTMxy9Wy6O2qbzI87bGo2hMdL3Jz3Mz3yUnLK+ls11WRXPSTTrkATMgBM/FTidIEXlqShQUeBcpEDBJAs2WbSfkAws73SpIg/Vy9mta9uYkE8f2RMsLp6Wes5VSusGkwMy7sPUS1w1XbN9/bHu6lcDSoMxe3h3TO65J1eJaDSHo90zHYtIVqr2VPG5Lp9jVfOcx1DvxdR0HLrrr2LTlS+PxtVrYPaIVJaRP906kq4Eq5XSiQBR1LnrSdDtxvUGSNpC8mmw4VRdM8NEy2nM2A9FHN4VrT3bY3LfzpilnXFoDxh1MJZnd0cvKk3H0LIu45dFZ/MVMXL51bHqO94YsfGaNLIQb0pwUnpitAzSUYbjZhRNjbrnbAlXT3cVOD2dHtVVRYGKAucYBU4ySRvu1clTcdENSLEIqQKGXmfMZRFG3Zren8sPdXl+Sk2w3xwvkQEvIXT0wGWX+sZienAshi+7PtZufzwOHH4Uy7xZwGg6FoioabYSmPjgxoSqxlT1KdGswrz8yL67Y9dtH42LtlwatdVXKIBQVaUnpRIuYPiyev+0rgM2aAm79aqew6dfwNSIQcAQOPgnDOu79rGI40eRjPbF8d2Px+KBJyMmnoqlozti+dDDmLMfS6ONIYoZpy1aFXZYDcPllxpIV7Pz98ccVoX7dnw6ak/dH2Nv/6fR3noNU6EGKIcaUD9BSXVhTRUh5Vv9rED+WH9r83RXgdPT6VFdVRSoKHCOUSClC3hjMnyYpYxUQwDZuss7aAAhQ6/DQHP5IMIEqGUYeN/8Izm5dl7pyTxg2AksJHX5IjRmycT7R0aif3BtdIY3Rv9rvz96dj4VRx7+07hgeCkt9HKiLukTZzjLmF2DTwDQP9Y5FhNf+aNYvuJlbEy4Csa/irqw+25OqlpCgmGTQtV9xG2QY82VZTs9OQeJNR9y19wc18Lqos6afTGHmm73Trb4eDQah7YDRAdi5sDOmJ/YGTG9K1er6KPujnv1MI5UF4zAkB6SWuElJTruK+2NUEGtDcc7R+PolzB/X7Muxn/4Z2IhLoQYqCdB2BaTid2AXovDXrYKcaffelaoC1YCF1mudLa7chUFKgpUFDh3KdDlin68+02fEkciVsob0EXGKUABGPmFz2yjuZlYPnow2qyRl5IEQKQlnuNFKRVwFts0VJsFJ3pGzo/60FqYM5x+ywWx7hWvi137HmFdvftdZyEBSkMIV4mQS1uWfng7+z6xDh/S0zxLJe2+9c/iAqUSjnpjFIML12soAHUWqagAItSJAFdf3mEJJCdRIeUF40ULe3bE/MEnY/HQzlg68mTMThyOxRkMO5CgBmIixhpLWVaP9cdp0GEdXKDW1S2U8DTw0IHRxUHYEvcFsX7iTO/bEeOOxW3aAj0I1BJQ1CVdrh5heuiY1M22fi0wmX8FTlKhchUFKgqcsxSQb5aAkObUqshg9Ia7ZXo5GbWI1AWfmeloHz1yQg2nhKMgIAP2pArNa5n7LPdWrd8W9REMGoAAl5PoecUNsXr39jhw26Oxhe1yBwmbI16qB83AOuEEBIUVJbBB8j62456Y+quPxej3b4il8cGUnpwM24i5GGYxv1TzOcg1N40ucGcs7MSIYd+T0WEVi6WJPRz7Yu7YQ9HC1sEFaEcFlMF+0mn8gBEE9VYCtN4FGANM3frYJq0QvSdtHE9T4puhuL7RfiYSz6ckNT1xMDqHD0R9PZYgWuqpeuz+1W0g/0U7CbWcBPyCbtno7k8FTiupUfkrClQUOOcoIO/VeS74ZDkmAvP0Cx8G6qoHsGWFIRgyfowhWsfYWJBrx4hYWi/nKBE1GfiJJYzgsILThnUXgy5rY7HTlwy9sfmyWPWGm2Nq14Nx7Mm/jHXEc/kjDSFk3KrLHG9SlYZ2LsCf3Fajb25fHL7tT2Lo8quiecM4q0z0R2PuKNZ0HMcOxPLu3TG/g7odfCpmjz8SC0d2R21mJ/tDAYjUrZ+6joKPCF1ZjuBQc1kKyrSdCUjEyeYahj+3lSK94JSSoWFeIy1JkAFUflPkMUgBGrv30IAcV4IIHVcuJ76LCzZcJBDU9U96AvtcEpeGljIqEU64CpxOkKLyVBSoKHAuUkAwkG3KkGWSHgJDC84tk8115Dg79iRD9Wgd2B3LrA7Rb1riukWGmciIMy/CDFeSWsIioj7KeFPPEMwa1RuqrjbjLj0XvSzWXf/m2IfRweLS3sJwwjqQxvLTcg+xqaakZf6AAQufx8DcEzHzJaSntaPRmpyNg088GM3ju6MNEC0eeirqjIV15tnunXxGFNRMTzoFQootgAcwVS2XwMNZKS+lIs5aCzYAGoJTVSlgCUxpqIE/45GXdFP3tkBe/Wz3UQPjnIs7MLqBn/G8mfSk4IaLCSahBSIyg0r+FUQnVqIhwStcBU4riFF5KwpUFDj3KJAgIqOVCXebjxeVnRNS8XjmLxm4c4Ba89GeOBBLxx6P1TBlpRvvaQihhONYkbxWFuwUoZH1l0RjYAxJg5W/6z3Edxfdnmj2rYqBV3xnjOy6P47e+XuxEUAwrStEuKKEY1i9XDMPNifupoSGGm4YsJl/8H+yh9TeOD7DflIaZnQOJlAOw9HbSDKNEXCDupiHTRBw+M9DCc3ANMLA6xiSO/IabDiXhTk7Z+OWuJFjTNwXrHXSRuFJzGkDTEqRqiZ7154fse4CpDAMMmhvYR2oNGX2wpUrnmtO7jqBBEq8Z3EVOD0LUaqgigIVBc4dCuQHPc31nKshyJ3hvMkyc6AFJp1ilbvRFkv1dGaOMwl1MdqAk/xVrq8UYhpVeh4y8QXOvavWR2NsdUZ0jboGC6TW+2DcWDo0N2+Ldd/5N+Pxx++Oo1NfjQEknVzOSLHFfAQ8vIKMC8U6OVcpanQKU/aHb49e/OejorPKjhctA15zgJxpetCxWX0rZRUFOeskqHheJJ5p3FvK+8ZLFRwXjitlewjjP12SgAvpZIIEJ87WwT2qjgPEy+vOi1WXvRwV5mpAuMFCsNIRSRMiJRhizpjpzYKwOlJVm8ZpCflMZ5sqV1GgokBFgbOOAvDNdJ5VJiWI5JkQLzhkkE87+Lz3Wobqp36yVs/wTvc5cgxFY4NFViI3C5m855QqYPKp/hIQzJ57GjMMrrswams2cpN/Isioc1kg7rUbLBNx0bWx6pU3xUHA4tgsYGFa1XkCE4f5iz4Chnl4z7xZLCKG1wJYiCzLHI5Xscxd9JqH9g3E8bAuueAsgJcL0NKEHNPils42pNTXjZvF4PeyG5TxrIegqwQk+kkTMVS1Xs9ALXYvNqLvmjdH/8tviE4vKkwqbdSsAHGtcx5kUge4cjxP2hJYxMvIJ34qcDpBispTUaCiwNlEARmrzrMgk1/+MMKCKRJKQDHWUZwzXO6ZCbogJeNknKjDpCN2LEKSAaAwv545djDHYDIuXNTNBHP8JkssskgrNySZgdUXgiRrAAC2kyBeYf3HmJPWdaLPwLpY84bviaEr3hwzAIdjNyxjl5nA73NzQpm341Dupit4aXY+A0BMc1hlV6dYIMz4LsznNCdBZxnAW0ayMb6Sl3EFOiWmPkGFs21IcOBHQBB8EoTwe9s0pk8AI4LAZnqluSZ591PG7r2dGLvkplj/5h+I9tqNKQ01EPty40LVeCIbCXJvKksx0zwI9zlQzjOddalcRYGKAhUFzjoKwPaS6XoGXgoJB86b5tYwytxyHKZZrPJdgJHAIdN0Fe5ciZt0fte7Gbk+/xePH4rF6aM5PuS1PDZvkdQxGvFGiSUlnp7NzG9CpYfddg11nmbTzkZSgmqzerfzlDoNdHlbLouNr7qJya6XBGuo5pyhVMPJoTkEJvP2bFmCnGbmhjkx1u3gVQFq2dchO4Z6CmmJcCqeALdEmtyFl3RuyyFYO0aGpjIn+6ZlINETkbptKNthW9ws0XODPEtrQutynPo21myL817/vREXX0PrUFkyiOUYWaoxSSQ45Vwnsq9DIKgNLQyTumT6LI7klasoUFGgosDZR4FCPSdDZTUHjgKglAWQftwfyU9/+aJBXdcAaWpOGnV/C5xpm/XFWITbH6sNYAyBJd/hJzAjfySGtFAjvWC06EES+HcC06ycletlTL2b61eh5hIMmoVaDY7upnzL5NkjQlCJds+6GLjquxmveVVMkdaFYjVwY2GFBB8lJp0SjKtRWKaWcTqqmDYFad7N9RJZOtZluyg2pSO35nAuVs5fQu3HguoxCagdZDrU4WODsTR6edQ3XJ4GDkpDS92xK5KfACJrCuZhG087ATQEv5iljEMDF8Smm38qGq/+ftKvI/4IUiFzp4jaaxv5qyFaagDR6LiVCGNuORZly6GLCPcsTlpWrqJARYGKAmcdBYqvckFB9ucXusyZAXhNm7tsMRvNjeJuJ7cb74Grmwbem9xcycgleOZgvTUmzM4fe5Jxn/2pxnMFiIwGaKQ6zQvyM40SSc+6dVEbGSZ/B/6pBUeaohMnV5tAglKaWqoNRXPkwlh34w/Frj074/jhO2KMrJyfJABqJKFFnYutOr6Vaja4t9KMYKQKUZCyOpwKFR5nL8RZqiJWJqiZBnyJ2ugrYs2lr4zxbS+hoMlY+vInYmonGkgi9jEU5vxZsk11npKaG+G6wEVoBMJpkesjrZ7Y+j0/FD2veWN0RtYCpqRAZKqp44Q4NcU5nPHNi5v5+7Sf4sbTgryowOlrSFIFVBSoKPDtRoGUklIKgRHKpXHyPBm/c5WaXfEo7wAQGjMLIN5T/VSo8AQlxBHC3HE2VVqCFAxWKasvJaqFaM9Op8pM7mmRyVvNWD7M2fEawcS5rSPrWLZolDEYmLITT10E1fzr6udKCwfKctfZFiuWNy57LQD1d2LXRw+yV9QTsQqzcNVtjidlUsEKf0pVlGeRhosFuZo5wGK21mmB8zFQCQyJxvDW6F+zJQbWc2y6KDZfdBXWFJtZEE+V41LM3vah2P/I7XGeEh4Jeqh7E79r6KkONEOXJ5pF4hoAnKY4H1scj4ve8GPR//p3RHv1eagIWe2Piqiuo4kJ8OWzIIcEqOKheFU46SftPT/TVeD0TIpU1xUFKgp821EgpSQ5Ik6/LgFLoEm26D3tx+Szck7Ax6tkjjB0wpVoUjKBWQpMCgEtxJRGh2V5+GuqxzrI0jz7jhTx4J7JhEmcajYzB9tyfhHeSSzmxrHUi7GNBBdzehIQuSc2ZTUN4OiBoVMlQHMwBq7/rui5/7Nx/IEnYoS8nUzrxNesJAAhMKVRAkDUC5AIJq59J4jNc2+5dwyJaihao6tiZMtLYvjCq9hz6VIWZMW8b2wNayltIIM+8gR0F4/F7Cd+N3Z87Hdio20WjGiXakRNv52CZFlqQJXQBijfcapD3F99/d+O/u/939giYxtCUi/NYBxNXSMNcTVyDUlKyYnan3Tks9I9GzB5vwKnlVSq/BUFKgp8W1Lg2SQneHUClYYMzE7KP4fiGe1Jbis8yScFrwYSk/HajCsZp4b4Y7wmm5E3lqdcdRXTuKlo3f25mN3/1RzL0TxboBBUlF6SyeJPowWu3aMpxtwgcDUM3TGX4k9O74Z+upQyyKDBRKGUMuqIJaxcftEbvj927X84pg8+HKNIT2KYlRWAXBfP3XTnkYqc9+R8ok7/lmisPS+Gt1wS4+edF411W6MGaMQqpKORdaDYIGDUwx5RZMKgUk9rOprzh2Phc/8zJj75u3Eei8r2MV9qWkSwPY4rUUVradHN5TqWgAW9JiDF6NU/GGvf9nejjSFHh/2lmlSwgx6QqjnClAYQuUUG16frKnA6XcpV6SoKVBQ4oyhQqpA8n9h9Ncc8UOsRJjSIIqr0wB8YL5IU3LdcoKCNSmoZy4EeoKzOSt5N1s6LY7sjnno0Dm1/iKXrdkbPzG6WD7ovBpxXZOvNijwEJ8b6i0BueE8ppDaKpALgpPECkdocuTpCKS6QLiW9Gisp5H2gsTOMeu+G2HLd22Lvn//nGJo/Sp0AI8pRxaa5+GL/hlhcuzmam7bF6AWXA0iXRX01EpGWgexGi/06bQFtWFcpLeWogO1FfgMI2cMJcGrd9dl47JYPxqr5R6MXC79pwLTN0hR19IGq9UTgeRrSpPBe6Kdl4P5J/NveGBvf/pPRuvBlgFEff9xgk8JOm9E6gE8VZX4sdMebyOm0XAVOp0W2KlFFgYoCZxIFZPACki7HiLiWQRZA1YIpw2X5us+veUy6W4o7AgrxBYU6zLsxM8GmegASO74uPvFozDxyfyzuegT9HIupzqHKq0/m6uEu0yO2KM2YXknJc65MriRFNXJliHWXYQwxDiT2IIVZtjIaf1k25YOM2hDW0NlhXJ5jUubZ6NUMcBMLu2L99sSOuO/O/xFbmDtUZ+HYXiSj4fMuicHzLor6xvNZJmhLMRO3d4R8EbEou8bgk+v3aRGohFZTvcYNx6XqbLteW56N1qNfjh23/I8YPHpfDANMltvrfezXVW06vjSJZNYG51gIIwFunnPj/FfG5nf8/YiLr405TPqagFGtoXmF5vFY4wFMmoyTVTH2pec0XQVOp0m4KllFgYoCLwYFZPNyNNl44YorfgEbUQHel06GmpFk+jBlQUmAWnYABud1OhimYQ3W/XEMpCYQOXCiPfUCKjtUWrHnsTj0yF3R2v9gLB1+KuaO7or+xcPh7q+q71zPThNryzNXx6McC7IKjsnoXMLHgRJVfa4xN3TexblskQDpeJb6vxZ1cckeE5osx574cSu+DKQtWXvUcM2tL4nxN/9IDFz20ti0GfXc6HpUdCwJ4bjR8CrKAsQQb3KDQ4CkjojjfCylH4GwQbnOldIopI6ZXZ2JxKovY89D8egfvj8GdnwyLhTPlJKUBKmT42WSZoYqLrM+n2rEMdpzBJPzhc2viK0//K6Il94Q880xJgOjHhT8aF0LsUrjEif1KqE6RlajrYniZH86rgKn06FalaaiQEWBF54CXUYq+KQSTs6PX6c3GV0XoISuUk2XdwUo7pXGEIX0BIc0GajSApQaWA7UluGy00hHLD8UTzwQU6zoPffUwyzi+lQsTz4evQyauPL3OHy/fyiTp7FBSkowXpcOctiG8f+UNjL/LjiJhQKmPJloMcZmezGGRAN6KDnZmKXUIQqwAEYmtt5YuZmONji/Kpc3In4ds7zV170h4tpXgRyoy5ysWxOQBGEkFSZX5XwhMlIqUnfYQGxb1jzdP1CyTWU7WtBRpyb5txjH2v/x34jmzk/EVtqgs0qainermH7nOammHOLe4cOA1KarYstb/m7Ethui1buG/QPbzGFKkxLaq/E9UhPQWIfG+qkRfgljxU7PVeB0enSrUlUUqCjwQlJAQJI5k6cMPs8w2IK3FQyui0tEKIBJBlzGLKriNWwxAYA4MGvFmcbiLMfRiAPbY/qJ+2N6573R3r+dLSYeZq+jibR264MTjsn3NT7gZIkIGoEWLE23DUiBhziLREjruaKS6ReQ3GbCtGm0gHFAfYxtI0C4bu1pF6AhwFk/Gml7OhpesK5QnQyVPKxyH7btneUFQMXxMaQhVHQCVQsE6WHXQScQJ5hory4AkGlKb1SiQSUHGPux0DaWhk7yzT/GmOLIo7Hzw78aC3d/KC5CKlIL6phSCxBepl2u/OBKE86ncizOibZTCJazA1fG1pt+Iprf+TbmT42wfl8PwGQb2B6esbIaAGi51qVVX0jgVVVZPkdIclquAqfTIluVqKJARYEXlAJycBl2MlskAxhupz5fSBdYgy3CnJcAr34YcNNNiWDgS0gEC+zg2ovI0iMzRJrgFx4Joswzcj9zMGLfrph4oFDXLRzfG3NHnorGPEYNFDeCtNADH687iASfTxUYWauyk3ELNE3uedaV0pMSTzJeb8DcF4i/QGBu6IeKTCEEG+5orVmPFR1GCYzFaLadq0/IxElXLOUjICGiGIZT6quxP3pCNMsdKYlZD40YnBFbJEX6opXGVVVYJwJU4x5xGGNqI+4oz9SR1sxpWdBjflbjyOMx8WcfiNY9H4pNcP0kN2WKb+BRruXnZF2M8pIePoYlyHi0NhJbXv9D0X8Dc5n6NgDU1AZCNQVQFZMSgudgHaxpjc0UpUCGGGRBp+kqcDpNwlXJKgpUFHgBKQAjU3LQYEHrMlV07H6UDFjmnAuIAk6pHoNRC1RzMvNUJy2zMgGSwRT6p+nDscjuslM7HmRDwCdiYdfD0Tn+KCotFlqFUbJ4do4dgQHJN2Gv4gvlciSqFOFgVnpk0kKHkpESRYIS8dqtEVRwUwkYWGhHLxiD0JDbR0zMIG0MjiM5XQQujQGa1FomTR4uhpqeZN8GFi7v6yWo4Ok5SpUA5bXSkVZ+LLyUajgNPKQXqEedkKqKRCQHqKi08Vy7r4G+sHZsT0x99hZ20P1IbKINbpAo6AnCNk6aKNHNgVLOZXJLeC5jinldm1/7wzH2pr/pPvO0FfCBUDWkJgFUeLS+RY09m5FgW4Sounw+rgKn50O9Km1FgYoCLwwF5LOp1oPZ8tUv61sGnPyqb7DEdpPFg+S/LRk94W2khN6YiQG3Jz+yJ+Yf+kocfejOqB1/KuYPPRa1uV2o8gALVFND8Et3qhUX1EYlEJFxngmTh+qHzydSCUgClqbTstcl4lI1pBrSy4+Nu9SV6vBrfzGnCpB001zPjF4Z41e+MQbWXE5bMBGXlVt5nHiiM99US+LxXjd4xb0yTgZl/eoiJHVsotbLmVtUvMUY1LyV4pZjSprBJygAWG6QWJt4PFp3fDz2f+aPYnh+KgZogwYe0tV9nxxXcsKt86X6BwE/EHgRkD3EMXzt22P8e3802uu3AmR8BlD5nFybEtPKOtsaHZkUDeMEgFEfz6frKnA6XcpV6SoKVBR4wSiQEgk/DuWjiJL94WB2Xb8sTslFa7s6qry+eSzs2N584Y5bYv/9t0f78OMxgHWdqyWMy4A5VFENuFXtIhNpAY8cgiIfeTnCV5ZRAkOuXec9ilSCsmQZuONHcHw1VwkiagwFowZ7WsyQ53GYeGvgItR4G6J/9cZYc8UrY9P5L43a+osjNl1AYtgzjN1sdKXBRvpLxm3eeffkT3ldnJ20aySlSpBlhcSU6/ORTMs85El8qPLQ/9UgVk97jknDn47tH35PrF/YF4ODgDr7XqgKTC2gICxAQSesyzEhB5ho32H8Q1e/LTa//aejve6lABfpMOlzF98E1G6bTta29HVrfeLU9ZS3T/FcgdMpEqyKXlGgosALTwHZWH5pw1g7cE7VesVQECo7GS77QKi+UpaqHXkijn/hj+Lw3bdE7yGMG6YWYgRONsDR0DSavASVQXCpjYTjAqylGbgokVJStwnyfJmzi6l6T0DLa/x4xYPEAvAtGXcydSSxCZh6e/XLYuz862Ps0uui58LLKRDz7vG1iByrAVIXc1Xic+JrUSfzOh1HVQrpynrSOOWRNhJTztXiakBJSp2iLU9jCKQcym7f+el44uO/F6Oz+4plh0BorQUdWxKMIU+xDxT5agjoGNME7Ry47I2x5W3vjPZ518c8aro6efVyFOhMIyTCt8BV4PQtIHJVREWBigLfmAIJEvw43qRSzzk3db78m4DVIgvX+ddkYKS2/9E0hT5+1wejd/J4aG/Qx0RR+aWSVeYjOuEEIaf1aEigTOFZ523HWFRppTSGX5WfQokA5ZiMUTGYS3WXKzPMAUhzQ0hH66+I9axVt2bbyyLWb2O9ugsBo3H2UQIwEMdabLLk0SRDNwVUCiyUW/zK08n7VF2qxkhXmMp7Zpkg8leK0UCkzhJLbU0La8A51ok9mt09/MXYe8tvR33/HbEBvMwpXdKISrgPlHrLclfcXEuPsKMkq29+eWy++SfSZHzR8SMGoHpBM1qT426qRROtTxdpT6HxFTidArGqqBUFKgq8OBRIxkvW8m/Bw+0lNK9ORAFVmiy5Uzu0PQ78ya/FxJd/IzbAlIeHYbqCCkzVhAkwJsbJQ1W/5RYP3Xuu2m1cGazzigSL3m4RgpTr1cmw54njsdyPUcLoNvY5uji2XHVDNK98JfbmTIRtYoc9wrl3FDmOcRoAtVkDyci8g85QBZum2A1ANaVAkNPrQuKwZqfmBDepkuM90CSvU40nbLk3FXfbyEGo3Zot1J277oldH/p30Xni0wlMxzDQ6IfT99HW3OcJtaXLIAnc4pgGEQeOAb5rLo1L3voPI664EQlriJbVo9eV2KF/C/vGAmit+/MZSXruba/A6bnTqopZUaCiwItEgRyXcSykizACSA1JwG0fmujcanP7Y+nWP4i5O/9zbIXJDjI3R4tykcwkSk6qvGTjeJNhq6LLKJyVlODHGTeZHpFU9yksuUkgPDrHmuYUw9azRNCmy9n477rovfCaYvHUMRZP7RtB8gA0AaA0dae+y4p4wgWrM2i91gMgOT5lRdo0QsaugUKayJ8mU1f20mA8rRjJWqfKsxh/4g5r9y2zdlKPOxPueyiOf+QD0ffUp3NrixaquiH2k5qdnA7sHXKCsfO0yk0Le8hojjGm2eGL48I3v5PVH747lgdZrBYo6mHGsXPFWj4HVKpuH0gWSKQVOPkMKldRoKLAOUCBNIuG6SlBaTYOH4QJOhDPdYOBkP2PxM5b/yRWASiDqPIW4MMCj5NRxQKNGJSEtETLLR4I03Sc5DmOpNRkRNV+C+ThtZvuzRB/vncji4dvizUXXRlrX4J0xOrejVVbWC5oM4u3rkElKEsGEKyL6rNlLPUAgg4bHvU7SQpA0pS7huFALrKq6gzEXAKYBKpc3Vu0pfDT0YaRdQFwiF+d7oCZwKTU1GYOlatA9DYXo77ngTj40d+K6Tv/KDbSth4AfBY6zc9MRx9jZDmuRnsF5wRjmjUBHQ73b40rbvpfo/kd38eE3A1YJyIJWmkK7pC/ACuw5zVpymdl0Ivp8iPixSygyruiQEWBigLfjAIaQ4g2WuMJUFqUucWDBgU1LMU6B3ZEi8VXO2ivZuFaApAquCZcVhUV+FBISfiVmDIvT4IW5wHvkyYn2A65bfqmWBrZHOsvuz6GLn1F1NZuRVWHdDQK8jEBVtWZk001GddKTfXikhIQ/pxbxYRfFzl1hGwJrt/inhaAbh1RByyKBVABI8olKIGz+/PNSPEs9ykX+mix5zp5ioG5xbzzmzgUGXuOPBmTn/3vMXff78UahorAlFRr5rJI0Ej1pkCeKkCBVOzhmKqtY3PDvxX9b7w5OgNjWDIi/TnGBOHaJBIYNWHvVcZUYrIOz1LDFyOoAqcXg6pVnhUFKgqcEgWKuTkyT2BBzgrDr6F3U+DQjGx2777oX9qf83SUemS2bcZSeomaqxyIbYJSl3PCh9MvM1aa6odBuytszwVY2L32rREXXI26DkBCOor+tYBOH2MwMl6WDUJfqGWg+xPVleYAGxdrVQoy+1xI1TpYJijpluSOx6REIRRyz4iue+dloQvj7IXXp+gKOLBkSxFpNLhvYpGoIhEaTWyP4//zvXH0C++PcfJ3LM5deBV3nFTrBGFNxFloI8G5n/qxfyJbrI/Hqhv+dmy86UejM34RVnx9SJpdgwqMIVyVQ/msV/AjQQf1Xrmz8Gk15BTb7eOsXEWBigIVBf5aKZCSSkoFBRN2bMfJuGm1zCd/ri0Hg5XxCxbyfxflVm3HZYKBYOGhVGVWulTxESaTbhB/euooC70+yUAL3NnJUKmw0nSdVRVcyw5gbLl5n+Bk3ohbrrigCs3ClZUcAUqRCLBwO8I0dqcSRE/XAS3bHlgbFMsxUT3KN+XpuqI5phcIUSNSXo5/LRyPiS99Kg7f86kYooqazDuGZvtz1QiuNfboEa0BZ+klTWdp/rprvjs2fu+PYP5+IZXDAAJ6OObn6hItVIjF1hfUGqIyPSozzeeE91vhqHrlKgpUFKgo8NdLgVTrUQVlA5cmcoVumVNhsdcf/as2MVAP44XJ9mCjzVquLIIKs4Vp5jI8MGMBK/GNsGTm/HjWdFpw0lKvd/apOPRXvxv1u74QvZuvitGXvib6r7w26qyCEOMbMbJgYVNQzBW1lSKWsVaTaZuR8JQHhRTbj1tPS2AsSlTMOEp++NWZkYfr6WUlRLr0cDpFJyDoipJsnADF2t9miQpucmY+JgFwV1LvQzqaZLHWIc7SLyVHErqIq6DUhwTYwja+PjgQ45ewi+1G1v9jy/ZUE6ouZJxvMXcDRlIEyRj1409YVdXJ06FtKT1ZoRfZWf/KVRR4ThQoVC5+0fpWFC6trFZcl+Hf6FymWTlb/hvFr+6dAxSAiSsPuRGfElMLxu5yPMnbFZHWCE6XsJ7r9uhHTSVjVjLQUk+mrUSgp1TtiQ8pdRFMlHTm1Qe45eoRi9tj4antsWvv3bHwuQ2x+uKrYsPVTKZl/CnGGXsadPM+OfxAjuvkAqqkb6BubMDE58knZ//Q913Wx6WONBdP9WTWiFKtk4UT90S4lT1FJzRICMevXF5IEO5DZdhaZvfZvsG44JrrYvbev4hjux6KEarcB33ERopNSdLirEpWa7HY0KLFJK6djzwYF97Aquyrt3Af4woSAFvZLuOzXWEBWoQtIUnmck5Z/9NohOWfomv8n7hTTFNFP0cpUIKJ5/KQFKW/vP/MsJX3yzjl+RwlZdXsZ1JAfgeTz0VFYaw5Lwg2uayBBEdDldvO7exH9EAMErcfvEqGSzKByOTgWXpSzUeAYTnsg7hTRyXo+NQi0lMD5u1msy7+2t+ejN65vdHZfW9MfvUzcfjJr0aD9fn6GNBqoBNswpTrWOW54GmxAnihVmsCEn3Ut5e8E5hg4I45OTWrDYpYB03JrYDCVUo/nFPQol6n5gTurvxEBgugcmJeEol7w4Mx3JqPY+xP1bPE+nlkrlU5xaU6jmolaGsQofm9c55a2JMfPX6cPQu3IkFeSiPYmgOVpuNMbnehwrMuYSWyNKBNKRHmx8PptoO8TsFV4HQKxDrXo5aSk3r4ldKTdPHao9jkjW9g4hT6el+RwpVpBCb9FUCVlKnOZS8pzvzSR2pw2GWYu9JUk1H9EVZvPb79yVia3RtjGNXNsxB5AgyclDm6rMoAHQUozpmPZ5irPFwpSr8LwDr+kgsqACy9+AcBq5SoUOG1p56KySe/FAfuvS3mHnso+lnl3Am2ji7VBwYxH2d9OZm1UguzfFX5pVG3ohuGEW3VgXWkEKtCwQ3bIbRQON70n+rTVnIq0gLQ0MLcHQdruEigjeXcMzIY7T1sCbL/qzFMUI610VbBJQ05CHOHXqUjwdQNFZsL03HseDvGL74yYjUm5MhK5Br93M/VOKhtm5XIhUXX7stnImHTmxQ+1aacUvwKnE6JXOd25BJQPJf+EmikTBleAlNJLcMNK+PkREsuKnAqKVSd4Xc4ubcKJqUlGKQ+GSEXdbdrWLMmRz4OPrUjju8/GutZyk5V3RxjLIIM0YuB/25WIoTSVAow3ieuPNZtyJPZc22vdMzK8pSo+rg3RGD/wlws7N8Rs09+Lg7cd3e0D+yOQcz+6kxMRcmFSTsA1euSPm5PQX3Z3yi3+0j2LihhKmH5/gEoFqw/C7Z+p+JSt0kCKp1AZXYcquAEygYSj5OA3bV2/wMPRd/CkTSMUFKSJqpApUNKc8TJRnPdi39uci6WmBA1dPlVmNePA00sVwRyawDiHKoF684zafr+SkjqYC1Oqx2n0mbiPndwoj7S1nqlF78POq980kn87j2DX2zXrUsWk/4iILtAUZ2sr19L+Wyzst1E3VPxzIsHbuSTcbuV78bLdr/Y7fk2yb8ElPJstUu/5xKgVjbHcAGpBKXyXpmuvK7O5y4F7De+Z87lgZ8m/5SpCk7AQLJ8JxL1bFiPOXlvTOzdFbOzEzmnaQA9lnzYOT1pZi7z9t3l6J6SZ8FeU821jKTlCgnJvImbE3cthwhKX+BMMJQT/cRDCGJLiaMxtevxOHTvl2Px0Xti8OiuVDPWtCbEIKHWSwWY/1TUlb4OcnSogIbe3DjxflgbWeVKR7FZR886b5dhGWAYjEn6aKXnuFyLcS9Gg7yRPEuVoyJhbXQ82rt3Q5uv5OoQKSUJQrRBcJKo8jirZRKyY7v1mZhlp8Tx8y+N+prNzO0SnooatN3QEXBS0mrSVnfwVb1XSHJm8OK6bwxOVCoZOITJyV9WuqCJWNQldFFJid79Nug27eT182uCBZY5lH4BxQfNuSi4iOBtjhN1o45ZX9uRmfBrmgy08+jPnHhotpHo/KTlUNefTzNvlHU4+852/KSLhMPRdKjytW5lnPKuElGLF9Sz4NOAgaw8SlAyrZufGU//c3Flec81/nPJs4pzhlKAPpGMk+rJ/lxpoXh5fRFlpkomAMDgWPRuPC9GmDC7//B8zEzPAUiNVMt1WMLHj3ulCp2vrSq9VHFxXYwDdc8waG4noCjh9HQPislN9xiySSCzq/ZgGDHUmIthQKq9b3vM7fxCbP/yY3Fgx55YvWZDNNdtIDOQzMRyFKSZFqq2Ra7tu8nOzaj4J85JJwfyRpcrcXWSK52IRZSkTWZPDOraQpLUEtDdd2V40qeO6Dc01B8HHmajxfkDqa5MgKdqAlW+09Qhs/GaAFV+C5P7WC1jVQxuu4a1Y0cpC30g+RV80GdhGutFymyDPxwvslMr+fVdVoTbVCSJw9kG2Uirpj8HybjyS8E7/unKX4ldXuWN/DHsuThz4fABZBL8mXH+ZJkZXP5QobzjNfVJ+mUSma93rKd+bme4BLdbGFa00WYUljXdMjMA/1nsngkCxXP92gaXICYY6TSnLYHIay2JJicnY35+Pu9J5KUltg1g8sUAn7cjIyP5LWlcn0anC1QnwKd4RN4+4Z5ZtxM3Ks9ZRYGcwEp/cdmfGv1L44NlmO0CnNHxjzQ/0xSPrSI6g1uj7/V/K67adF7s/zRbZzx8Fxz2aPTMHYpVrMkKNiRIOb8n33WT8V4TnCDkfJ/sfwbgXB4v9zXCX2P+j+NYHimFEbbM7ntozaKJNCUrmiROh1m9o2uGkVaYuEo+sxw1xp0GKCiXFqLOZAvzdxdcMvOl0lmREy45T5cDccvbyY0Kf1FLI3OHf8sWJHjrutKMwbyL0EhjhnZ9MHovuSq2XH9j7P3svTGGEQglRxt1pWCrKX2dtgtImRlV6sO/vLgUBx/6QgxtvzH6rtnMLbfJMK2zuBZhpRqU82HQ/XqQp5vFi+2+MThR+YJZQ8TCkyAlkRJOCVtQZMwOxExlV1JkEcJsOaLnCeL6XLKX+ATNlOtv5DJ+8SjoJkUlECvzk0GqdIlkd/NL3OfeyAUYuYkoKukcNPSe+2bW+IrpuMELVi415khklyCRYqrCssW1ufZBeiET1nW/eQqw+lY8jSz1W/9zEnRcgZhWwyCknYQtlpOBFoQLSsbt6eGZ4JaWFmLvgQNxYP/+2LdvX+xGpfDkk0/Gk7t28UU7zeQ/4mLpNMbo9cUXXxKXXbYttm7dGhs3bowtW7ZEv/oY3DIAppWWS6dkXaD8SncCvFYGVv6zigL5yvHYU4Ph86cPygxVKfmx2KB/+Od72mBeTqdnbdSu/I7YuOn82PjYV+PI3bfF1ONfjIPH7gOkMHKAs2nRZzeW9QhUZJmGEKm6k73ArH3TF+nOC8RXzdfnRF/iOS/KFbxToiLcFRb2Mra1NHpxjF356jj/9W+P+uVsmzGyGhBlXpT1Irc2BeXKEPR9yyGbbp/G48XTXPmx7Dm5ZvKggvvY8G4C6FB8/BOHIFlxHuQlD7Mp5l1Xr8n40eir3xIHH7w7lnZ/DkKQhqxsuxZ8nFJt6qTagrZYzjN2dxhV4JHbPxlbLnhJdMYuzU0JeSlpkcsYaX5OKVYs65QeS31R3TcGJ4ouqgFxqJRM3cZBAvi8y4vocwENVptaYFbc3seiPcFulA6oqcj1i0cZVDkbIubZDLu56ktXPoTyOnuqF6axDNL7KdNHdV1GF8udNnMf6kOjqHpZq0OdLyY4InqHGXdtvrASbLJDUyB7nMgoHTjU8se14m1LViN/CKOufpjVc6KE086Ixo/AW9TB+pytzs5PW7sdT/VbAVg0nRuueCyxellzTLd371Ox44nH4447vhi33357PPjgVwGnA8Rb5iWezzW9fBl0Nb4c23wU9Pf38YI0WFplKLZt2xY33XRT3HjjjenfuHlTLLg3dAt7IZ7vIsvVNHhOTUAwQTLzsR9U7mylQPY9H7HvOx8pOlmjlmPJEA33XUxH5+I97bAoa3vdWDTGLoo1l18Xa564O4498IU4+vCXYun4g0jws2lW7cC/Pdfv5kVYiFZrrqKQlthmCYtStee16/KBfTHH0kgjsBV5wCzANEG05c2vic2vuzlGrntjxIYrKX84lhbstxhRYJExPz+HFMX+U/AZGQi7OsGR/MtLfgs/nq6DY3mTyFrfFa2z1XKy4pwRkwcCfHmnyKuwpjNEWjWQLsmbDLSuq29+aay7+o0xuftzMext2uVW7BqCyEoFJgHLom2v24asxj+F9LR037XR82qXc2ITKJ352UDe7Q6Wibm+X/L1rHgR50X65UPlBBI8axESTGzuOMhn632odJIlZES/cpxRvASF++eOxqE/+29x+FO/HYNsEuZktXoHwIJL2RZFw+LheCFIcCloCV5S7GnOOOW9CeIuQvQBAGkoWn1DMcdSG+3+1bFqyyWxbvNFMYAOurVhTdRXrYva4HqQXlLTMfiKceaz61/lRmDUs07PdOlGrWx02V0IL9pJsYRlt6B+Of5knKIHGf2sdAJ5Pg7OrgJtc3MGvLQD2L3fy8SQA/v3xm233RYf/OBvxZe+dFdMTU0Sv4Wem+cBOf1i7GHavqo+pa9C0vKrsMhzfn6BMMyDHRvgfj+mud/z5jfFT/3UO+OVr7qeMpidznLTvUpmVGIl3Vf6z8qHcM43ijcPpiBfSBUfPdJ3MTtm0qa4X5Ap79CvYEf0V755UGuhgmrNRB31HpOVYvKuz8UE5uBNFkRtsYX7avL127YD8Ch9zJsFYIU3galHxk0fXgKQOkhew94AlA4hLR0f2RRjr35brPuO72ETvqtYqRxxBB5UY/25hrbpfIDdfvsX4vHHH4833vTdsWHDxszYD6vMnzj6U6I62SDaJ3/q8jk1Qye4j1xJfpvsFugBrmhnB/TU+CH5LpYauTSS4p5WdYC1q1Q02+x7JU/dfkfs+p1/E+29t8cG2myQ0qBYJgh7ZP6EyQpdGHcP6srG1f9LbP2xf4U4dSmloi1BvGpC4Db1TDaoNAXhXXPwxXZQ9us7Hz6UoDIFgymWFNGPmG3dqKAr9yayAka1xcnon32crxUmsHE7P3RotPn4DHQSSVi+wq4AAEAASURBVK+PIl03vLxceTadfEqUb7emOR/KxzdG2W4M1trN4oWkr/eOxOLaa2Lg4pfHmkuvjeZ5L2HhqAvpjaN83fTlxDPBSOHNFYMFLmrSZX5UiFxVBtqVpLmWMNa9YIhWPqPz8+3vCqAonqetsY1SpHR1TZVosKo2VSkNxova6DT+8pMfj9/8zd+MP/uzT+QXYl9ff6xmBWe/8nqxnvLFy+ecnYYcODsPw/yXHUOgU/eyZIrOMO8fPnw0/uC/fyg+//nPx0/8vb8X73znO2PN2rWs87nEc/db96QzfunK9J4rd5ZQQE4JrznxQehL5/Mtnzt+ek2+o7Y431d5E4xI9VuLD95WfRwlCpLU+RtjlF1qR6/7rphjYuq+e74Qx3d8OWrHH4vmbBuTcLRdAJN7HWm15wuAYJE74fYQRneNIzDqSaowePWNceF3vD2aV/8N9nm6GB5USPMUzVhqX0wcPRyf+cxn49/+3M+lFuCNb7yJfg9HFIzo80UT/DijkKe9aV5125eRuoywSJDAY9OLUBpI1Do8zFXINfFOCnCtOtw/ZSjHttzGo4MGos6H++bXvzUe/oMnYsPygVThLfFKuU0Iu7UnIDsSouUiiXl/kZ64PrLjnli867bo/S6WNUIYcDikg35S9aEuDVUKb16/mD/fRHIqOkOyKwjlFr9p+UJHqrmoIV/BMnoRvDF/KKbYFnjqL38BNedsgpcPEHolYcsPBMNk/Lke1jdpmTRI7SDxRTOvJSLPB4bHBQFLVEF9sg9yoTMS083x6NtyVay7/qYYuOw1Eee/hAdQfNk3UA3mTG8ySCadOfJYRUxfBrpCfi0QnuBKSDF3Ac9Z6qSDR0o6vFALdEY1qDKCJls0b3/k4fjAB94f//WDv4uxw/EYZbLfwCCqVF4ix54WUGsUY1TSr3wJTxKroZrDMSWClKQadPQsi9HmPjaZ8SU+enQS1ckiUtSb4xd+4RfipVe/DICaR613EqBWAlE+u3zZT5ZT+c4NCvgxtPLdbSG5L9Gvel3FAb60vIBKmK99J/DW3E8DMajmbN3H7ouJu++IyUe+wmSg22LYDyBI1sP3kvObWjCoNlLI4swS+zuhylt3bYy9/MZY+9q3RGy6Aq3NalgQ/ZF4TfqwRhIPPHBvvO/9748//qMPM5l1Mn76p/9hvPsXfyk/1uzrjqHab5N/UtbKPuzTkmflO5NvmxhRSCQuQlsYcBXvlHFETtOzZjj1kDvBsxIAyZc6yYnlVU00Wr3Jl1E3Hnkk9n3wl6Lx1T+MMZIsUn3ByHG03q5RiNKUK2fwirLiRcTBSeJd9ta48J3/KjpbXoL2aQDDECUoVidXSqRMX+Y08rD6L6ITgr+uU0IqbOxVg2W3yA6QXzAQ0JCCnVNhCFKHMNGeLYgOMUobBgsQnCS14qS44rVOsHo2p4AjiAmGzjVAQMv0PhMR3w8tPmIwfSQO93operg1FYPzUzHz6FOxZ+edMbLtplh/w83RvPY7WRofdZ9PUGbpwyeNX/tkkwRPECVzQ7SwKRyR0mWsrv/b+1Qyds8eAoVOqzqlJN47Xm6eN53ws5/5TPzaf/wP8ZGP3BKjw32xeROqU+JK+0XAZRFA8YXxcD0089Myj8tUFbQJW7RfQGfLqZNv+YIKUilREb5mDebBLF55y8c/kV9m/9fP/3xc+8rrsg75JpCvW2Gbx8nyvhYIsyHVz1lNgYJf0MHsZH6w0hkHMKWToet60E8VKjDeYd5j7c0amJ83rlofqy58RaxC5Td33+cBqTtjfv9jsXz4oRhEWurhA3WBPj05vCr6t70hLv7uH4naJa/O4YN2AwTjK1heaB/c/dSe+PAf/0H85w+8Lx55bDtq7WEAqZGGPn2Mh5dq66JO1FO9YzJ1/Ctcrhrhy0S+2mupIXIlBmN1AF2KSh5bvLNukcE7RKTeGpOAUwVFm5ORFsssFXnwXiUz643mmoti9StvjO2MJfXU90SvPI8kSTo4vwYS7ollgQoLbuO+Gp56aN+dMX3Pp2N43RZAGYtEX3qX4LBC+a4Xeaxoyovi/frgJF+GUAWlOOtPRSVSB8S0KzhoLY1cvVfDAR9cs81e88tz+fVtf5EQOk/G7V6e/Joob3pe4QQc/vOhqYUr0xlWFA69IKwA6POdhm586OeijmvobGuWjsTcQ/8jnnz0zljz+A/EyFt/LGrrLs261ono1wcjKtkuiaDU6njLCV1qt9N04ctSzwpXdHTBhGfIC6MRg8/N5+u11kauZfbHf/SH8S/++T+PA3v3xNo149GPwj5pA9gIFO65UzwT0kBGx5nSca94KQsJyeefenU/CHzqXSaiv6yDBhOjg4P0mXp88hOfTEu/9/zyLydACYDq9a1nLy++znT2g6L8DKp+zhkK8NTtf7RX4yY4UPYF7ZiWE7lQp/ERpIGAKpVev2SJtwzAtMdGojm2MQY2XRYDr745Wo/fF0fvvj0mn7g3lo/viNEtG2Ljd74jRl7zZiwcYMy968gCfrdUjLnOTx6Lj33yz+M3f/t34ra/+kuApBWb1mE1iNGA/XztGvwFJ88+Wn5MWd8TjHDFcypUmLSFujZ89xirqKm2IF/H9QWoXGuQVi5xTy1Ejjf5lQ0PyyVcpUWXDvl+Wj75ObbeaY5G39WvifFX3sT420diU22CjQS5zWu0RDSBScBKLRTDaPPwTQ0oRub2x/6v/HlcdOVrU0XaBuSb+X5LdxImnVc05EXyNv5P3LPm7TMVt7PhVqpkCPr4svZ+VpLWgDo1ZhovPXZvLPDAG7loIkSQ90srDuhwsk0QxL5DNglYnlc6kmW4cRYkJEVYXublPfxkmXpTWWIuz0EBzjdYAvmdsyBQuUBkX3siDu2/J+aPL8XI5o1RH2HvYmpT40Hnnig+YpifhhPZnuxHQBKFWT7/2V5O39AV8YxCBqQq6WVIcaVPyhnz67kuYaSr2Rg3/Z6fnqYopRttxS2jPdu9leFldKWQ8gVKP9dKTb/+vvfGv/5X/zomDh+OTSypr5GDc5IEHYEICOelQWWRNMPvA/EFxBWSjWcfPDQtw03j/RN/xpYefhhYbgF+/SypfP/Dj8ZhjC9ueN3rYvXqtQCTUp1zLYpxrARYgMy0lTu3KOCHcben8X4yBoNaxeEGIIm3mj7Be+tHs8y5JoPm2j6ZvIGPoAU+qpZ74QHshtvDuMwQ5uDDmy6JvgsZCviud0TfywCtXibV9o5lX1d1TTbxwH1fife9973x7n//7+KrD9wXI4Ms+TPEBxXjrXNzc7FqfDz+9g/9YGy77AoYEf26O0aTT8f3A5fvSfqKH3lE6aghn8uq7tAS8AGYvIdXKLeywHq1x49/1ZW+f5gT2tYFgFeA8n30069bDO3PKzCOtqOGHxkeiCfu/QoL3DIxlzwFcl9LD7zZPq32gGAAq5Xak6NTuzA+2xLDl76UOvBu+r45HEIhsiRfvny1OZcga1j6uxGKVpctPPXzN5ScClZKZ4BShaxkxxA70X1mmE2zRsXZWPXawUI1ZOOzskUjjJIHxLXSSRzv58XTK26YwR5KUBIzqeiDIVARNIU4whMkCXejLXZzjhnUfAuCFHEUU4eYlDfamo0nbv8tdMvLsf7mH2eZjkuIrJSF9R+61syb0jo5N8tOTaHZC8ikfBJE+1rXfUq0Ox+UEay8bdfbTVC8Tnae7j2z7d47eeqmKG/k2TCc/qwTdewWlEF5s7xfnDOabbEG3UhJ4260wsS+kFqURlTD5VgQX0YtXoIP/tZvxM/97P/BV9RSbD1vM3uyzfNMIZdfcWSUenQyNp/yuVsN76VEQ3hZnuE6rwW24uXs0oowSetrBB6yBfccHx+oaJj7dN7GZvwpqsQxvkR/8T3viVWrVqfaUWONBKYiwyLjoohT/i3zKen5zAzK9hR1fubd6vqviwJ2OwFKHuQHLwoufIyH4O+BGdBD8qNYJukYjKbduVmg0xSIkx+deeaeUtHYpuh91cYcp2nzEVZbHORDm5xJ30RVt//o7vjzT/9l/Mqv/Grcc8ddMW7/XLsGXtIT8wtLWJcuxDRz+py3NzY2RlnUB0ZOlQAHmAxzj+xDaR3sK4P/RJ8jrhsnJvvkA8z3YYmye7BIXlhGZS6TWpiJyV1M0Tm6L8YGejCbX8+W8hdEc8Qt1TFW4h3OD0XKLPq0LxX1B7gULNotjJW2bou1SFCTX3ooxqBDEwlJnqcxiPtjUdUcFkFRH4sQSTqtgpdO3/OZCNLFxa8ln5GinlTSd1/65rvhA5HXdJ0+79mYYliovHPq528ITla6QMqiAj54rTVcCt4H759W8H612NpcMddGE92xC0hLA05WXQnb5yawCDgCC6eCOp67znSqaW2z405ihnUxXUmHrJH3vEErsEBO44k+zq4lpf4Wvpuiaj9i1KXDizF5+2/EXgapNr39HyNBrc2BwTaElL75pWOlKMS87ZxFR7LsDDH0Gc7CTcxZb7ru9YpU5S0eV+ZZXpcpPPuK5S/Jn7kkUxYvvTPrIjXepxXZTZ6BWY4B3UjZf4rss6olY/ZrSFWeKjkB6vf+63+Jn/+/fx6QWooNqPJmZ6aQWJhTRpxCdUEm1CPpJdj4MK01ARalK2hWPKjsvNTj5NilsWQWRcfNBPwIXFrnKbVNA4bObxpHBfPb/+V34vLLL493/bN/Rn8wXVF2YRlYlljmcmrnom5Ffb9eyjLO17tfhX/rKeAz8T2we7uGXW/biSHd52i/kuvkWQZa8CtrWYOR20n95rQDO37jXk1aIBOa/avDO9BhwlODDaMWWPj13rvujP/wS++JjzEWigVEbFi3hj7fQPqC/80txDCqaPv+4aMTSPirYx2H1+avwhE2RM5yD99u/kinK8+F32oRjlWG6nLnKT305N5Ys2481g2wCaAD7gcei6/88QdjbHpPXIRkNnTRS6Lvgsuivva8qKOmjJH1IDN6Odb3Qy+YeZhr1gHb+frghrjgdd8VT+74XCzuezhGoYHS4CIkWOZjXlWf86Cs3jJkkn+vwr+4946YuOMTsQrr59oo856gVfHhXrQl2+rzsE02Roen4AbGKYJO95eqfB23MuOuX91jonxBThLCMHwY3erpayMC5g6S8i07gpX1Bk5A1W+/cHfKNDEhLI0dOJtEJ7AYR6lJYBKnKDLBLEVSLp00p2QkITUrXwbu7WeZB/dSsiK8WXeAErGYNKu4//idH4nBrVfG+Hd8H2UM8NVO54aKS1TML/g6orDL9PtFn3pr65ztsxLPdL4KPATS5hcbt3PrZK9taBLA9IAAZVi3fHDdB7oyN7uwrmDk9h6vKNxGSbjuZWZbXGWUfB270Yyek+Syvi5pYn6Uzlka5gdFUcwJ8+4W+usmL8QXv3hH/PIv/wrm3Udi/fq1AIUUg7ZIU7l9c/Y0MsIVg7W8fIIW10pfJcBZXi+TogU7JbNl9f58gRq3R9Uc135FJkCRWmYhXdpM3F7gq9H5VI79jY6OxByD0L/+gQ/ExZdui7e97e3kQd70mwIsi7pYn9Nx1tPnni/Ys2VgeyV2truIYImS7/mV/GyFvfhhZb27j/85F3imtblk9TYA7pN9R7/tKt4t+5b+om8W7xW/Mi4Zi46PqoJxq8JCLWZfoL+qXl5CpbZ/z/74/d//UPzG+389du7YEePDwywEsTpX/p5FwpEfDDCVYnpqKnrZetb05523leN8ezQlU7qM3BdvhSv7XPbfbr9apjzfneI96YnP3/nl+OX3/af4p//4p2L9K64lr/4Y33BeXNDPMkIHH4ulRx6LfY9+lD2cNkd9/PwYXH9pjFxwZfRvuSyWh1ZHkx2D62MAiSvXMrDUFKzc2XbT5TH+kr8RR/Y/HIOQgYVyAGKsEqkfr2CyGC2jU/3JNawxRpjjNXHvrTFy1XdG81UYlDGL2fmqtkOz9oI3KbFJZd5rSNxQGqXZ5QfoitdnBSWem/e5gZPcA/bmA60x2a1F6TkIZwOd35RikOowdaVatdA46959NownFsxRRoSf55eSpwRyYpwbYAkymjiaRKYqxQQgQcp85NFq4LKobnrjGM5HdcZRilYac14afQ4P/yxxb7+UYJqMrlnYFVNf/HCMX3BR1K7gYbKlZYsMFuhIPTytPvWB8GW/LFI/IIPKWnFKV1579nUgPZXose0Ukppjzta9meaBgARfNEtUqAeiNGiAdeT/ac7cDC2YNlcZoVtWN3Lqc7M+3icQv53CX18YLXk6VFwaZxlw/lSBcG37i/QSp0ifzB6d+WHGlt6PSez27dv5AmTZfF6WRdR6SlZEzqrYIVXteU8ngDifw+ujR4/G7Nx8Pkdyzmfdz4z5oZHRGEbVMT89lS++JuUO6krXbIa19iXO9gFe5NWCjkpr5qdK0blQu3fvzZe3BxAsX/CiQVmV0/op8/Fc+s2o9JfAtfIr97QKqhK9oBSwn9tnfEHs2zW+KLtXvgFFeHZv71s0F3gyibfTEZNOJz/Ljog/1X/ca80txy/+wnviV9/7q6wQ0cfySOtTi+M6ex36r6spOP4qf9NK0A9r34X1GzbFEH3duhRzBfH4/vFnObBuEvraZqVyCkYPBj6+Ykuo2vrQHDz48EPxb//lP4vb7ro3/tGP/2hWbbmOJevqS2KQCet1pBy3Yh/0Y3xmL3tPcey+Iw58Gc1RfV00118Zoxe9NMYuuTx61m0iIjv6rka6GmcMzYnEr/uBmHjogTj01K2xViELZPJjL1dpp1qus6f1vbv8TlFd1ymcYnPH/X/1p3HeSxlLG76A4ZIhhAYACOYqAEsH54624ftOGHGcr1yD7/m+o18fnKSyTlqmv/AksbnOTiLB8WUnsKK86MbS+QwEV/uDfmPmBR47ilZ28imEmkC9mWv0ZUONx32lJkFrBiJayVGu3RCsh7zYxLEo046iOo9r+keB3JyzHxA3gc3yrJT3ibsagNrzxKdi6s5rY2QLBO+n80lQ/rL2xsW5FbNfBzLRDMoGcZEBvhDE9h6MnqYQ1xnb5MKR32zGT92kX3KOq0if7gt1gkpZVP4kPWWUJFumPkaxC/h/ogFJXzuCt/OH+0p4XlMLb9h4ANA/UbmRQFRIUdLJZEWbyMG6AzhOrP2TP/lwjvf0syCZUo+qNuMJPoKUYTrb4svoi3WMnTQXWPVh7drVcf6FF8c6JtAad3Z2No4cORK79+yO49MzKQWNoqvXsEHru14sksyjjiTOkHbSDOKkjl7DB8FuAUZw5RWXxz/66X8cP/zDPwJw2ZO6DciarPRnwCn9lEzCc+k3g9IvJaV7nvV33TOvy/Az/Vyy8OJ8KrWVBs+P1qdS2jeLK/0L7YIea2bd7Bl5B5/P0zhFiNe+qEUs4+iKqzwRuTD2oT/S1/exRuS999+X1mlr165LrYsaAJc+y+0ifM/p422k/LLv+GasZhxKV0pFBdWsS1FHr7OKGQvWICpRR6dw9LG0186nnoz/5//9+bj11ltZYHaYcazJbv7UlTwa/cNdPgOg8IoLKuYHTjKFBp7ROhTzew/FzL7PxeQXh5B8xmIQQ4/+rddG79ZrorHuPMay2nE+W9HvPf5QTLGJ4hrATt4xI8swLw75jw5lR/Jo1yg8+OR9sfDVL0bfdazAo0YFCcoPW7VNffCYVH9YR9J5pCRFPs8QHM32lNzXB6duJTO39PtA/YqW2Bw+cFpS/kkp1Ualo71ZuWwsSWUthukyJ0rWQsR1q5ZGEUWHzo9pBhjzHtOYBYcG0L6AvWNtcTaWGDCvz6P6mTueD2YAkEE1nPzf5a3MG16XgJjVIMDamJ9MNnk1D1HpbDXH5P1fjuGX3h9xzeuhbQ8qwkJcVdT1q4quShu7bTVv8+HHrIpW0v4sSNApGLdP0+8xpco0ARVkCDFa+kis5Cctns3ZkQXZorDihTKtFjtKSJab6kE8vnzzlsNzaOJ3+fxuz0hQdrHGBDxSFfY81t+Su6+x9OUF2blzR7z/vb9GJ1/GXLzQoZu3oOThiykw+dJ5ncybfI5NTUPvZrzl5jfFO97xA3HdddfFpk2beWbM2EcV+PCDD8WnPvUX8bE/+3jce++9bAg3Feswu9UcvDCusJ0ShK9VwQ4JTrrt3X/QxsVbb7453vXP/0W86vrXZLkufeQ8LOdHFQzga6lYSj2en+mSSawMp54Zz7NVeUaCE/dIU9CR3zKN8Vf4y6RlmOczwT2dHtaJllo3TtnmbtCJupbXRZSkSRFkwNPbb5pvRXuf3oaizG7ti/acqLwt0smXSl9xnY3F65MuYxUx+C0jp7cTBw/D4Gdm0OhoKFROsyj6WtEn8JOJ60SKLxoOSaNxrPV0ZX0NNDxdWZ9uWcbRCtCFk/v7B2Pnk0/Eu971rvjYRz/KDr8sJMAA+vZHHonFm95EGTKkevShqpuiPD+wBRSdH9/pKAhbCbQ+AJX3ajNsmTETM0/sjSM7b43Z+oXRGNiA5e26GFvbz5zFASbGU3fi0sTkm+bjmns6eZXgxIwgJt1jGDH/YBz+AovCXvQK9tMCJOFzhYUkaXiH7QdqZfwO9n1OoQBvVoXz6bqvD05fk+MJUuedApQs/qQraWVI6TeVz8SYee4mkUkrEs+js119xZti6JobaRR6UklD61J0VyzCBG959lgsTs3GIisUdA7uizi2J47sZqLY0eOhZbj5+MAsMwFEP9lotGKZjiX5haFT9TeKaLx3/xMxuf3BGLv6ehj+MOo27pFBSiUkUsrJ3gWTt635T15dL+2RZZG/eVJn+azzt5W/REhklgSv4kwk7mYa8i2zNrR0jlul8QlPN7cI4IFb5TQlzYdftC3H+Ihr2T2UY6dIYOJsmHQt2mCJ1p2AsqJ6BDryS7UGnf6LLNx63z13xzi9ULAqv/z8svMlyhfSepiGMIHq6MSx2Lz1gviZn/mZ+KG/84MxhFltmtzSQuOgro7X3PDaeMWrrot3/OA74t3v/sW45ZZbYs/evbFlM0vy8zCkmw+nzHd2diEOH5mIdRs3xN//iZ+In/wH/yC2sIK5ElZ+XWJiriVT+fKXZ7MpnXnpynMZvvJc3pO2xUcI9LLe5UPp1olMiOFDlYrcT9oVzyj7WRlvReYr67TSvyLKt8Rblm1bS3/2PdqQllZ2A9tWNI86FW3MPtxtdj4f24zTn7R6RptP5N0NL68z0Qv0Uz6v8lyWUZ5PpZhvlsYypljp4Qjjrhrl5McZko2vkB+Hvsv2lnyB9eF1hZRRTMq11CtdUdfy3SneifK98p4GPUusMKE14N69e+IX/t3/Fx/5048maAzx1T2DtuFhzNWPHz+Wc6fQ+cXQ+i0xyXJJy8sLjHMVQxx+EjuEYf14NbSFSOc3qM+ynzB3x121vDM6R3dG+zhjSI+Thnu8skhnnPuZoNxijUwSmBfsLp0aLTSJsYxaa5zWH3j4UzH9lRtj+Kat1J+PRIcq4HcMZqRRHM0q3qGi4xSZPM/fUwCn0y/JitvN86wHZ8Fqilq1VcxkvjiC5e9rg4rG3EnqElGJhMY2UQc10WkOduZjfBaK7nw8jt/9+Th83+dYneSRGOtjchlEzQdkWRwCk2edDLvsUwIQ/Dk6bMY1f3BXjM0gPo9Qrl8QJMhViSnTpCmt8OJlRkn0AhTMs3TOo7DbIleQhhQ8ZCfnFUUrfZFPpi3yL5lEmb48JxiDKh0+Pxy703DAeQV+1rjoIs0hnyIzy7FtTtxLpuoopo0isGAips0+i56ccAf3AI0Uy7jhSyqIHDlyGND4GOFKqeSH6sx7Os+Fek8DB41Kiq/IiYkJJKRN8e/f/e74gR94WyHe8xmWa4kJXr6xmQegiYruypdcHe//9fczP+Td8UtYPk0c44NihOWPLIbn7OS+4+wBNccY0/WvflX87M/+bLz5+95qDVjfz4fiw7OKmNimas9mUtnMIG+d+CmZT9mGEzdWeLyX982DQ/ArvIYXeRdxTpZTfohluUQqGLxppbN1KZx+03peGV7e/1ady7KznRRatMfGZZPzy9e6FH3FV8MeTN27ZM2z9M2PxOLlWUmbsh0r22tYWW55/4U4l20o81pZZtmuUyn3mfmZb6my9p04wBYwqpXzYyv7aFEyb1ZZhaSj5MmPNfrA6tVrUnKyHifrUvpP9gn7i8CUfVm1+NEj8XP/5mfjv/3332OdSra64Evb+g1i0v74o4/FMT/W1mGJhxTXu/580GZzLE7vSEOwNAKTKfhMfbS+/hzJeKw3zvm88lnnfLrIbQ7aE5Yf4YAPxoYMqxxP9uByfWZXanbMap7Xz4959i+M5uHJOHz3F2L4lW9gDAtze5Zysv309jzkNjkGJcuiTlZhBcW4OnVn3V90Z2Xt93nGo3Wk40siuIxcyUPzEDfLkhkvE9HGmcbxIFtZIwHfG1EbYBY2ppFjF14ZYxdsi32f+VBMPfVpLGrISwJD0OJFMg1+yspyfUD4cziHzAf75mPx4A7Wn9qN5csW0vB68iRSlPcTJMeLJLLAU3w5+8BKcLET5YsCc3NsKF/ofMJuzmUDKZd7gpaSTMYpG0V87nKcdKUePQGIe9bHaD7wJRhzDUafZZLE2uRNemMCqE+xy1kUudNwgY4jxexAdt6iSMvkoksgLZHuuuvLTCbsy3XuTCe2ZLu67dPvOJEv6+wsc5EI//Ef//G4+fu+LwHUayfp+tLplOTgeun3R6mnH335u971TzFNn4n3vu/90QPoDKNnV1W398AhnkVf/PhP/mT8E1Qbl17KKh7oLqxiA1WfHp/fSnqVtDd0pVsZLiMoXdKATKyL7fGQMcuUfPmSyfiUsyyZhzSwRH8K0GoB/kqWpjWdFoq6EqCkUbF0U0Fz7xn3r8PZDp1n22Yd/biwPkoDSVzu2y+N4yOzj+nKOgtWtl1rslRRk0d5z/aXKt6C4RZ0WZk+M3uBfiw369l9PqXf7Ff6jVfGLetaxrGe5Zw+00gXz7ocU4IuXh9nHFUrvLWYjZdz85xu8jWPkv7gx6NpNSNfy3ir6VeWr1/DorJcaeZ2NL4rx49NxH98zy/Gf/uvv4OxwwBAAQJYf9BhkHGd/WgZjh07ytsqL2QEmTGjVv86tEc7MGWHlclfqLt81JUecrwev2yDUwKV4cZz3qfW0SlZcTOtoE2LUOgWUCbw8ZuuTJ/fuvJMquXCurCImD+0I2L3k6ieLsz8+5HoFqhdfpCb1qzIzyw9JO/X0I3w5+qKN+y5xiZe8ThPIYFpSGS6POuRtyYluuEpKUEJmHvB/GEUclTiCFRMjUti8JtxlvqYEMaKjc3Xvzk2MXHswEcnYnbqK8HUGL62i3LgdzCjgjhJLPLKB8pZwHKm9NTkrpjb/1T0X/SqBL9gMduBOgNYzsytOQZCHSjf7wOd1U6vGZbOBwjKOpmug9jtN2h2fpOQ3q5VTPyzi8H4iizL1CfO2bGTLjBRelJKMcjWDXpdM+0+qVO3HoUpIQ2pzxcSFdBnLU2u1FVLxsmLw+KDS7xYPXb6TCujLV4gX5xHH3qQ1TP2Uxb36Y0uI5Qb/smIukwtXyiude5ye+m2S+Mtb3kLBhHq5IU//sgrDRx46Wy2jL9g2gUtFlFhjLGjmcYND7OQ7F/8xadSwjrKl+FLr9gW7/ypn4of/bs/gUQ1mhJUHw9PxpAdhvxK6cY66FYygCLk6b/eXxnHNutkSDqvZSrW0fY1FRuh4Qm3wnsizM8L0pXM2PQl4/dcglVZdtH+lR3lZE7fCl/ZfgHZ+vlxYZ289sWyvg3HM0pXkKa8OnFOizjoWXz0+OWPckuAw1mG16W/pHMGvEA/ZTvMzrJsQ0nbktblcynr4/1nOuP4AWEeHmW+notx0AJ87ePLMAjHTm3nkpqHFEme3ilyEjpAs8g4+flb2fBw08YTeaZEyptgmWlOngzIjxpX2+/FenUy/tP7fi3e8x9/JQb6BxLcllDXuYAtPYk3Ct7FWkIHDh0kT8r3Q5lNDftXbYz2AfqvVSJOKkTwCExZxbLRhFH95AfyPNV1nn057epUq+jthHGZYOV4kQesMdmLc5+Mq6W1wJZ2EHO7Y+HwU8hMBPrsOZVUkQ9wWaj5LNt0yf8s4fTcit75dTKwRPP3/I1ced9z6e/Gl1BmkWc8Ekf1mSjrEvBpWOA5ySnDw6ckY+Ogug2F3eU1IQlYy8QfaAxH85XfFWt4iE9+4ivRg2lkfmzzsHSW43P1YVonMdDFDn2QTPBm7OqRmNu3JwZYO3+RL6alpx5mMtpRugeSioy3pE75OWCmApatMc98mjBg1JE1Vj/vjKxLC5ZejSuMi8szBdqmYimVbqDEoILFOJOtMoZHsSx+A5BpsgzU8r4dMcsxxDr3DZHNTxs+gVJVyZ7Sdg5zJxSPvgYMHibEflejbMBW7+cLUEGQ8lIqo1j+kWKm03R1EXNtlzcRsf2iyxcq40r74tqs9dsa1w/TsMF4XperNiSYUHZG68bXXzJtdfNbeYl/+qf/CRZJt/F1Oh3v+P6b43//l/8yXnnD66g6zxWG76aELpxZMkCyyrKL8r16uivqYVgXkKiT/2V8zyWz8ovfaxn1SjcDszhw4GBMsj+V9WxRfgleTaTCfua0DKCAH+cLecP69QVj7zJoyzf/ZzJpyzlZt6wd1Sqe84myC5J68zk783xm3pnex6GT6P8/e+8B72lRHfzP7W33bu+9sCywC9JVFBEsid0YozGaT0xiSSyJCYpiQfzbEhUQFQJq3mBDsRE1UcCG0lR6W1i2997v3n7v+/2eeebeywKrEt7831czu7/7tJkz55yZOWfKmTOEkrdXjz+x0yHdha/9CMMtmzfEFJYGANKbf1VcRup6n7fDMGXKFK6sSVY0y2CnYX0ugn1kfoHA0B/wsc04PCOInlWnQnMoljePStuIGPLZOFnBKOwdEWLezSLMMG7U9Uphjkj6iFuVtGlynllhSb/KybYotsK3k9gXkj2DiBkN6NfdlmkVAzNnzkzj8WKiw9lcNnIo02ibOsghhC1M4ymA5HW4QfpnvJcDYyJbN7o7DyIHoS32FmZcbB+rVq0GBywF7USMmhTKyePgVUoGeVhGPBaNLNZ7TqCLQIgtOTwrG5zMsRj8KTsQg0OjHFtDA30WlZyyQuRVTG6Hkb5wnkBnv79vI21kW5rE0MujkqLTTSLTmYu0x15KAERdV+D+F0IRv48OQiaAZOZ0juKj03FWsPhcXSOeb4zg73ABYtAtOWoNq3RqDIJN17exjgKxMruOKR5FrvuEQkGhaRTSdY5sTDOGKbmlT0mNtx2VerctQ7ih7SkI159MryISLQvE+HYNVFhuZ6rzjHlXBXERUrd/e1p17VVYuLAHYJRuQTyTipxJGId8wXgrY5QWsLgLeB0s/9dMPS4d8dLXs/mN844H6BnxpZGCEU97TlrzkZpCRnWEchEpkcuNIN/zF/gWsKOYGtbXEjvCV1/7hbTzrp+kKQ37UlMflXgQM85ajgCh/9IsfBDpw5qDfetAxNVQXXvagBfcwTknphOmzsATxjj4kBthZGkeNF4b4fq1a6j4KGr+KLhrUap90gjO/lMYiI+NNgQ6NG2jI7CF0dbMufMyX2nABv0TxuZa0gWfeOezRgz1wFcQaJX3lKc+NZ1zzjuYPtkXFkqTEXx9WjwhDG28uoRpoudQYChoyn1kVP3JQiDzy1fG8Z0FE/fQUN5LRxGkvtuzZ09atmwZZsNb0o7tW9LK5Q+mZVhH7diWLbV6EHi6nnEqr5ERRgMjuVbcxcyZMzctXbKE4+YXYR7fjveKxbybHfnIo5FBHPJUZ8bDb6W0R8bj5W8cCo3lWhJaZJIegQceh8pO5WGQBw8uX55Wrngo7WO6aP3atenue+9J69atSx0IQkcV0mAnQ0s0fU+Oah/HdNWktHjx4vhNx5hFNz0LFizgRGPm0QmZbmY3tKKU5iFE4jN/LBCQG8JvBK4lSnXN5ffwMs18zCOmcu+1l6nhomytu/tpx51sYbBzUcqi8El+9Fd1WD6IzIwZ0yO9caMDDM2uN61fv0Exi7MF9jBhdeoMQcygSABJXV4QhF748zprttRztK8XfhWJKitakEmqOmRd6GI09KUvfSHWXuX3rBnT4P0+Zja0/GMKkPoPB4FB+zxwMK1es5b9fp0YHLHHCVdr9Z5Vhciq0UG4kpsmozihWYVYks7Cat87RkbURRoueUBQZBeR9aQjWY6snAIM5cUrYahw6gGgYtJXKT12o+JBgmULrM+sc46McoBaXijjwmtMJffk/3DFrKL+FpfDKyexMf9yrR6hLzOBb8EM4/gz4tC9z48eZJzBgUdDPybioe3s1UapQ2gUbTDc+wEKK+zgSNhAF0BrtgyCSovZpQ4cxy1+curYvgxOAhfYRInhavQiQEtmh+wSPyKE0vK2B3tJp8+mMG/c3pJ69zyQtLtxZs/eiEiUtFEJ5IVBmPy0EtyzuSf1bj4zNS94Eo2Uww39zHt7EVoBypQocP5Ej8IH4VB4ZeTke/+rzBoH6b1qx7l1JS4tbkrTu+5J46iQHhJGlOgZCdZjQqQpRlGRC8dLQ//opjGpffpzU+34MbgoYRMypvL11ZRp1CrydS1hDwrKqYQYGAInoyUeFZ6VoImGR4schVXSWhrMf2JEceKJJ2caiGPDV4lYakGHd7y3wjpy8q3fFSItNLSzz35HrsTg7MGC5ZsKJG+0zXQVBUS0R4QhwWMDIAzFlQ7/UVj2fPN6mF6de9Pdd9+V7rrjTk7x/UW6DjP3VatW5zn3wLOOERIONUNJV1NXFmLwAjwRhnfdemv6xte+FvhqnXXaaU9Nf/i8P0zHP+n4dNLJJ0ETTkVjlKJAg2rSZgUvflErg0dDxEQdEPmhN4e9KTSWq5Sb1GKKKdYqD3kjLw0bN2xI99x9d7r7nrvSdddeiyeQX8TaoQ3f6Vyt0hTyCmnLQQMVWer+t75BpnEQoj/4/veJi6sg4rkm+LznPT899alPSaecckqa5KmvBHv4gVfVMuNl/AG5io8+iqvwvR4aSpnKM+OYp6Hg5r3lWlxZPUAHY8VDKNxVqyjLVdFp6mJE193tzkkzKBzyisJAATk6XrBgEXXw7LR06VLe80VhCo67cUO0ft0aYuKXgRFzJ6PLKD9oErcM0rjIHVBz1NJCb3jcBDbz06HyCBgVVi4PR/85nXy1k3bllV9J55/3fqb1OvHCMiF1oEwV5rRAYNN5o76qdAaw4utm5mTjxk1pH524VkbuREx10+annQ3zkHPMpNA30JpOy70wLa/Qs9SpgqGIXGNCXwqdss0/nR2In9wJGciN03bKSUmMH++Mp3yrlvzjuY8dyK1kPOiRHRoOUL9zCQEMiN7boXPLSqw9R87m9PjC4ZUTCEbw6k9kuUpcnmqr3hsp4oKelMLYwwWFoQpK+moG2bjp5iIAOzIyD/5zh4AhI3+uqMREGRXIjXCZuw6DHTE4XMarwcwlqbNhdBrdu58GF+CCNZEX8ByimtTTIO35+NxDRnWdu5nj2p8Gp81LrYs5Rfc2PJenLZzaCqNJh5Fg7q0QX5yR8yHMuQ0Y9kt7D65KA5vXoBl2p3rs1Bs8Cxp+WOA1ZsZDjNxAJrv98IOvM43SrSDPro9U0pjS0Nh7Vq1IbfsfDHcjsZhJEiuUFU1X9wyiYvgtju6U7+/n7JW0PzXja2vq0ScRiU1zcEhcs5KPQqqyRoAplPjmVIDrLpYt0ON79ILJSMGgggnFwsJtF4e5ffWrX02nn/nM9Mwzn03P7mC4JVIhKJwkLAup3IjNO97xVzg28loLiOB9g62LkEUpNzlBvPt1f0JgECkLM5CHBheczW8QhjchYHbs3JXuuO329POfXZ9+/MNr07333I0C4YBE4kwZy1QV88DCEefyOzRfv9exSFlLWfbwc6TX19uVrsE8/ofXXMMI6oj04pe8JJ317GdjQn8a5ZN7yQqnvP4gWXKoCt5kVlk18n35dpjrSHotlzro60NCasiioJCLzfT0PV7h7rvvTLf96lfpJz+6Lt3485+lrVu2wo+s/CdXXkCkV8FpKLSXPOIlf3y27MvvgfvuSQ/ef2/6AhZqz37Os9Pzn/+8dMYZZ6UJU6cFX8XBDpbphJ3Jg3ZuqtqR7304JBjXj6ZVGnQzipaHKg+NZHR/1YuyvO0Xv0q3Qtv3rv739OCDy9I2Rrz9TjMBU95LizB8jny9oeEIvxPB3Ylhj4rAoKLxXl2uGfn+PTvDGm6A3qllFwYMCg7xB/YA9co83IjbTSeyGQ0xEQUdfAJezPSDr/mKtx0U8b7qq19J73/f+9OB3Xs5v4yDC6OemsDlDNo8sxbKzV7afn0bZbi3Nt2Kb79tbKydMW1GNNK6JaelUbv+KrWtuSd179mcdh9Yl2o614RvPBWU+z61rDNvZZUd9JA+gQtZ2TR44ayVhdGr2OVWQVeslGMqjzjxDRnIrH9s+u1kgqln6ilpwvRFsJIRtoc5MqxyI70wHCuGTiATyOaesrcshP84w69XTtZdCSJDCTYzkQkG8CBCpecdX5yiM8JhQqQBpu3JKafQslYEoGtJYvJMFpWS955ea/0wgd8tdIVYeGNgOgkxxJC3PdU0j8P9yP7AF75E5SydNnEX+ZxndaVQ+jXkx6+bxLUuXJQmLjwhHXjwP1O7nCEbL8Iwv+gtibeFa0Hz3k8OtfeuuC+1bt0UloQxGgKB7DGDQqJhSLOA/GYq6Yt4PAVivHYRNpes1560aeV97E3Yn8Zj6NFDHsjeHJurdMRccE4do89+DlvUe0bblCM5pn4WOLPGANI2QJu706Wms/HGwYIoJ9Gy5zzAyMCNu07p5N5+aeBgGjjnvNsxA1+5anV673vfl/5t9hx60ouowEwn0lizUJAacxNZ8uQvLHtYsCGXMPK+vHu060gcynfTDuXLy+AxoOsRBh0IsV/98lfRW/3WN7+Ztm3ZzLw/+0WwinKjo0Kn1b1T1KVY3Cb9Y+Fi3rH+CW+crm1sQVlTlq1tbWFxuGbNmnTeBz6U/u3frkhv+Ns3pZe9/JVpwfy5cQKwMD28svAj2CIBssdQrvnpsH8LvQFToU1vnEsE15ScWn2A40auu+669EWswO65804EFHTihmc8Bzo6XdTGAnyXc96ER+NpeedVBWjpxYiWOmJog2anpDRy+fKXrkzf+Po30ote/BKsLf86nfHMZxK3PqbWTJOVlHy1K2B+AWLomp8e/jfHo75SLnHibHVisjQvf+DB9E3K8nOXX5ZWr1+f2lDOo0exFjhWb+AYNzPyLQYgPpvGcvMadRGcNm/flebOncs6Gt69I04l3IjhtJ4exj0KQ9pNFwrW9CCW4eUr3I+8Jk2eksaOYzqfIJWlM6xicyTVxrTqNdf8gPZybtoC/GkTJ8Q0dz8NetC1G/4JvJ/2Z9x+RiUHXfdkyWH2vLmpzV2wwBqg7jVPnpbmvvgvmO7vSGnz2nRgwwPp4JblLGewLr3tgdSxbyXKlREVdaJFJWXDo9g8kFWRGaMmrjHo4ZuzOsFv5JmzQ8oxa4bOX2M05TsiuMZFf44jrpammllHMzOEGTmSMeSiAqWSdco5HQLY/sXZDndkAMzHEw6vnMQc+GbgJf+pCOJdfK6ufs5vBGmlPkwwIQyEFmBQSEFlvArhqZCJ/PjroptCmJpBXH+k8Q8AZLgVLDGV1sDibV396JhS82vEi+/E9Mq73CRhPIUR1t7kP8Bx4AL0yPmaMZPS2EUnpg0rb6F3vCs1V9xR0WWhnq8qOgteHIXbTAXYvf6ONLhnA5mdEHuLavWzZMNAmIXytfQDiKmqtMKFLv8JRxq9ky9p3w4sCVfFFKP7FKgbgosMAx+jK5h453Pckq6vdlSaNOd4lNN0SgEFSVHUYC9qv9Een8E8R48azZEYs3jSxJo9RFR+oeQGmOMZV/6qrErDt/FPY6PszTfdEocRXnjhRWnuvPmVIBNaoSbTFArYssuFJsjfOoiToVzzfcbNd3ZWHA1pvODo7AF8lH35K19LV111VUz7NNPotabylFEF3iCdERW2vv76SKtgFz8FURFGhQ+Rpzygdx0Oby1P2ON0jAKoBSnQiyCb2drC+tW29L73nYdnjJ+wrvb2dPrpz4hOAN3kaOUj8bfczLMq8aDv0D8jccj8I/4QL8WjL5SjCmPPnn3pB9dcl6644op0/U9+Ar59aTTmq1pqqpyo6SFMu/Gm7UjZoAIpyt2efIE9Es84w4c8S0/fb/LYzs0cpjZ37dqRvnzV19PPb74pvfUtb0mv/vM/R/BPy2UlrtR5aaRiVNXfzC3PTIt4BB+MW75wE9shwM/yctr4+p9enz7GZu7rfvxDzJob02zKk0z4T91FcUqLnSTX2MpeO+FazrZ86VSTi8001s7GjGFraaS3/eTy374NoximuluZeo6RKTBLEFbptGV8a8K4YT4GIxMwhjDEugukNdDOXLdsY1bg+3hI+fu/+7u0CWU6l3UuR35xlDxx4Dh1kisNWywbuNfQZPvOvelZzz0Tei9IixiV9zGCrEXGDaIpBnHiOjh+Csf+zEujFp+cRnXuSGnX+tSz5v7UvXl56tq4AucEnPZ7YFOqxVy9ltUBWEgdQE5xjaoIWXawNUSEtfl0BvK3883Rv8hLVs3pr1NlYpTFFqc0GjdIE099VhpswQFsamX6Tl+hxIlytXyhAX5GUUNbiDrlmIX6OMPhlZNAS4059L7KcOTn6tVvebHCDFMwfJczjEW3XJdDuMQtFU7iNXPUYT5ihRrGgjwCVn44R+RMR/QMKgYWwV7xj0pr2qivlBijBixlakdNTPWzl+BAcXHq33ZTFI4AzVMULbzAzxfCpQCFo8+/+r3rU/caDDKOOYteh97Oo+0QjQakQLMhCMc/NpqhW+8oTBSAlT4AUmMOMhKr40TKMQzVrUAGogRN0uAipcrZ5TodL5qPla22fV5qYO0rNY8FX96jwVzkto0G7f4huKB97LHHRU/YdZ9mBJxC3l8R0KVBKoz0l+dZS1kIdLMRd0q6ml3tWnFdhEnseKz4SuMNGsjDnGRTHi1y8zhDFgZZwRUBKvT8Xr5BLtMrnZ0d6bu4gLnwwgvSDT+/Oay4ptKzdfNuOJRFQLkzXxiubdWhtB19C0fhK/7FikseBD0Vzpaedc7RZZQexPndn0dzC9N1KEXsdUwfPrT8AaZx3pf+5JWvDNyGSLfsraQyhpBrQr4f+bfQ6dWQn/NV3LRS09CkjQPL7mea7bLLLktf+uKXY5PzRKbcFOr+nFbW+tH4CvFBpo7icE3wEPcyQiiKKmiWoYRD+e43hb9pQniDhzS3gsNWjGTOfc970524qnJUvejIIzGzZiqO0apwTBsMlG7qq/z0vWEkrSXPentkfO/r6Utf+fKX03nvfz/rZ+sZpYxhjxySluCJt310rCwzYZRRk98ezrfcBno63a/XyLTaBOiQFxFziM4t27YwKOlIE1vy0RfyuShlYxqG4cJTGp8jsGJGTmHS7sWJU5vB/4Ybb0jvOufstGrlijSDeN0oT6qcZAmItulDrkdt1N8DbFDfw5rYk089MX2SEwKOPmoJo1xGrtTVfnrTqGrkFHxBtvWSdy1HqNeNwdUDx2Y0zjiGNWg2uO/dkbo3rGINfHXq3fBg6tq1Lh3Ydhejqr2pGXlFbEVlCD9ZzEBX8Reyzam9Wran4IIvj5aItom+e/eEI9NRz38VZzs9BZnLGXgsW4SlngoJ/N1m4BXpQX2LlpLlXSYPKI8v/Hrl9PjgPmGpbOzWoax2hlu1Q1QruwyBtdznnm0UvIyqfo6aKMuoiDHi4VnhYBtxfjVKhRIaxPrPM17qEextM47mgK+bmAIirvELDGGS0ErNf+sVvTTgUMijeL/3oTtS8/aNqW42vQsVAhE15lCg0TcTxZyxAEDUS+AONGFFxfcGX4J7V96TGg4sj8VOLN1jaG70gEF+LnTa+5E2p+7c+NtphAmzUpq6gEPEWoMzMdVlOvMQeWlAULg4PHfOPKZExqW9eIoQFwWIrklCkJDGoLBQEJVFcxtrK92wLnqA06ZMSt/4xjcwox2bzn33e/HMPDUas4JOWiQlWmJFr4+PJwwLBGAG3zJs8fSb+W1YvzZdjoD+F47Y2IPbl5lYQqloo1Mg0xTQjDTCCIBeaDdrZ3nxOveahasw8moI/M0rP8TVhXLGS5ShTMy4mLdGEAaVuIYTc6ZPS9s2b0r/wDlUu/EC8DeMKDyvSthCj5kCAActlkvmVMAof+JblUd5l8snjyRcizHfa6/9j/SRj3wk3cI6jNOVs7Cmg3AwpYypnHEkCjhKmzTZUfLcokJreS9s8/TZUHhe8PC9tKoAVFAlnaNuFclMRjK79x1IX2M90hHMe1BUS5YeG/Uhw8x8zbRk3o3Mo9Q532Vc5PRg+spXvpzOfvvZbFrdw4gHIQz++ZgJRr50NErnwnSOIMXPIN6GkodTi+4zasK4oJ3RjmUV9SOiodjooOms2PIzjbSOpL3AE6b3+V8Kqz+PmDGNuNg+mhjZ3XzTzektb34LPiYfSHM4/j1G3tCjsm1k2tl6pVzpo7OgoYlOlDVQesYZp6ePXXRRKCaNlYznjEev84UseIcDaXrdMcohv3CCzWinrp7jLOrHMoM0OzVNXsLEG0KjaydzlWtTx7oHcAq7PNVsxRR84/I0uH1lGtjThVd1OnV0fjUfj9PGeXb92llfDJhTB/IlLXxOmv/8V6Z0/FM53n0cCrU5aqtNwJGS+JEK5amMkzeWmnKGCCGsgsER67f98/+AcsokSXIJmiTHjn0qkA0Rkz2kNBvs+g6EoqBMYwirALcC5BK2omZFor2BfPO7C5J5UVJGU1KjpqWmaUexq7qdirMv4JFd9C4q2R7wAq58t5Aoi5ja27Ii9WBh1zj7GAZVNGYKyOrloqj/dCVf0JEWk+eRCiCJ6zoIf1PNnq2pb+uK6OlwInMuY/G1zKlIka1o+wzAASaRe/jeQ9zJi09kB/cEjDGYE6Z35XoK9SVyK9OnpdHNX7AgnXrKk9N3v/3N1IezLddqVEQGG2cRGCMbZghj8HRKy577KAi/9NJ/AZHa9F5GChMm6MmZCUUrpz+DjC/3+c1v9TcaPsSKj41fYadicerHHvBdd96e/unDH0pXf+tbFGV9mjqR86jgtKolOA7/w8LLd+AhjLzQLmqWyPC18MZ3I+mPaTx4nAUt8Y1ACEEKPsLxXkFiGU5FcW9m79QHzv8ArKlNf/2GNzDC8qwqN1VXhQgQ8TPFoWEkXuIrXuatJZoC9uDBjnT5Zz7NqPVC/LNtTZMnjuM9XlY0MxWmdY5yr2fKyvQKY8tFGJbhyFD4G2Vmamgp+fuu8CTT56gt15GMU8ZdpTCufRTrevXpW9/8NpZoHZhMX5COOOLIiB9WgAGbvG0HFQPNR7hehee9+Cqwv/H1b6b3MQrTa8MMppJlep9TssKRj5S18Q2mL3iV5/hQfZNuzyZrax+TNImPONQfp3Qts1279qSdTFFKWaFZmoqSKrSbj7DEUU7PnDkjRsbWxV4UTzPTvPfec0/s37v7rjsZMTGjEEMTpkOZCnMthwz8j9PrbizuOPsMGrYzLXva05+SPozXiKVLj0dBIM+wsG12Ko883e5RagkcC3lhzXH1oB8ZJjs9Tl25WMPZQNbBQawjaudPT21zTk5t3WwCPbA79axZmQ6uvo+R1YNpYPdqjECQNTjT7u7bQRoUZSMODtroBMzmlIHZJ6YxT342ruWOx+q3lU6wdRBP5NYtBQ9XC0XZrORylkatab2zXg9jTLTHEf6vV04KGImE1ZlYeGLlcEQQ+4c0ZujtgNFbuO7NZt+0fUc08k/2KZsdLdFOQ9CHaTjfODaIEx458wSPEx4saCXwAMK6D8bfAABAAElEQVTWmUeklulL0/6NNyJ8SU+NdSjsCMmeihULdIifr7YPDQ7rutnRjYJKvTvpjUzmu8Um5uIPfBKaR1R+cZImlSOjHo+GDrys8ptWpL5tyxPbraL8nbqzoFx7sz5Iu1OW6lbxUGHtpe4NjD8mtRyFchqFNRAWNfYyTaig0nLQ+W3xodbHdMjMmTMxC35e+o/vfIdnF74BB34Ksix4stA1G4Pf5L17SYzjc3s704eAvOJf/zWm/d7x9rdjWstmZBq2tNnwZdN/JYhL4Zv0e+/6j5svb7nlxvR23B7d9Itb09RJ4xHQ7DdBcIR5uw2auDLJvwoahYq/Qt9IvCCNkJWgyULRkLdxDVpT8hCC0Wdh+s1Gm6f7SGuPx6kNhMTcWdPTug2b0/nnnx/+CP/kVX8WAlRs7Bw57UZEQT0iBOzy1jyJp2JqZkpr+9Yt6VMXfSJ96tOfodz6cKaL4CaOFm0ixW38xMFny0qaS5l5X0K0pUx45OH74C/5GS9PBWbBXwS130s86Q/BDW872ZPjdPH4Md3pumuuTR8a98HAcRxrMrk+UB6hmDI95i0s83E0Vu49tuXeu+8JP4ubNm9k5DEj8uthfbikMW7wnnzNv+BUyqp8j4T8EfeDB7uYgpuFcpoRaYVlkJzYv0desY4S7zKN+XvOS5j5hxxweEHwUEyNQDo69scU6zK88b/xda/DLdiv0ix8UCrwxa8eWYDajU6da5R2oprwSO6a51os8s545mmcIfWZtOToJayFdsW0cxSeFR4oUa6gpAxh/M872qkI8I6WyHslDHz1hRKPSy2nO2gxx3kbOArAsILjgRonLEiNxz0Vk8VdEL0GQ4p1qc+pwL2MspiOGk3bbZoAfzjAkCNwsQhup+PLSA+tWm8etLsALk7krGyJWSEy9ItGMFnaGeu/pp6CPmA+dpDWEkbeV+985U9U8519j18fIk0FLy7WEH8Ehbl38Yp7n8qaTQydLTD4r2lvjEO79rBfdRUOYvfE4p9D3gBFtGioGWgoKNPp+YEpeDavwt4WZmHr26LR1DLEHqjjLJTZi9O4+UvT1k034uaokZ4ue4XgvHLHauEIOzoJIBmWL5YKCqKuY1fqXMV03O6NqQZPAtLh0R+BDwUcqoq0LsyLV/bYoKCqaGc+nE0QOK64lU3B9yNMGFrDTg0zrGPKGvNWiQ1N14GQyusA11FzMB+fvgDcwJl0modHdTVN8FN+8U68eeGo7fSnnR57lm5lWkhh3MziuT1Qf0UYlV5jsBHcXa9pZOpCTwpabrnutI+NnApLp3Tede657ONwis+1ADCIwjB1DgqQEB5g538Lm//5VuS8G5HGN8aQGt/3UngK6Z//7Kd4Rj873XrrbWnm1ImYSmN9hwB3jj7oo8BszJnevNfJvIvyFaoCquCjSbFTRo4KC+3GcfRpT10+lCDaBq/WzZju49pgh4AMu9k7h2OANBmFuX3HnnTeeedx9PaUdOazzgQOUYiTBZ0QMoUFjwLXq4GcLSzwruPwxe2sv5yXPnv5Z9PY0W0sxo8JSy+FnWUthsFBwGrl6vSyNFqewi9KKudF5Mg+r9dIsz+DuBUlFmVV8UTgBWapFypFDSfkq+XfTn2opSyu+vrX07x585jyfTejRp3eSHPGstDqtShNOz0qqf34trvk0k+zQXgNI48pgYdTeA32DsEr8AOWkGpozAVWwVt8y32+oZw9A4KgopyK2Xvw3hfUETefawyxBaXfTL0u8Lz6K3RaEjIs9mMiqJsYtrQw92/7bWXm4SE2Ob/tbX+fbmQv2SxGenaSgp3UCUWE9UonzlaRWkb8Hsu+buOW9Eym8i688MK0FCfJ1m1lXJBg2Ym2jZ7/TsnyN2YFvIJJxojIFqP8ADn+8o9rP3LAoLxJHLqqIZDr0LHhfQzWimPHp9YjjiMG35lNIhHpETbUpb4GDH3ISZ+LeqtpMZ1gwAnIGF7R0QNuA/TUOlpiF+8AQkkZlXERt4yjODyeACaHCSATUs0MRUzecC8NQS/XEJJiY1zR+g32OUVc4ZlMYr2x4PiZhSe6xleAh7WNggHmZIM3WZPHUXKilknSbuZSN66+P00hmcPcg+pHAFmWQhKmKJpPgOaFHiI0KqhjMZcWwVdFAL1qUtSOnZhGcZrk/rsnpa5eNglTcsJlW4Mu94J2R2LWGRc47UwM4ty0Ph1IHexBaN+6JtVOOUGQVPxMX5x/AgLBR5ESOYA4F40O8UVGtutg6sDiZhDHGXU4JK7FuWI/mzPCxJ68xd9Ck+/yQxwOkH9ty+w06QhGTZrT88zsdPDRCiMT5EE2LjFfXpCfymXOgvnpdfT07rzjDkyT85RKaZBes7AKBEmTg+80LFDgNTBVZUMfRQ9ygDnzyy+/PATMOeecg5HEpBAsoQBMCrwShD0UuC1PNrjM4OqNFc3bqHyUDfd1jI5uuvnG9LrXv559Lg+lhXNmhpLsp2HXw1etmxTk2S+ctHIPHPMUF38G8XfKSIe2XfDy0YJ2bi2tTWk0HiEUogaFlQrLadssCLlaV8O2n1EGQsApT9WF+6Lc17J8xcr00Y9+NB1/4on0tt3mnYNsKLwoOPolCwGnLxVr5AU97s953/vey9ra5YxORmcvDZBnPlqAxUgvOiQBINqTgrOMgIQr7SoQTab3Y7DwaEF2N/GnnTyaqH/1TDFIux2Rwr8isL36vZdRjdPCTjEIXwvJcVjE/fPHPp5OPfWU9Ad/8IcxWpAW/1um5jPSjL/w97rrrk1f/8bXwxJS/HI9zGWWU+U+ubR5iqzpHL3IS3kojrlccj4KTEfxOjCditKYP39+lH2OZ8EPxnqTJ0J77Lr5yTO/G0r5FMRVsPJv+jSseznHydHC2jWr09twbnwNG52nsgYlbU0s6HTRnm0voTB4q+TS40gninjj9h3p6aedhjPkS9PRRx/NhueDrEcx8oenEIB4QxqJgu0V5Z9hyDxlCnXOTIDpv6y//EY9jJi8NR2gQpnacBBe1qY6lBa1NI/AfI/MHqR+FUVvR8i2VMv0TAvtqY4fO1tMGHXNduWj8jo2APPs+lPIF2Ra7nQDl3cg87jD4ZWTgKXXfMyCPzLE19GofFV98zki/Ab7nGSkQJSbsYAmE1U0Kir+xfSXV15nouELD7oO8RhyzWOj0Tql170vHVy5LHVg7890NxUKULy20yBOFq5lbRkYrKhlZOUCXx2HeA3SWwpfUSRQ+A9QQWpnHpkaJx6d9q+4PtavapjeCwkvzsIEnqMp6ZAHtbgtauR6YNf9qQeXOA30yDzOPgROUJUrUOan9FLVAhYUixRpB6wB29elXnaA45U+Rno90Bgm7cqRHI2bKoCHSlInF3VjOLARnBNzxgILRa5gaq6G3cE/MhGBXFjQQaVDOb7ghS8MzwGXcrTFxLqxMT3n9Fge+TgFJrqO+7JQcCHeDaANTEsVwWevdzyWW7uZO7/kM5egDlJ6+zvflcZhOWacaKASTLCxF75Ityj5Jd9W+MmfKq4FKM9DYNBANBV/O9OHKqaZM6bGNKMwLTs9QkhTDyOgsKJD4Q64gAy8OLgNmPtYuO9AuDhynIKwWnzU0bghmoMDznExjWVBu4bgus6GDRvTWlz9bGDKRyOK0Sy660XaNRGVm2sWNkrLQQLEMb4Bu9tRGALbOOPGtIcH+C996cvpb//2b4J+UsQ1eAH+QYO0yh8/8lehKr97yeCCCz6RPve5z6dRjJicPnPq0jztzAV/Q0iQCvqdQrDOu74lLHniURBdrIuMH9ee5s1fEDTrN08rTM3w3QelQcB2TOI3b97KWtYGfpuCTn3Hub4nfeJrO1OI5rKkfFFQ8kyBap6OJvOBoTXp05/6dFqC26e5cxdEb9sRhDByY7UdINjAT8u+DRs2pKu+9tW0jzUgT1Y2T0dSZUSTuUJS0wPHNmEYoJ3s399BmTG/LcF8GopCnEZGcubj2pej/jKS1Kej8fbs3R3nlI1ji0XgBohDr9JqiCvKwmnlIxYsYJp1U3onLrmuufYHacZkjku3E0OZ6E4pO0imHliO4CGPu2grO7bvTKeefEq66OKLQzH1MdLWi0sP35oaMRd3NBoKl7oLjuYsWZLrKD32f/IidAsf/R7SE2LCHZNEhcBQWVGuqBXUbcDQmbZeY+y4NiJ76sEV6RuKy3aixR1iI8s3nsXbY+yj3ITh6IprrGsqu+2UAVPo4XoN3kQNFqn/QviNlVPhjuUj3SGcpb96ju/BjPzucDiplFQYcmMA9zp9ctgG7gsEej/EK/ddB6KIqsqAxmGR0DOMXPirN34fBvj33JD2//QbaWbdnlhTom3FYXcqKJUQl6yMyMIpODdiqz/VA/3jl6QxU+aQAz0FKkLdAI1UmvQTP+eE1Dvn1NRz9/UJF2OpE2lrIekgkXJOPfyagOfmWBVXw8FdMU3oOlgnwrPx+I2pr52TYVnssUIOuK6EgJdvtZUk8zj2BpFiBOMQuW7gABuAf5ya998bVjTIgVB4IZjJX74ZpCs8DfOuEVNPTT/rJsxNaRpu9enphv8tC8RhHfhEDwekS2PjLY0lT2e5FtCOUH7Dm96UfvLzn6cHlt2XptHoLOcYdSFgbdAKcltCjGppaMKyyVgJFZI5zkBMNe1hp/2ln/400WvTW89+RziK7aZgLObYaEzeJb1o2mKsU1G3oM0HSI8OSFRzGqr621GRx3x88APnp1/ecjM91PHgw4cqLUmY4oLPCGYXkOPoDXjg7Lx5a9q8C6svDQee9rRnplOefEpaRI/12GOXhO+4ZoT0yCBdCufbGVXeg8eFG264IY7R3tdxME3GCayjI/dKqRhsySGoaaia9ssvLSKl0xFHOxtF12/cmP7tin9Nz3nus9OiI44gDrgTFPhl1FDeCatH324oDTs/V33jq+nCiy5AkTTEOkdRTMJXKMVUED0S8dEy0DqnQYwltB3v7x1Mdy7FOOHEk05KS08+MS066qh03JOOiymukTR738V85JrVa9LtGJro8umH11yX7sbtkw6Cx+NjMI5wYZqsBppDMVNYFpsN0OIMPoCXTnzH8eHGn/0sfe/b306vf9Nb6KE7zuMfPApRadlxHwKftBs3rccC8do0CkOBFnplffBAX4slWG9VZHJO2pvh/UFo24UZ9rgJY3FNNH9IUYuVVqx6oBlkc9d+pp4X4w/RKVpqd7TFGJmAj5ZyXRxgVD92uJ0I3+DVX5Qztcky6uVU7idhuFDPSPHjjIi/jfHGpAkYpdBDVvEZPLXZuZjaRvZgsX+p1ZOmsVza5IiJwzgvvuSSdCxloGujOreyyBfkkOWd7b2FktupbcPvwWeu1vmQmRGZ2/yCG9sW34VBeRgkQ65TXeN1vPB7QCO+soUn8wjA8BjJAkQSAguUqtkd6pORid3Ce0dQRo2pc/Kq95tAVFiEUqbx8Dj+HF45BQOAmvMit5yvgkOCfV0EZo5DBF+W+Nw+WpAHMQUc8UZl2316mDYyEw8wxxkLeWSiQIqpCQWMBpJwmOLDzxzzXnf/PG36wRWpZcf1zPlS3ahzVrtcJECq8M0lAq6ih2GfDO0gYpMLo1NY9GN+z151n8wmvY1lsG5MrDsNTD2Kxc5lAdQOqQUs7WKqkvDZTC0PO0weeti5dXVqX78yNR7L3DabB+yJ1GnBYP4UoJXHyqRZqEhKdwhtTvw9sAGTT4bUNhplnkElFWWeH4O9tLkYKdgM+lrHpcnHsPEWt/phLm5GFIxKyYSxnyKQtpFVQExHI7Kxq6AWH7U4fehDH8T89c1p9+5doWS0aDPYMAVlxgNR4SUkJkCHKmDEIZ7CcRLTGnuAcdEnL8bFS20699x3pnFMfzi60mXSIyptRjPykiVwKgfue8mnAUYEv+hZfOGKK9LXr/pmHuW4iE7DLryJeXZSUmMCRi+K1ekeTxzdvGlzCIBnnHFGeg5TTC943gvSosWMNDOJoSACPwsROjLNNWnmrFlp1uzZ6cUvehG9+nVhOn/llVemX/7qNqwC2S8DbHlY1qRidAFfs+sWyxYiwF9vAePZX6PD2S9+6YvpQ//fB0NpqZQ0OlDgxcjQykkoPBL/W++6lbL5MPXwYOwvG0ABq4wskFiH0NMAdYycyCoLszCVJ8/tjECOPGJhevazns3hkC/FH+DTqKSYgrt+Q9BSzOld8wsDCt5pDbgY5XXEUUemV/3pn6Y7Xv6KdOUXv5i+iTcIR5DTMZWXP9KtO6tmRyU0Dl36xNow36SlmHb3uFcJk/AXvezladacudW6Cq1YBR6FR4lb7oy63LPllHFrNdIp5eC1KG6rd2YrB1XCE/cmnXnWWemV7CmzTMM/I1Gi/nNVRsHl2Bg7jjKIhuhfaRAYlc5DNA2ODgrvfR55n2umfEIpMvpyfeyzn/1s+sIXvsD0XnuM1KXbNOLqaKkH/3xuytV83PfrcbV0/JJj0ic/eVFacuzS6NjZkaknjm0+bxrmSt6Wp3eyyHvbwNAXI/gG3HPcLFOy0KsSGMUQcVUs1UP1DCHxzdcB+WHfR8atInghrTlVX6vsInWFb44UOAP/4fyLZL/xn8MrJ3HI+eYr9z5GsxDJkd9+4yxzRK2/YySDwnGfDq0E4IoVKqEZxJ2MR3TzqUmhaIYuxuCJofvWn6adP7s69a79cRrtFBhphOdVJSWS8j4KnKt7mpzqClccXPfybvqkqWHZpidx17Ts/eY+mT3RhtQ8e1GqnXUUXsGXpamOuIgytLuevCworfSEGRZ1oNjIyGrfzjWpn81v9dqsQ5+1K4RJNEaRysUrtUpR53qBzMGHm3FHsia1CptX5ict/pRZ/gCR5SnXZn77iXtw7JxUs3AJRNIzi94L6eUg6ePoESsT//MlNy4Fi8FGpIC0UTm959z5PzJlRicTBaClDsYg/LMRWzbFKkhwkQcIhXCG2V5tsO4ZacVjRzd+Dj/32ctDgbvnx1M93Qzq2ogNPFck6c/QMjye/Q5eTt02K7hj9FaP54Vrw+tDLT1Sp9a6WINx6k5MFHQyKOpPKXy7fFSIjSim+fPnpT9+xZ+mV//Za9IRRx4Z+Us7uk8uRF1RScQTuJVpSEcoTn+K4fQZM9Pfv+0f0plnnpk+/OEPp6u/fXWaiEFC5iU9eoZ39uo9INMNjfLNuusWAi20Wpgq3da5Pf30pz+NxfcpbBAWB+mXH6VMfHa0pdWaU2wXX3RxWn7fQ2nuvJnwNnsP1+jDyhAe86PDkzfUNrIGaKeji9GE/Hzxi1+Y3vymN6enn3FGTL3FOgbwLe+SpwrN5zJ6KwLWCuhem+NPOJHR5dIYdTi1uGXLpnDgq3m+5W2zzNNMWRhJk7x0Ok5hPw4fhvfdtyz98he3hHKqQ2hHdQy6racaRdTFnrBbbr4l49JqnZSCUj+IB4+ELZ9M38nalmX++je8AY8c56QpM2cayQSRzhKwbuRreUdLowMl7sKzU9iJb82tTN/aIkoZVACGysbnGJHEFas2jD5uuumm8BIh31TE4maw/Pw5RdbSMoqyOEg9bk5r1m9iKu/4dNEFn0zHsfZoB6KR0WWNHT3TZHLNIbDOwDJJkpI/l0iFNt/n+3Id/hIQstjMtwE7+FHYwrXEF4fgX5VFeT+UNJAYiVuOn6OPADSc4L90lyXU4UCIocErP/F/1FDeV/EeNc4hLyWqDlcZLc6zeV4RRz4w68p8J+ss/NjSyHd62x30ajY9yEjpujT4k/+V9n7tg2nTVWenupU/TjNcW0Y5Ob1GPVXOhEJSVimcLVGNCfxZ+PaiaN+pYfKC1MJpuqmOIy9QfApxrU5ME5WL0ROG/qll4dLUzcm7wlV05epHMvKLykQ0+6BuZHNjsN4iGrqWpW42vaU926LRaqFDbP5ZfXIDJiqJEGbVCIR5gtTJ/oO6vWtSk7qKjKzr8tsRVKk3PFY4QguKsBPF1rwQjxCelAmG9gVzOZk4cuGdVwWgqYXFdCkCrAhgG5UN1d+rX/0a3K28OR3glNqDHfQg5AP88TTQaEBBgQ1bAZHhmc6gQBVugTcOwa3588Wf/GRYI+1lXj+PEjIPTC8uOT335JHpVGjggR4h1qvHeK5r167mqPePpuWsM01g02+vDZveqPmZ/VDDAg+FgkfER7pNO9JRrHd86pJL0/kf+EBauAhfgIzgjCM7Cu5FKImPQRq8z/tgVHosb2JooUXfscc9KX2aact3nP0PaeO2nWFQIeKe+dTL9+joiJOIAS6m+Piu0B8zZnTavGF9uv6nP4l8/ON7g+WR6cnK0fuvMkq76sqroqOgMtZPn3wpNDtStnwtJg0TzNO1JfcC/v3b3pYu+/zn0jPOOpM2wSiHKbJOBLOjOOOFkJdGvuUpq4yzdMsF8YreP+Uqv/7yjW9Mn2Fv1Wi2D+zYsZNpzTz6iZFXUJD/RHpgyMMmFKyw9Vr+3e99j3Q7QmEN8z3z2udO1/jWrachud/GNSx4OaJuiqfxhG957N69Jx119DGMzN+DYprNtG3eWC2/LSd/ps9WmP0xcg940sfP4EhlG05xt9OBsdkJ/7F+JY3fxUXTed+5/ufsg++HgnH41sXIzo7p6nWb0jGLF6eLcPd18tOeFvzQMEJ87ByYVJQsS2GWnxUo7r0+7F98qd6Ue2FI13D6eB4BL8PK8QKe8ct3U5b7ke+H3j38e+Q09K3CrnomZoXLEEd+6xvL4789RBkiQ5kaZ9SxGaODX8kf1mzaEPR5CkfBbX+dqpv6d+9MA9vXp94dq1L3lp+nJuaGp1KYLe0IZ/Salncur9hLVQ/E+hwplc0S6FVlRR2IAZoD+Nb5p6YWvEEM0KDDqiXyorGB3ABDrAE0TR02/s1HHJsafrkQZbM1NtrqRFF4DeTbg9LgNiqWoz2yDysnj7LYvfLO1LZ5fapZNDvWzWoZBVCfrXoAkDJTQqMvJb4bE/KVd6Ua3CA5xW4epcIahTqcg9cqCcY9qZsj5icfw/EV+NvSy4USN9buUFXeOaEcfDSNaSP7XHEUftFbJi8rpXtmPFDvnHPeGUYDn7/ss1iajaMH7xog8IDl6EDkYnEUBEtllm/CCv6BbCNz791M50xkPWs36zyXX3ZpGFC8FT9jbtTNjdK1rNwTVvgFusL0Bt5YXoP4qNIM+CqOqriRNZ9x9FibEIpORykgSpoQXLyTn+K2F6OHvQc60h+99IXp3e9+D73/k0Lwh8kz6zi6XFHQIzcAwVVWkbc/aSp0FAXus1N24utvImbhb2UUtYK1mauxLHPzpRZcCtUQMLIakmJEwRtNzHtJ10q8zZs3p5tvvjm98IUvjtGRsMVfZSAPvQrnVo7o0OOFongs1oJO6zn15XpSwZMXQbNrP75XaTgNefbb35Fe8Wd/Ro9+FGuljKqkC9juU4kys7PBuxIKzT4HL/nmBl5LwnUQRxsDnBR9+lnPTu961zsxDz83RkYxYpDQKgjTnzySFi33NK7xGPJbbrw5bd64KQwdpDGP2IZ5fmDf/tTJkL3B0VhVBoIttAbeFhTBjpDHVZx66lNYM50Qddd1G0NMjYFTTOuBS+y9sSxUAn5nRKiCBjCdD7wz4Ll+L2tOpi48KdcML+dZ3hXc7GhJY2lHKqjSBkAieOcMwMZNu9Jpp56UPo7l4klsenf2IGCAg+dmZfrMKc9PePc/Icvu/3Y+WL/0i+cyTDOFt/vub6Y9d34TudrO6IUe/QDnnICV03B0Ei2zWJRr4eU43lHXA3ONFEieWungCzNGS8Yn2CsmGYIq6qA2B4mT3dNeFMcBnBfOP/r0lCYuwrDAXiibSjGCCLFoQqb3NP1WaDXPX5KaZy1O+9ey56lSTDESI19NwN3car/XqwH57URe2rPxHpQqR6BzXlVNLRZ0SkFiKrhiCpCrhhGOQGpdQMKBYx/TgXWM6tgzp24eCtJIO8rKDTDSqjzQNqO/ZQr4LaLh4fQWwObtVOgAo1F71Y5GIm/ic0euwso9c4VQaWh2Cuzd6p9u/ITJsS9Hy6nv/cf38T4wPo1GqHYzXRd5S4WARgThGLz6s8GGEKU8p02akLbhkfmf/+mfMU9uT3/31r+T+sBjZIPPQOWT8JlipeerkF61fFn6/ne+l3pYhNb7QwgWYuWefdW4oUV6FIoqrh1YDZ5xxjPSxz9xYZo3bwH4cBgja1YljgvZkqAICczBWaV2aMhxKBOEkLjWk4fBvFVQ73znObGOtGLFCqaXMahB2KnkQ8BbhyhafcC5KVoLM+nZhRC7Dy8CB1CeWsoJV7y9ljJR+H6fc5TuX/ZAms0m23543wQOIu10Z+kcGN+gheBW9uo0Yuxx3vvPRzG9BjwY8dAoFNZ1rktBaYwoyafUBa+l7ALQo/xxGrZB82PSmfA1r31t+vHPrk/f+dbVjIQbY/+RSrzQYLyhOsD7rOD1wrCbke+DeEBYEorJrFRQ4mgaLe3cDKtRgaHUpXjgj3VKev05anEEd8rJJ4eVn3kbTGNHx6uzJCJcoc06W+af7XfQ0Rzw/OhBhXtQ6o10WiIFaTO3cl0OuuNL/lPw8r31IPIkfxWT9+Wd9bATR7vHHXN0Nql/+jOifbmmZ5mYvpRfhpzxHpHV7/Vtrtn/zSywzhSvtyqcyQj0+XT6FzTuSwubD6b5TNPNY2/sbA7UmgWG0/g2FqnbwtVlAV26d/Bz46kexq1SVkRHTVFFuSqT7Xl3Y2atXtANkEYQ23g/+pjnpObFT6MSt4aQt30jHkKQ576iQsiKDnCOYG9jU24fDlXdCxN2DQgcK7zK02fzEo/In3vqJ1Z9G1P/1lV08Tp4Vn1leIpCp9fs1QnDUVuNBwuue5B1qpVhpUfy/E1GlfsKbqThnRB7mtvSuAXH4vhxCooKhNXOwHORNDhBvvaoxS+/N7/hBue9DcSf97GOIWyU1BQ2Kl588afTH73kpbh12Y2rFXrO9rrV9iOC6QyHwoI7OS++aR47GceX9cS9+IILYxRkA1aguOBfaDKN5SDujvb0g6dS+dy/fp59WLenKRz7kL0ggO+IPG3geR2BvSzgvg1/ds8+68zoqeo/sJsF9twJyPSCWMZtxLXw4dGuhTbT+TOOeUrDUUcdk97AmofGFFpzGgpP4l7FRE9DRV1GPArB7ThKXblyRcQtozNhCtse+W233Za+hlf1NhSedSboFTY/LSMdjajAYqRGmv2MqkZzdMN7z39/evHL/ijKMHAFX9GqOBYVS/xG/h6LZtMX2qMqCosbPRu8iXWs6RiLeECfU58G4RTaR8JX+YhzFx2f+++5FzN+20TmY4xquDevLYwod2JibYUtsAo8nw0FrjDdMF6Oq8gMkjsBqvzJ8YN/KquMX56ezrD4m3Yx1bj3wP4wBBnCCxxK3iXPkTgU/LyW9+XecvTnqHEqXiI++tGPpVOf+rRYL3SztAJJaqS9pMkw8nMQ8T9/lGi/JuQ6Ye2OX1VHHpnokHiPjDD8xukl67PKw+qkQYFDapGxITkKcUFZDw4eqBfm334ksoI2DCZ85mfc3urqvLvfRcXeUT8jKh0bMruUuqkQO1k/7Rj9pDTuhOemhAk54wdGKPagmUrhe94fQGQVhg3GIQ6jnvb5x6YaTqHEF2LApd7FRmqvKkYVhfmqqMQfsIkZEPZf3c0QajOwEOqAMj+qH71e4KPJtI5ygTpxJHzHOs5u2rMCE2jiERdwQ7SICsnivd/4H770DrRMS+MXoZzamNKDYWHxR+S8xmUDQDDSAFRQQgxFNaIAS6MqDdLeuHs39GIdDkznzkufuvhT6awzzsJP3PYQmk7XlXQADVyE7rtoxORToRvXRvzB9LIRy9HEZEZQejh42z+cnX5Gz1vBquKwIccaUCglsZYGFBSdg5UrVqbrf/TjEMSj29iDAoOjbKQIfM038OG+g960vW+9Tp9zzrvCbNpFZ6fvVIKBX4VnSVeufJScCAW+DyUP70fGDRqB5WGJZz3rWelkevAdCF/d2ngEg4UX/8QRQSqN5uH+FUc527ZtTStWPJRxB7bfgw7uVTo/+tGP0n333osxAWcVkY/MLN9VigYVlFNJPm/FKu8lL/2j9Dd/8zcxmomRBHXaMlUoe6W2WzWH6Cj0jKRXuIXm8j2Xr1+o38Dy31MwhV6KkYQ0OcIdisv3kr7AtVPjVJ0jlfvuu5fRA+sw1EvXxQK2ZUpHZddWZg/wHG4bKTAKXPMOHnL1nTSPx2nx5KkYNYFD8FtghOC798Gz8lmYvBP/6heGLrQNZwjcjN3I1GPJt1yNaxh5Lfcib14+G1+ee3VUlJ+JQD3owm2Soz5ihSLXOIYIUZd9F2hFJhnXyPB//vwa5VQVcNQgmQUXLWAFsGXmZ//EVQ575zXufX6MYDtFG+kJt4u43STTrq2be0+n1bDAaT+PgOghLu054UEozrk3b+E38a4N5eO+I24jTXzim0pCVLSWpSPNiMC9EDT+pilp0dNekkYdg4ddpilqWahqwEniINYM+k0bwF18jQeghOJwuo+K7DBt1hFp1PzFqZvhVNRVYLvPyJbuiM2fJuTyhtv4tfGtYx0egDethsloRaeprMRwL9yJqKCsxMbGt9X+9Q+mJuhRaQdvgaVOCb0CbJWf8CMPZBPWxKl+/KzUMG8xiVpRku6Sd18F34DKpBr3br5T8JOQfPJhg94Lx0aUf6Vx2eBtYO70zwvhvfSOZ2BM8Jn0ohe+IK3fvI2pKCyP0Ph5ughYgay05EbqwlaMQnnuZ2PkAPPrzXq5wLDBoDDZTk/1U5/6VBytrUVaFwrKMg1lXcHhAsw6Tpv9z7TsgQfxuN3GKLgz9qHFpuXcDTBZCOhaRiNaYHVhyPGXr/3LODZ9kKFMmWrR6WcWhdAszmRQ6I8rcMqzeJZ703gf+AVOUWK8HVYos2bPTS996UtlMXTSEYHnjo5VpPI2m30DwkQER06uT63hyHthK7xN672jKM3Nf/CDH0RnoA/B734/a4r/Ah6KTAVmkD69aZ/+5JPTX73ur+O4cPO1h64rppx/VlDCV0l5HfkTzuGe/SbytrOsIMAZuk4//fTwduFIyPePBkPY4tDAuqEGKpvxNdjDKNx3gg1zckaX3Rh7bGQfmNytpzeavz8czzJ1qIGDys3jKlzTtDzz5s/hehgzErwPpsd3YMHHwJFc4j/vnSXYiAf5AyiQGuREyTe+V3wq7wp90uR91CdAGUocr8UkX4vSDes2pHPf+57YK+eapd+dXnRfI80/6A1jHoHID9tqVU989fscYM9hgoyXUV6re3hKQ+GR53hVXTNDeTD+r2Gun0OIAsjRkR6PHO2iK2IU1UjjaqMljOanaXYDkf3ZuPFlGIpBhdDiyIjvYSYuHrxDtmaDCJ5t804DdnT1pwMD49KMpc9Ko095ThocOysWicP0V01o47eygNUg7pDC/JrXCrsBNOTgaPazoKB6G2dhPQbO5EHWVGyScu9I0LzDgk8WcM9eydS350G8RawmItNK8kyOkZf1L/7Ys+XLAMds7OdUS9PTxuMTbS+ujgZluBc6mvHjNhzQNs9aiD+WWUCg4UdLVy3Q4ABCExj6mboIZtMeGmxoRAh6czzgwEg3gPZgobboyEXpM/jNe85zzkpb8BOnglIoOqdeGuzIxhkNFyYojDzEUWWvEnLfkWs2U9gHdc0117LYf1msHbgvxVDwEBlHl9347f8VRgG7yc95+hCM8CxO9w36sjAKC0BGEK5pnHTSiek1r/nzNIZ9VZ4mih1mwK4Hl7z+Rj7Sylt/8tVQrvlp+G+UWXzPCiKXoxhmQaeSaEboPPnJT2ZD61QErzWDWFSMGiqpnkdcc3INrZZ7N0NqNt0FXzfSY4/KwruoixU/HV3ccccdWPa156lA0rv5PKaUgTvcQ8fwgx6/ft3+5JWvSiccfyI8Rjlab4mfFVqmRfoyJ4ZpfSyac4r8V3oNUBOKLY5xAAc7MGeeeSYufKbTHihjQqkDpU6UdyEzbOCk8wiRHk3ACcZT0TjduZ8R7/Lly2MKuAnYwiohw4WPxJMuf3Y4xzBy8rDH6NQAO9dd6yR3PKuw7K6F4nKUJkh+Vvfc/vLa6F5M3hUD8brK1zzLr9TnQ5/L+0OvGd/sM3A83uLvZ8304//0MUbLuEeCNtuNoXTwSnyzDuOs36RgAsLv9p9SXx+dSgvT4DXzM27lncrBqw19OPjGJfnDB9dqVDoqIepbbjXcOxVnUCCbnULcEUo39bqLn1Z51LdY6zFOtwqA9DFyoX2opASh8nDUZfoD5LOnngPKTnhJanrO61nAWkIcdjPrVt6RC3AbIKKRGsu+ZzIexXsS8ovKgpMx3HfhVPWU1Db1xLTPTj5pVBTIu4wPeeL3MK9BeSW53subag+mvrW3cVLlVgQVigjDC0eHXcDWeioI7WUxdvmNqf7gXYlZBabrOKoDePLIKUtplA4caYAPe1h4J+zO2qlp7LFnogXZVKhTRxJY2RVI9rRrGA0yScc/BJvk8E84/H/MUIeRQAPWiwoBp+/snbqBtZvRyEwswC659LL0qle9Mm1GQXmek/FABV7wF8AKYLnoSI3l8dh3Fn67MJ9075Pm4b2szbSi9DS5v/LLX0jX//g6ygIRIkP5L0QbKxxNy+6/L93LKKLJXjfTQn0UdC9lFdO9ZgiP/KNw66fA9az+yle8Os1fiKELQrq2hUzo8SjIynpaCBLLlpTlJxTvHz2UL/JWlZRDCBFuAx5vJ+M/bzK9+B72tAyy4a6Gygy5MSWtoFQeib8eT7JbKzBnsdyKZJmpyP25TuGRC/qqc0q0kdG6HhkcJ1kf8pqfAlhMavFscCCdePJT0h+88EVRXxsYdVjWrvE4bZrjFTwz7sMU5eff5K9t0xF/o2UOzsKYNn0mfaMZjNA014bffFNxWH6uwRmy4PUGHpCqp5/9V/TmxMtSoCsVcTxi46HVK2PmZIAyy3y2EQcY4rCuGIqexkc+OFpgvYnDQXEAbDu2MbovKm+X4FnoUc50kLzSPoJlpQCNwch8J4YQ27dvx0UYcay/Eck8o3J5E6NZ6ZMWf9730uFt0BKWsqlB4Ei7XuajE0L2Hl3Szx7BevKdyXT2d67+FgZBH4nDIJU1bqR2lC0vB5hV0KpP1AA/RLN5/z4HS/Gxg4wKjnGp7r0G/6qrz1HevvQOn02lQg0BjghDT7FmpIDRBZDm2E7vlV8fyXtYJ+pCx/nrJY7fQiCBrbYFbraNukP9EbTKScWl4NalUCvKxBEVndO0r2F+Gnfiq9L0F/5FGlxwIoYLGkEQmQqSpzgQDdzHP3e+xoZYxQXCwKEXDamWjY1p6tzUPu+YUJROOdrZBzw1N6LE6AlZEZULWRtm8iqFnWvuS2kH0xUgHhMjMszGbZ7WRPZwHdz0UKqlLaMPCAdELfRW0EgUcTEYn+yCrqbJi1ITvvQGOXUXRMk4N76ghXjCKAIlhIAKCwz8HRqiQRI/CxLikXhkr04EbJDz5s1PH/7IP6WX//HL0r6OA+yb6QuPEJFeoOTr2E08Xd8Ki0f5KY8ULBUlwprKlMyGTVvSd6++mv1U++OLUywACfQU/jfeeGP4tWujdxxCr8Kx8M41QnF2Pt9pu7ko0BPY3OiozpDXFDJdYSQyRGNWMjxWGA1fI+GIP4VfcIS3WYCUdGQdAkn6m5jCmYByygLass64iZ/BOCN/vnMU6f4j4/gz7erVqzkG5OZYx9GHZEz5EVfOWqhy0XiFbnv8z2TNa8H8+fFuZB4Fru+8L3h7NZRrfnrk35HxATGEv/nbdrTU8wRkp4BddxrKh28Fj8jHxCiX8s5Oj0GcDL7Xy8P6DesxcmhBz6BQgt82eHkemUc862UnHSPPxprKqC2MSSoY4iUsg0oq8jN14CP//BBf+ZPf7+Sgza1YktrBKoo1YlT4Fj6r6Eu9sixcI9vH1Gw9ePRG5yN78jevQpdZea8XkXampS/7zCXpyq9cGeUnC+xA9EcnT/65JlXxJHAUi9/vQOkfJpTC5Ko8D+5x9dY6EK/4E7zkas8odob6rmJwXB+F2b6i3sVUlsc7OGWRpy1yPuanDvJPKEASOO2l2HFU4Tt1CXUovItrFGGB+76LbuZWhP2+iaelqc9/a5r0ojdzZOWx9NpYK4lKm3GOHhUIiqMVLlu5makZoLzQMn0oKPeJ0HVPLTPnp/qJxyQ6TTEaUSc4JRkjPQSwOMsXwAVvGCCk/TtW4DV9PdaJ9qhp0MAKv4DEGNBkcd/m1LVtQ4y86ODn6ZvAR0Khl7ykN/Qmk4nSryIeu+A43EaPi8wGGfFE7xGYNgYbiAo7pjeicYuQwimaFQ8PD9GYKqS9LzDKVXgGjQ1mY6H1KTagvpTF961YVimkbLSOjOy9RprAAwFqj5Y8Y02AXqpTVyHYFG7EHcNhaCqgX3LEgA01N+zIKpThqlWrw9NBO3t8VGgRyC+UeuCUhZEwD+K7zKm1efPmETcLSgvWoiNFLpTgifeZngzw8H/lmiFzTw5WoICh4iALfnlfkpsxI27w0PeZlyP5KI3+pMZtBwo5nz1ewaw2s/6hgtIs3czCQ4VpAg9zzzxUkO7HwmzB3LnhF3BkXgUHr5mnYA+M3zYM0UrCcj9SgOs7b9IkDnZ05FuVT6G1KIqSrzWv4BieHwCoQoipX67GK34KKc6ImzO1HuW04u8UrpttNbCYOXtmPPve9OZZ8o+RLXADc6+WuRdfwcuCy1YOhFQpWoeF4c9vhgJL2oTtVQMUT9I9EjdJjXSa9u7Dyo8rLTfSRKOVVp5ymVGGpNN9l3sFL/uXS9Idt98ZU+ZuiXBtMHCPaU87KLmVFvwEWvCpMvi9uSg9Dh9G1umR91UqXw2/9k7xefigsFUROcppRjF5jfOHuHdzq/cxt0UJ67VB56m+M52jJqtBZRDFibV6SeAdlLANJm0k3o6px6TGM1+fpr3q71LTs16WBqaxD2igjb0amA1Y+MSPxVEqYa6QuSJZmcq3aBBW1oiD0G3gzKd5S7DcOz6m5qhXkScdOROHYV/cco9rwBhWNYNbc+pMneuXoYS20BhdcXCBm3yDNobzGx5MjfvZ4EsSa3RMbXKF1Igj3cj0IBrU9X2bakYflUYt5uwmXKI4DK1hNzMQqfoIOmC7/kQzjYR6ercXKr3G8e+hQR7wIb5mfvBQBYVRrOlwdd3I6ZopHMf+oQ9/OP3Zn74ierz79+8NdzZ5tOU0igJXpMkbUAMoKZursG1oNnT3qbQjzB96aHn6ReWypggXr7tY5NcbuPkb9KRRcIvGClxA5Z6zMMH+aey818t2Vk7Dgipoq2gMYMPkxePh/pSoXstPFir8Mt/gqXSNAJLxNE7+Ft/BsQgcr00Mq10XU3sqpItZ8coHV4SftzZ4I8w66yvfDWU0UDZ7OmKczWjx2GOx2CSU/Ixe7sv7iPBb/in0jryKS1FQdjBUyL5zlsE8DcP4DtMcTnj55qZgy9egoUhJ09uLJxg6KOExBXi+t/MIsHxvPebeuqihh/vDZs+ek9PAQ7/5i3Rc4YBMGL6OvK3wNK7Wo9uwRNV4IUZhFQyjDMOiOVdWkU676rrozX//1jio0827gjZkwyPvfBM1PnglHK1fp0yalO5myva8894bdTv2zBHVKT3jGy8KvQIYz4L7PQ2/Xjn9poyhPowENsTnitHB9AqWpuAxpcf0nfuDel07qn6Wq0LYnzDCWwOCzl5mqW8qBNeBHCGxvYM9HvQ49zAhNvakNOa0N6cZf/TuNOWV70oNJ/4hFnpY89CIa10DYA5EwRUSc2QtGKIRwFZyMo5FVO8lCk3Yr3kh7owaZh0dRxabP6P1WEgte5xcEzCoYPymknIFTjPxtGtTrLnYbrSaY5wAcQfTzlX3pvrOtRFP1BxtqYRdaxNcBTIbefDgVOXgqDk4esO7chPCjQVWNVd4Nqaxx1Sl2szeJv8Um/7yPVG5+01CaegKIhtmsZRSOOi12hHUJzEzf+7zX5C27T4Q1mOhXASu0OHiyKk/FrxYkwB3c7bBKVQdKTlVwm26F5PpbWwglTc537rwBr4Rj+CucfjB9TBxEe5QI5YqvmmU0MqhbxokuL7ku4J/zpVET2CIug2uGQ/zstPQE5tqHU3JB7+Vn1kXnOSB9CsM3QPjOToBAF7JZ03MPbjRPMQ9FIFUR35Gpe7Auxip8G7hwiPwhj0hg8iJqrSmf+KDtEU5Q7S9fA1V7JSIZ3kv3YVe3/vrY11Gw5fJ+Fe0kyNJKmQVjfHXrl2T9uzZTZ1gzWyIDonO7VUeC9MgnxxNe8zJyHzKfcn/0aivQAyl0/9fB2t/nuMUvCZCyV943pfpPOurdU1l4rlcr3vD6+NsKKen68EboENpzTvanUXHL+oldWMaa5O6cfrXz382nMLaydagJHC2PvPP+0NxeDRaftff/fphzm/KAQqAajQUKL8QrFEZ+BZSpXy1wCgUlUysJyGgXORXpnpkhYYNBteQTD/0451TaJqbaxbe3TghtY6ZmcZM4iyjaTNTC5tl61lXSmPnUiFoAGGCQ4+OTUe6zu+hp2dvLfrxFU5ehoNKicphvmSkiGXMFngqFAab2lPbHI5Cn3AsG2xxUImiAGSeohGQuHKxbTmycnTUBoe3b0A5bd+QahZiroqUVjkzYYiPoy2sNy3HdyBnuLDpmPXRWOjlYwAyniPMUMbC5RlD99SKgkxj2d8RZvA5rn7Ook3zxwV4rQ+rqm7K+BcjqIcVBJ8eI0RjAYYN0kbrs0LR4FpDLwu6EyZOSue///1xNpKmz5PpGXpUhaEf5J3usSGrpAo8G7yNXYslhXQTjgRXPPRQWs8oyYPgioDZuhG3VvhOE3fheNxFXosI8EFrNtGGSmA6ClE5eW/8mNYpjMxJ/o/8DUevVIKDrJmoWNxPZZBnhkK3V4PGGwq4sZyPNP+IhVEuTh9LUBd7fHbgF896Y+w4kgPhbX0NIR1zBmWUoMVafZo5c2Y4HbXCQHrkl1NHdk/4n1I+0pMVVRbe1jBp9l0JKlDrjD9H3E79zpo+C+WUvWIYz+lo9/08tHwF6WmrjraV5tAjTEm3GAv/rDMaEozC0eoUvIUYzLN8jxf8OfR5+D0gYZTf/e3Ce74hb5B29Cf+4vBIGFn50kfllGtHu8efdEp67V+/Lr3//PNSBz3k0Ry4adkqNYIX0K2CihkFeGG+LWwcnoQH8/+FN/Mli49KL2H91h6wcTKx1p1hN0g5z4yveP4+hSdUOcneEnLhZsEadWy4zkbja2RNyDjucRpom48Unx4nVfYNcsz2gBY9KIUYX9gIsK5j4bGubQwKYlRqGTc5NU6Ynmrbcd0zASE9Fou1ydOppW3AxP+ZXlipeHbaLfhBRj1WGc+NcsMvn6Lql0pacI638dFIIsaFiuYrN7Pqbdoj3FumL0k7V9+SprPkQ3tCSJgywzWN9DoKMv9m6G7s5KC6tfempuOeyQPHWthbxE9Rz+plaXDnJo6CJ43pVNhcDOYZa01cNQZBR9CQUE6tc9PMk58ex2No6RMaC1wV1Coj/w+RoFIIaGRAHBt71eTj7eH+lMYtj4rAKUrKdNKrkFiMh4SPfvSfYq/N7bffnqaioCxY0+d1FDAItMy5Cn6PEQbWgZTtXnzv7cJqyjRa3dU36upmZzpAr9bjMqLTEpZQmT7zNhg/W8I5EmmNqZ78JX+zwZfF9/L+ibwW3ojHFjw+uF4UBxxasQkZP5VlXk8LwUVcPWbo2WC2PX/+ufbgiNQ1vd1MZxosz3B+iwIKwaXQp3KU6T9hSlv8GKYX4VbyJGbAeaL/CD8CV9fDdMEUZtuMbOWHwWu5N37BSQvZiXhib2I6Ouqio0Do0mXWJniX05iWjpt11Xqisohrhus9tjV5jQjeFHzKNRAwdeBZakp56/sAF3Va5bmLs64i8D7aEEny9GmGURSuuOTyS9EhGMsR55rsv/Yv/yq8k//7d78b62ANCAOnMEMpg3s+tiV30qKFgnwb+wS3YSH4Hnw+HoEj4ieddHKsozn6krviNTLfzIeK78Ok/M7fPXHKiUIdyT7vo2pUL2N0rhAmxDfqn5Wsr3lGGrvkrNSg4G4ew0ekPesLCt0BvKwOUlChZJg+SLjrYRUS82kWnltGI8ydHkB4saG2G9tSFYnTYnlDnqeH2g+zt69QZr6a/HyKyid2UYHFaDhQB0PeZ+SJa+PgQQihC8ZMTU3zjkvdt7GnZYATbyvFVHX2zMr2E+bsGiUgUzmYC7dJD9yRpj8Fq71Z46GJabJuTt5cdjv+9O4Ln30qM2cOhWOnW8UU+pFnHdnSIYupvjR1IZaD81gDw8eTHwI9rmYqntwKxBFmbLoVIf/zWdjSES/4e7gwskF4bxgpAHznPxvskqVL0z/+4z+mt7zlLWkH5+JoUh09YqcDET42NK3SPBhQRRdrLCDo+p/7j3YzneN+HcvFuNKyBU/RnrHTxkFdearMqSwX3BD04gOhBa+svFRieYQX+dGRyNZ8D8f7cDT/tt/khzh0cxS3TlpVLk5ZFWVeeGacoph8p9n8rFkzY31MIV3idTJd6pqGfJHGPuat+61EGrxwsRRybOsD00vEKTxwRBHnGMW7YE/AfSL/lPyk22qnI1unxcSs9PCNE98p5xLfqwK3ta0lpuLkkXXHdCrgDkad69atjbrsibzGzxWbixXaOgE8eSUcw3imxyJPIUX8eB1/SrmY9NBQcDLtHjpFHiZpsKMXhwMqlILLGa6wDGX05/NkRk6j2YNmPZvEybfnnvvuWEO699570jymu3vYX+fUo4c+SmPeYqEM8ZF8uLjXb8WaNRyfcUH64Ef/GeMO0lGmodSqzozRDSPrU37z+/HXOvZ/JlgSlYBVKEbguQS9e/cgjPfQ++mdMTulE56aBo57Rhpw785xz0rp2OekgaXPTYNPem7q57lv8dNT79wTUz+jlv72WcjldsqZ+W6GFTWY6jWw9uKeHLNi+ZFvzLlxZ1W2QlohPDodEcfr3DCyoOZDFWwwIy349H+XVzlIT28ueznm7JY5R6UJ845PB1CwyFbrX7QhM1cpCN2lhNBrxIl1p83LUt+29cTjK3SnfVtT/8blqaHTvSNiSjr4I6/8WTAqdNdq3HgcJ/vyfgJHeKRxk9jaBH1BR3XhPrCFVkQFn1ACXN1XY9v1q8I/7o3DLwvxfF8arRG8L43Sa/mBUgR76fb0g680JNfxPMBPLwkKSadpCgyxUagM+TWr8hVmKCmvpK+JBpnzNYWOYg8wzVXm+8W14FEWygs+Tvftw2rKoyJKvn4jqwi+O9wvx60i5yQ5HX8jXblWcORmCY5kFHBf5yA+j9RQuBzKV+PKL90NqXwc7RzNUQ+jsfqSP6YxH0einYyqFJQKJKcIPWxTuiUmX3J5mIa3rLd2xAgmBLX1wZeEQm+5H4FyfD/cH9NKY4FRroEHX0o5qCj2RaciC29hjoxb4vlenmj+rRGDXualUVSlXzNyR07SVKzmFB6FbgkPAyau3QjwFkYeixhxGF+6Sj7lan7e51IyB/EquNkGMm3bOPhvw8YNuf0ZP+g2temHhVV5L0zLcSxTyPVMZejlQR6c8uRT01/8xWtj/c0jQSw3cbMtWPcVBCEDKR9HT+74UjZM4eTeL1751fQvl1wSHkOk3bwsy8Cf+3INGsAr0zR8DWR/R/8oA5+YQBmMKNu4twBC0FLOrp9oXGCRK4S1umN/Ky9wmOmu2R4MLYnQpyTmRL9BbcPZUBTHcFORaYG8x6wbJRG7SBhODbJJcRDJ3ucUWQ3+qzDNDp9swKjB/q0BxdVCWhwUMWRnUxybiejDR4XJSqQUdWZBVCS/UwlVIu7VicMFbfRWC3qxAzr6mzE3jZm7OBQRHSTi8pXPuQJmWqXXPFyXcnNtfS/WelvXphrOuai1jWChmgAAQABJREFUN7xtLW6LNg9N6dnOJFFSZYtRhBtukoQl4xrb0/ijT0gDrfqYy9ZRomY86TK/aAvxkrQ8Z5ykJ8cjRgRpLI0g02sceCp3jPwooTRSm7seym2ARRBrXvuCF7wgzWINZC/CpkdizB/8VKKmHVb8WSBblo6cWvDk3eLIOCgXg8E4wkCSdf4aDd1RGPmJWoGV8Ubw0zHZwX6VbTu3Z9yD1lKOmZ6RNB56L6mPRrNciLjlWhRF4JnxcISoQYfeDVQ2Ci8FVuAozfx8ds+Vofj+U6B53ITfDebT2MSmaQRUeZYPTvnlGMYpeWZl4EL+Zlz+OHrR60S2QC1lXZUn8IUd1qcAFlaBV66R4Yg/5kNukZ/3wQNhAKvUGTsWriMpjB0llPfGKfEDCul8tp4Yx+lMcbGeRwZcHDGq5EqI7KPiims85XrMvXm53rRgwcKILuzHCvIvZkkCp4xXQKxw2rt3D9OolREGHYZSFsYhSeBd6AlXUNDgeplrrQbrp9+l7eV/8ifp5Tjc1QrVEVBTTbXJn6m/gCEdwXDmcqgzTolqxOOWgc9+/vPp2muuCf4EXOAJs7StnN4SyT/jPDbVfv3dCLnFPBG0RGEOA3IqzrJQYCqonaaKPTu8C2MIRxZEaOZPnRJ4gBNxMbW24Jymcyoj7wfSAo1FVea8FEKNXv3mQo8jBOK7JsW4iX/0NvXLVc9YxcqmhV5URB5RfHWDnDoZY6hIyf3Di1h8VUoxvcRVM+wGKp+ny/aRb8CQoFHT0+AcDC/aj00sj0XD0UIv9mqhdGOTMNFAO/ZBoVNTI7AOrMcR7IE9qQZX6Z0rMZI4eF9qYCbTjcixRiVP4JOjJE3qSRbPHgmCw4BUN/cMrPSOIwJm7QjBEsQ7DkuExjI6smLXkadm6wJ3MbqP3wDIyBMFy1133YVn7JWxl0sDBdPkBg3NwDz0V/il41KFqOVnOcRcPdLGg9+OXrIU4wAOxcNoQhPyrGSzgApjE/LWotDjq5uAcxBejMHFS2u7p/hSF/BQ0c30mL7npFAntj2Y4Tqyyl4kOPMIseDpoZovkyKmDPeS58pVa8MtkPUhN27LDgFfjeS8H9ngy7189NuhIejnj1fNhPugUQ/jriOUabod27akr3/1a8HfJpSL/I+9X15JqbcOak4ceQG6jHS60px589NTTjstsos8iCctjqzGjBkTFor9TOmJk3V65DSmZae3BBW1dhRrVq9I61at5F22qlQRKvnjxFwEeY5POyAja3v5ma/3Of9DrrwMXlkBrYdMdckeFYo//gfcvft20ynYRvuj/vFHfsaVyCpV87ZeOcKQZ2M4G2zsJH3hkTP4WteMs4/p2y5cVDXQYDRA6gtDJun0u7iQH/F1aWVZtuIVfdasOcGDRys30ItAaq7gXvGswHMt1Pv9HH7Zg2K0/vZTx/rNN4gzWaVUSCtdSowuPEi34Hx4/ORpgVfQipyBRZySPD29/Z3npqXHHZ+2sG7YRXlit4lM0E8LZYVJrxanfcDVe00txyQIt310Szqwd2e68IJPpF/84mZoyvkWXkZG4k8eYuHVUK756XfzL9XqCQqlUCtwVio5SLnHiCkaB9z1tcrKXr0V3SbsXiYlOeogfnoIj0LhyTUfjSPi+AoKNg/vK6VEJiquWhSS5+io3KJCIhHNP+etYCQ+ld7j0L0PVG0ggU2FsHiZmvdW3GgQIO3ITX2kY1jXcKxZA4zMWo94UmqavJCppwxF5RubiAVnBhXtoQtROnob7+To9n42TiZ8xvXsWM+gkb0dkkpap7qp57HRWBBiZ1C46z1CxxvtHI6YRrEjH37VIIBzY8sVNwuh0qDlKvcszLo4Gwu0AG9gwdXKf8/dd7HX4n34oHt1uuKKf6NhehxGnooTdZEX6iN+8KAIuxjFIJB89ifC41gknspRG7xAoCl8gGTBwzcFdsFXKzPLVT9tKs1xmEKPxfIqYEHX9u07wqUMrOGdf+FBJfxqrDS8UgkYbMTK0BZ6oD/88Y/T6jWrg4+OxqVJmCVtFjI5TRSwhezPwipX76sftSB44NXQE0qOMlIxoJQ9L+lqPFz8B6bBro1Jc4zcKVCFKbEApcD29NqGmO5UUC/hJN0pU6ZVceFf0DaY2hF8+tPrhiYtIsu5ULIwKklwVJ7ktZf20a2U5T3p9ts8rNOOmR05hCV4mqd4ynODlFi/y78om3gLPMGP+PEaePxIa90XBigNhTId6zphx8EDkVKcSvkO5wmvob+XjoRrjlNnTMOBL0ZN/hMvvrkeE6M/3DCJaV2Uq5lneEYTF+OpgE2nL0H3s2XjkBGIDWGYb6R5qLMp/dSdwNGGxvMONuB6wGEroyFHvJEPzI50fPcOCoKfQnS2oHXUaM7xmgyczBf5bg21bh3NuU1/9brXsX9vdEw/Bin8Md8+6sQAsiqcAFB3hG3d94DECRzwectNN6cPffBDafOmjWGFWUbfZiQWGZN8FReff9dDbvlPBJVRgYYBlUql4K3kUygpmaogL9NWYW0VEagSXvmFGbSFQm2xikQBRSH5jp/3j/YzPfG95BEE6Uu8EemsmiE0DyniEOjEM1eVoeIl1jeIj5jhLRUMH1z2iWpYFG2eviB1+AHpGPQEXGHzzE88zMshAHIi9dFD6t+/gxHTrtRFj9MRUig04kVBwBcpoB3nfU7A9VRdOnXpQOMcFOLRaRAhiKiISm5risZmvtAZ/POehqI7n+hF8+yUj+bK9991ZzqPE0xfTwP67OWXpXs4W+eaH3wfRbBNAOQrt8U4X71/2I9P5mOUoXIIjM2U//YW2b1vY5QeXRYJoZRVEaqO2sTd3nQNQ+xZM2elaZUZuDRsZg1HlzKhAG38MMRshWMHoepzAwLovHPE4e+Xv/hlHDPh+/iRTqGhEDO//F7FXj3LaN7zZ/jqffWzHkhBXMlHR7i+UfjL07tR8p/4xAUxldPEOogeE1w/s7bQjwrcyCymouw87WfD5kyU9x+/7GVkK4eMQ27QZO+9ARjTcMljOECP3mkfp7EMcrTw0mdHbi0tbazXdKbrr/9Z6tiDtw7KWNz0uhAKWeAG+cQ/6RouT2H67PWQH2VgUpU+USgH+VNNT3JrXXf04ZHqHfs4mynX3pwPCeWzwXroyNq1NPGdgqWeJwbLT4PxPBV2/fr18DA7Ex4kryifCo54ZAUjlgr6gTRm3Ng4FiWA+PoxQuZXlB7I5IjiZJn4zb11ezGBbcBrvrjkakF84lq/fWf98mpdtN5qRh6KkXeRhu+KAB6ivb3s5X+cXvGKV8ZUa4yyqa1RF/gu2TEDUI0qrbNRXsD2xOn/wAP/5z73udSJa7DSoaqSBYXRpipaMwerh9/RS24hTxBxMrKEcm/BRKHki7cUV24MXCJYfSzckOrVvQWfweVKEM/x7pBn35UfKbwXVnWp7nmuvsV3cvXZvyODjTVGTlZMBUYIhKw4wtMC71kkcZGDZKyTzD2GPUenxFpReCSvlEuZxpRQ24TNQjlY370PbxDb8a20Lg3u245jWD7kNpPRqJ7FXQWnYncqVGexaRp7m6bOp1257oJyqnqBJhwp/G289jIVnk2cNaRQ3EzjvxivyG98/RviAL47fnVrauXbhDGj07q162K+2556rI1Aoz3jAvMR18gPIVHRpdCLOLzf4QLzhrV4ZMdohMVvG3sIVfEPlRI30dDz2gzTViwsL1i4ME3ER1vuLaa0ecvmsN4zToZf1RgYE4PsEBgylx/vTOcxFAcP7k9Xf/tbYeUn/X5TAeo4NTojPAvP9/I31uSCHt6K6yF08yLelasjTPNqgKdbtmxKH/jA+enBh1bgwmdSKMe89mOvWNgoRmEiyRU0rll0IdyeedaZ6WmnnQ4cF8tFxbxNkePNmDEzjWNqz2PkVUz1CM7opMnvoDsLTBfPFW6jcAF1/fU/TTfccAN1I88KqCvc2DkyPhmE0JWWQs9Qx+0Quo1iHaCqBd69KBBhaXgy5EMPhbMa2js196/M/DM9wUizCz6LpwK4lxkHhXqUKbBKm9VAZP2GDRF95J46ccxxRJd2SZllHtWkaXgoGTWqLdpAeR8AHvFHXolG5llciSOoHubJXS/rohOncUas7ZGP8Q0hL6q00uCotJePrqla3mX0GMAAKHbSOZEZgLPf8fZ0yimnRAfLtLRI2kKmwWsZ0Vq+ecQ2GOtobsy+9NJ/ST/64XXV/kLrH+lEqvqVOjqEaGD7u/lHcfjfHmi3Uaby2x6kDI9gCf//GKiaUebRDKr6EA0CIRgVhO+9rJUM0Ej7WfBsWnwiG3+X4ogSpKWlpAFAkIRiQUZY06NvWdezPtwYpc0PpsGDm5lorALfFb/RUzU6QkEhbBBmZz3TGMedzrzetFhI1T2Q03OlwsvD3ADNip4c+NmYlt1/f/rIhz/A+UZ/lT7MlMFtt92eJjL1pncH16icu7fn+JUvfiktJ240JAS5AnPoB7xyX9wSxaGF4Gwjt1mCIgK4Jt348+uZYrojTRw9NvWwblRvjxtGONaRQfS9wZnpJwUWwlmBMJZe8FFLlrCGNXyUgD1aj85WWJneRm/68MMWIDNzaPKRv2NczagnTZyQvvudf0+XXvJp0utWhryta1yRZEHHsFmveGXaMm75vtA6fJXOKi5gGlHia1av5Kj5t6YfXfvDNH2S3hk43h4hq6CxcxBBPJ0iwNyyEZPiDaxNzZu7IL3xjRwG6NpU9OBV8o6D5Y2kDqbZ8+aEWbEKocepLJksngKlTA2WtQovXEDhKcFp0I997OPp3jvvCKMKXQDp9sikTm3m2kUO1JtMizwxCNd4h/ziHeswwGFSK+hyJH7DDTfmM5eoe5r3b9m0GXN3/D1S30JoChEa/ImfV5W5vxaOsZ49Z3ZqQ6nwAZTImzgduHixg2QccSlTmYUfGV6m2Tj/u70zgferqA7/vDX7y05WyAphkS3sxgUUEEGrf9wFrbUtaj+tS+tW3FoVtdq60Lp1+dva5d9a6gZqW7Gigq2g1SrIKlsiBEggO+8l7+X9v98zd37v8ngPEqUkebmT/N69d5YzZ87MnDNn5syM05UHsFnb44uiBEGfXJrweMgf8iAoYEhh3wm31Ui7OJXEb/Dwl8ONlyM6YNGZb9Fg58+fj+ELghEN2TUwyyJMnWbwvZzxuHT5svS63/3dNAthfD/bJAz33EDbe7kuI/fXTCsx2sFVK7NnTItB2UXve3+68YafMvjIG+DFZ6iv57oqMzqR8Rj9k1v741w4B7y2z9xwqmkXcSi1/DjjU7Kzc8QoFQ9xiwZkO+Uj/vmO4LCxb/ck1hnz0sTFR6aB7oNilGwa+mk4y+dPqRT8Csnj7bhpG9N699yGOnRH7Gty9O5PSRUjeZ4mE7y8fRuCb3DqwannsGOZ0uOaciSX3SHWN+jgdhy/Y/qKp8ekrGea7s8/+fH0mgt+M30AofQfrMVoZr9o/jwYPtMsjODbmE8cx6h8xvSe9J2rrkof//ifMppkug3nYbfbYY5qHZEXFeYUheVxzUSGZ37+NO1VUN543XXpM5/5THQu4VqkNlSHNhl00E+ND1/oESNVev4mGNPBhx6eTjjxpDwSNQ1xnNJzQV/NIJiAjE7EcEFTmQJOoeckqx2XiOwXQ5ghyC6++KPpiiu+CYOmrMyJDsJIZDSV2IiyWYcUIMoAVIT1ECOVpro84q+mRwkXn1tvvSW97e1vS5/7539htDshGIiYOD3dxWkXGjbI6HZwokWblch7Lzip6Z52+mnphJNOCpoqNYNG/A0RGzRqwwptWTr08MPi8rtOtNsQXOQdJfbJT1eYmwMKz7f79revjAsc12Ox2IlRiVNpChTjG9f6FAfr1LoM7Rg4am3Wo3g7YJAJR53zTUAYvqhlXPxnF6fPfvavo148rFa493JszwDrJtJFBC1P1IX14bsMH2dcBffSJUtpK9AI+ub1IvCizd12222RthwMnMOhCnAc9AguT6tZnp1cMDiz0jgIC3rk/CKz+h9wKuU3mu/iZ1tQa/JyQzd5O2ASQsTN5M2Fqd7FI5AgjqemG88Ezq4YJg7xxFN8pec555yTXnb++aGZabnaTTo1eMsWtCeNZYrvip6Wberkienqq69JH/zgH8W5fw4ybIcRz7RV3FzuemHH3vueEU7RUHJ9WyFR+dK2NIw9RGezd2SZnxm/3C5zI7RVR+cLVCFd+8Q0iam9wbmHpU0sDThKl6/Zdp2XjxZfCSsbv3w6bVuf+tfdhubEKBxeqoZkfOM6DZSZd/DY2OPkPVae56cgxJCVNa88zSOxChOJKSLwvuXmm9InODH8ZS89L73twren7199dWgfBzLS9MwyTXYd8e4M5DibkHl+N0RO4UiVf/qnf4L5/A08HmToAI5steyLEb6jxChTDrMciJpgZONhTFqMvfOdb+eqh++lBfMOSH3cTxMGFgix6PYKk/gxGqcUXqXhFJHWTyeedHJaCkOWMdlZHXnefffdMb8v45UujpZtI8EUIJGu1WZ4D+bCKF+8Z0yfGtZfF154Yfrbv/tsaFux7oGQ6kfgmc5d/DrhycSDKclkqp9hrpHoDDN/R7xfu/RL6RUvfzl383wxHUg5x2P+nhkp05MIfxm/ZdAYYyLmzt74ChnTPevuTcccfXR61ateTRtB63AtToZIfrYnaeS7morn7Z38xCdG3gqFWH8Rj2iV4R04yaRk/ubvhXvTGWRccskl6Z1vf3u69Rb2zyHYFAiaLPuTlpbFQ4FdLzKdgwTrVyEWGou4BEzqjXetY1fftRortDemi97znjSfdrTwwIUgAa7AvHfdfakPOAochVzQkfQ24xYt+fDQUwXYAVyTYjmkQVWSaEPrOQ2EBIGv/uJkegBWcPJTnDXl9pgq1/9iatt4NdpkuNVfgoST65A8q3f78TpOaFA4hQAlngJDMCXfABkoVHnTTqSdhi86aoy/hPms4Jq2E5orTNSiXvXqV6VTqMu1994fdWs76mJdUnxCQFV1KCTxsM0Jf/a0KemfP3dJ+uhHPhwnzztFbRqdMyLlPTzG8J/SSh7XIlKH1mfVGGrE1m8POrPPoyEbKs2OBkEz4t2GoRSx8zJnTMRONJidTO2lhYekToTHeky9HW/Dx40m985aVu4TWGshjKT2z29L/WtvaR2jVDpBTOMZTlbwuDgog+Pr0qZ2dqMvx3y8Z2bg5hy0V9fbv2Vcdggb7BasAD/953+R3vbWt6Z/vfw/YBjcOMu0gid/e/20jd9GvYNzu+wYfstUnPOfjrWQZ8O9DYb+D//wd9HhPIannIhtujJ6K1WkcFKwXYP56+t/57Xpsi9/mfPteuIATa/k7kLgxeJ20C/TUDhRRIA4cl3ErvhTn/a0IG9htg8yHejOfc3HA8dKMMksg3FU9SAsv316/I1TgE7ZwWZi9/2NP70+vflNb0wf+cifxO2rChLPqoPzhZVdPxqCGdsOZXqWT1hqEOISxg8EerDpLTD7P3zHO9JrX/u69H2MLiYjDKR5Fhy2Ef6RVrasMOqAQQljHIxoGwOCSZMmMw34+nT0cSvNMgwXbEdRBjxsXfrn52CcMr5o6eL0wMZNytugg2X1J018Ct9f5ItfDydlAzF9hgX1t7zxTema/7wKqAxsGJTEAJC41p03G5uR76a3ejrRMC2PAioO5EXz2t7Xm/4e4f5bGM/85af+gqOktqajjjwi6lw8e6HfBk6j11zDwUGUBbxKGUrdmI/CaQLHS0mHKAd+ZeQf012EK6zNW5wso/DwjKdtXmfYRJj3QQceFPEtSIETEYb/AUbBIwaVDrikA4JU7fzW224nz2wMQUY5X/L0XQKVMglWg43Z9BMFYx2mcSJ6VSd+OxCwjy1bfnB67etehxHFLNo7ZyZSLjeo0/GC/gGHfKSaJXSqUgGldraTAcOnP/HJmAGQNnkA6vqqtMp0ES/pPVZdHkLuidJBVQkbHSfyH4nM+lltj5+LhkZ2Pu25ahkyHU2Y4wBT3x358/Rw2MFJM9LERUemjZxa0dfHvTDOLMEDVUACAu/ue1I4MeWfNnJ9RsfA3amHPafBJ2yc/LTaiyT+4adWxZaY9OAkLJwWozlhmRW3bqrmE+7lhUAOXEzvtdnOUTstM2/2jDSZTqzVj3uStnPsTwfzkR0wKvoHI+dy6CrTRpy4K2NWkK1hl/7bLvz99NPrfpzOO++8dBR7NmTmMf8YpYkSxaj5put/mr6A8cHnPve5dN11PyX9bCkSc/nmIRNUGDgv774c9IUoWDt72BQAD7KP53kvemFa9aQnVe3ADtqGafK26kicTJdS+8GsCA8iRorcQe2oCknL4E8NERKlRQcuYFPuegxAPpi+dcU308vReJxqcQqsG60CQPwQRJQvM0SZrMbfTDvBctUmfso6nNrI5Zdfnq794Y+DFHOxOOukMvuwShxAM1RjkkQBj7biek87gxZhejjuBjZ6XvAbr0rnvuj53J6K5obxAEFEZ3CggIpS5+Se6iFtVq5cmZ7z3OekD//JxxKnRmZHnWcxlj9l4Obhz3Lrpk9j0xzI/OvXvpJuvPH6sAo87/zz0EyX03Zps9DK0xUcNdnMbDfxxw8bPAMq15Es76WXfjl965v/FidvOE04nr0QZdOwdaEZ+Rbal9pEDJKYk/ZpmHWipil4nflMA7e8hmhWxAF/42lEY5m1NAxtgjA1DLUn7z+zn3mcWbtTtE6P0TEWLFwQ5cmwpeForuADCKIU3MgCo5kNaRNtbc7U6ZFvJgVlMFCEXZ+LaWlhD4Yxy0GLl5L3whoc4tupWyU1rsn1d2Zhe3r6mWek3/rt16T3vvu9aSt7+iaiQVLgiBd48yeMHmy0lJNhB7KrOy6uvJcB3Ic+9KF0yPLlaQVnWHp8V0WRVnkEFHAsgC+i3nodesNrn3N7TDg5hRVtgE4ai3uMjmwX2XKJMAntiCn8qm9p/b/sFDyBGBmbnZ/O++fRoWsvdBQEVRsMyLBBzmHqWUbDQYD0Xr869bBOS7+KtP4pTVdZErD67okNth67pQYUfaGKH/kpxKgV7C7CnHzKgoNTp2fpsbDugbHeyuu0mHuYYjoL+rl47t6PF7zgeemyL30h3XH7HWkSo69O9taYp913EBN4enq8ixX9n7IAg+c2rhaf0DEpHcDOd7WWT1z8Z+m73/luOo6R/uGHH56WLFkSBgcbYEjesXTLTTen635yffreNd+LTngARgHWZZQFpmO1dXRVHZ0cO+jAinMj9UM/T4I+5ZQT0/lMP3oyxHYIJuOU+TrV4i+flJD9ZP6ZMVsnsivhmZ+MLDO5AaYSx7ueBo3ckzYAAWdOm87JA5vS17/+jXT9tdexWfZz6UhG/8cec2xafvDBWFbN5JhGzmmEMfShQd6DIYa0u/GmG9N///cP0/XX34Bp+k9iIXsO6xzdjLJ3avzwYD6oVcuVOsMLbMFJbVvNzNHy2Wedk970ljelbgSoqnVh3NGMcyGgV9R8pJNB9/RMS8969rPTl774hXQfZwxOnzothFBheuapcwrR95h6lbacGDFjck96cPx2tL1b0Ro/mi77ylejHldGXR6RFnPY7BQuqXSTNKOUuKZcwwDLfB00+gGH9954ww0cJ3R3Gs8WiHlzZiGEWOthutU2lnFgqpIT2Dds2Ej7UdBFI/NvNIK43RdtNKZuEeKucx6EluyUVa5H4okvdXbLLbeglTGICm2C2lVIKdikCRVf2o3ldOA1kf1s8xbMp11DbcNp/7nDScNhDhj6Zs2LnIERcPFzUKIbh4bvuqTavs4WpoAyXw2AbMy2MbW/mezHm0MfKbgJO0OJVAG/rvVZ/sncA3fBqy9I/8UMw7999fI0ccGcKh+aHQSz3WsJbL3H5mPydbBhWq9C+a8rr+LU83ezZeFPYqNvP9OLpjHvUpYA6J+KBNZDlDuelafh+5jbY8LJioFP0cOcZqCK4aK2x0x2vFqMtPJ5vGhc5SMucnMfdgRfxKTTq29lwLzr7XCzbd5BqWMRZ+3d8o0w4SUZBUCboXyWQ2dZfe9URcK5oqHgcMAU607Vt6RQcNvANnVPTgc8YRXnH83FE+0AgFrKTWDkq2BygdWRax5pDgQDOP74E9LNN94c1mPdAB9kRNuNgYKL3QJudSYY6wBrI7puRmogTjhTYpjJejrDD665ht/VrGWghU2eFBZ2TjloLr0Rhi99pmIp1sOm0X7OaOpHS4i1BHAKulkGOznfTnU5qvb0B2H39van5z3vBazDHINgzesfXTAlO9t9mJGvZy1DZhEXz4FTEArcY+ASI1VhUxvk4UDBvTJdSHQ3J7um5pFI4iKTmzJlMutQ07gjCTPzL1+WLv/6v2PVNyvWP2ZQtokIJ408PJXCA2jXcTq6Z/R5Vp/MfxZpnZ5z/c2Rq2s5OqcCxZekPNUQoS0VLNPrR22+C43gsBWHpne//71p0fJlDDY44ofpVdNYNlDPjpdgMkEkwphqlc4nn7Qqvezlr0h/8K53M9BA8KLxyJzJFrxMTRuMzH3NtJPGUt9ppQXz54YWq1Z77bU/RtB9MQ4snQHD81ZWtUfXbCyrU6z+NnBSgxuje6DZvLmYx4OlhhQK7gXzF3DUDpZ2OA8uvvXmm9M2LSrRIgMP/D21QytQ602ZQZXGmtROjiabN28hebLHifIXDasPS7/bf/YzNBQGJ2j4Ibist4o528H0o+WQh1NbGiRMSpOZwoy45ik+wBzR5cohrhomcIDNS+CwhYEWX4ELOixtwOlE6sX2Rny1WHuLoAM89dzDtPWkKQhY2liUIXAzQs69DJQyUnoz6EF7mj97YXr9634v/fi/vbdsXVpI3fS7H9D09Ev5Cz0agYTAtpBVe2qjHqfQPi+55F/SSazN/sZvXsDU3zhmQjj5g7I5LS9869uLC4vwLVSDMwSdxGNfdHtMOMlj7I+quDIYqB2NIIsD/IOeRqjc40VfJY64+IzmRRNWigQqYCcjj0/iWPX6d05Ik5auTFt/eAyba7+fuPYpRsneYmtb9xfJobad1rLliRg6MAEyFB39IWhgXKfu0vQj08QlR8B8ekjSwTFHNEggddtp6TExZRa4SktH3NOZjntp+sK/fD4YUzebONWMtnPLaIzogs6ZqTvaVsDJ5Izj4rjMWAbo1IlahczdjYf33ruVeOKmIGyPKQct0/zWWk8iBNMBZzcvywwUsuahibhFIbeAtXHj5nQ+OJ533vkIFTsiDJnOFWUBB9cCtjkdyTSSJtrSN9oENPPgXamuZZ3pYtqFfIJZI4RRJmGICDWnTaxGyicOlmECmstB8yfEGpuMWKMLnUwrnPlIf6aPJnIY4gGUX7jSPY58ogQyAEe1+lpe0VB7yuVg6pY8OlGR77p7bVp53HEcSfPhdNQxx0Sa2K9U6JRzjL+2MgHFtBtwZU7SWGOGF7zwJemKb34r/Scm+p5irb9aSD/lM+/IXkJHPTqlqE92CjhhqNVap5pOe1TVTTfdQoRKM6niKuhlej09k2NB37KBSmi50lkaLV7MeZIMRMzUkzLWrF4d7WocC/9RBmFZPsIdf8V2A/EkrfUwb+78NB6tR6EiE7Xt9WKteQ+0cq0p1mmoK9uceWbBa3oHYuDgPDnCtwdt2HYa7c3ma5kJH90RHklpRUQz+jYGHrffehs1a/07jWa9OtgQFnFiWgcakdC6jn6C/1xOIJ8dRh1VbmYbTY0X/ls/ukCJelEY2mbU5p/65KekN7P/6d3vfnfawHl+U7n7aaezH9Deqd5By0f7dS3bFh/tjHJ6624/cT78kY+whrUsPfvZv0L90+eA20e/FncLKL3iJx4WOHxFy3cR3ffcHhNOwYijHTJSilaTO7uNOqqYCilE9dV287jQuMpIZiEGUc2BgJXLV3iIit1MJqUXLOyQFalz5kFpy51scGWAKc+jeDBQ0/FOoeKVP+Gf23F+JzxmEAhwSs+TIzbT/qZjCdg+d0FYUtBtI+84KV0c+W8HjY6reONbzeQkzLJPPfWp6YuXfS0OlbQQdjBxNG10QEeF4m0vMiGw3dxrR9XPTiaz8BlmwuJnAmPKPMJZX0LNnSJ7kUfkJHzfFYxMmbAOJA533Xd/OuuMp6U/ZJrCNS4tvmRcBGX4oLIWobGZaZ5pjFJ1wpF5DrJw531a4WcC4lot8TNcGAQ6wo6XCq8WjcBboWtnL2snlsXw4T+1olLOqpZbjB/+SB5i4UhbjRShBYPuQBPRKMWpvMVLlqSPffSjcW18ERKZ1qaNxALI+Pq0jDJxgJuvQkVDlcNWrIgF9euvvZZLCDfEKRoeHNtiztZbwIOx8s+hSxlIBUzChGe5XWxXeCmsTa+/P+tYIez62HDcrEvjqHUvXLgw9TC1qZNxemq88d1E7WCEPxaEesrtI07ygFbSUnov5jRycXAtSjzM07J4NYpwbGcxTcd7qY/CZv2WjrZ1r6WX6WdcW5UReQdyw/6Ehg1yoRlJJZj5OjRzb1l21kG8HczEK3mH84OA4ET4uYfNfVrucRLPGPQYN8rMI3gFZa/SmxyIBFinnCyB1eVEBi6ue7qt49JLv4JGNAnaazjBEUZo1DvRhhS+0hxxFnmEdo7flKmTmOpend773vfEEUnLli6jX0EP6EDBK5RL/rnfxYAuSmHL2DddxSIff+TrBAsk8LBSM1H9AKfq5+Pxo7C5yXQj14xCJaiUCYESf4xRGMFOJcrUWZh8H8Ip6SSnnakRyUtNY/nK6eIBA4+sWRBQeL25ClJlAkOIHd7yu5TrMWbCxMPTAAQ50PohlF1HhiZ0G7nf/YykXEP5vTe9KS1fclB6gPPK2u30dBDDTRV7b3iGM78oEXnbkYBbmJrfMqHCqH3601+G5WgwDtCsGFzuKHQsKxFXOuqESZO5BmIg3brmnnTS8cemiy66KC2hc/VhDea8uvmFIIcOMmfvcOqDWchA7dy6jLctoypDi/QwHQka/vyNd2NBVgVW/BMCVKIjq0H4E3/xq//0V8NSw6jHEZhpQyNU8EVt5hytrzBpBt+NGzbx25ye8YxnpM/+7WfTqieuCgFj+aRbcdK70JmXeBePQnfLbXwFikz8rLPOThe+850MqbvTmrX3Mq2FNkw7CNx5Sm5bhRj582/dFUFkmRwM6Er5gvbQwqs+hjtpZJllrqLvesskptTMwfWXn3MGnPXnnUVxMGyu9iiHeDuFGXVIfIVSrBNZ18IlM2nXiyWjgkKkXWuyTLpCi6h5vBRGWvV5lfoKBLb1EYLWhBKgSheJh/1xMFaf9hO2U7d3ua4JjW1zIlTyzHUBjsD0fQAa2M7VyL0qQ9pbhrqzTnXCCDjWsd/Vv24OolYzm4bWd+HvX5iOOOyQtPYeyk38DqZrtzMwYI7ABMwiwSt4KvAtmlm5vryQcwmvvvr79J/3pPUb7o/Bo4dkS4voGeAa+QfeksS+8oikEeW92oVc2FMYQj+ImBlFbmB47BXOatX5LD9feecXI3maj1N/0UkYQaeuyWnaIcemKfNOYQMmjawCEZqT5YTSNjybdZmJoW3ROfK3tAi+59N4kxaldowhBjtZEyEvG1uHDc5e7ZNOl6c78ig/1p1I6mnuJ558Spxg4HqO60NOPXlCuM01wINcHEAJUjHqs1y43DHzux3Qn34P+SFJzNeOEZc6AtBpnNJBSlzxc0S4mdOm16/HAOKElemi97+fq61PCCHq0Uo5ruI2O0ewmzh/Thq5LhOL3QYF3fOzMJHQsCmHTM3wfi3lILDkscqKppmTEy8ETBYUCl1/BVefwpWZFo3RdMW/CGXRsL79ybg9uFO3lbWT9Rh5nHbaqelDf/yhEExqBeYpTOHo4pnJG9/lT8mnxBMXnfRX+P3qr74yveENb4SeXem+EN5O/QUytoxoodau/2KaSIZclSmYF3gUJ8wCv/gVHEsa/Y1jWq0uPeNvAQYNmjjLcNViVqN5yHBLWlpU5On0lO1Dk2mFoDC1GFW4+S5zj7oAjgMBrf78dr+ZuLXgAcP4UC3Kp8bnVRlLliwJoVJwJDjq3++HuQqGOJuH64HCXMe+KqePFU765181VQgQsAyBFnQyDXWtxuQBxQrrjNfDcmt5WHsRJ7/44f8YdJx8yilow69PE1nX0/go40WOtGPb7EC1Ji2wmOVgxkDhrOXfrJlT0z/8/f9Ln/3MX8fWD8FrRSy9fdeJM//j+UikybH37r9DrXYP4JmJ6OgvqClp9wAWu59loCsX5MV3uAbGCSyUL2UfCHuetjLSpC8xlRBRYHi5aDbQSAvVFVD+tB9QQDkjY2MyHYpGmr702NQ1axHX2Hs2V+5AXcyFdymUAOTILuhGGp1TDZqTaxAgE3vBS16SzjjrzHQ/azx9dHwFFH8ZldEFgqmobWUGEFMfURYKU8Ed6rQVMynhFpt/HQi2dnBjQiumC73OQlPsodG213L0x1Teqqc8OX3sT/80Pe30Z0QZXciVUZhHdqTlXWOJB+iw3NIedBjOBPx2lK4gNq/twJd5Kiw8DUKDhB3QR9uOol0oWIqQlV7Dy2X+JVz4/oznU0ZZ0odAkpGRr3SOuoLmd6zhFGnK8/73vS998lN/no444gnBvGXopXxO0+nq9RUe1Z+SX8EvGHQVXwEwDlhveeubWbN4S9BXhm47cWrMuMYRz1zmzIBL3qVsZmWZyrfvrbIBzLzreBjfKTjjqfnMnbcgBLdm317NvoVBRz75fShtwHCdTjpXNDSPWRjZeBWI/rrAg4GIVoLWuf6WI8pNfuJunIBHmLQXjlsGnA6OsuEXTpAZbP6u/404BuZye6qKzjzVxByIFBrElhbyihsRBB39W5HPMVEMNGZx4KtXzIej3ktZRss8woFTymZeuX/mu5/OPvtsTkh5kH1wnNZiP6BNC8t+DPUiXbQ52rTTj4zz0hTOUexmferij30MLepq6MW0cjUAEC9qK5/qQrmt53AVmfLHvvW3cIc9gjU0z5WRX8BhtFa2R9AbNdOob3AuHWgHjDbG/z1z0jhuqu2ftJD7XGjfNCj6FKNCmaVlzSBDMNlwoX5pQxGC3w7SbeucnaYfejybQ7TSs6FmylhZ7VrcxciYDxqhUytuoMzODOzMO9NMjvV/x7v+IJ1+xtPTem+IpcF3dmHxB3PvZJpBQ4YYaeOvs5NanhaS+MkEbOQlrJTXBXKndgDAf/OzHAgFOr9dQiujdezvWc/C88vOP4/L1P5vWnm8B+Q6khYwwiVGoDKl3BEdJa5du5YR7VrKQ2dUokuo4oBfOvwOpTdwZMZ9vTvQtrZQHi+868zWdPRkNSPxl+Hp/G512Aqm38IMZoef5av71ePLWIxnedVI78Go4gGExJlnPiN96lOfSr/LNfWLOBdvO6deOCIXVl0LM5/Av8q7/ihh5Wla69SpJGFJYLWGN7zh9ekTH/+ztGjx4rSaKb4t3NeisO7ELLwdRmU9afHlviRdKbPwdOIvTiWfgo/h9ffy7bOd+JrBT2Z61vYi81xLHXnVhJpxmwMN6Mj/KLMCzV9xhnmteWudjzoNOgJ7zZo1Yf1Z8DGNOPtt3uUnk9ZQROEUlxXyHVaRxI2eYQMc0eVyZbxpa5Rf2JswgVdD911tPeOf8xNzjZEcWBZjGffkqTXNnzc/cDJ+nUYjZS1s2ZnP8jONntOnz0xvfstb2c6wPD2AFelO8HJwR60D1zammCntBYwYEDiFr1VqD+3g7tVr0vswrLjlphuifVvvpY+al9pz4Gd2/vZRV7ja6OjXC1d/r1Jkr/rfPK9tcCs6L633Wk7WVX1az+qpxxwpTS35HnsNvGCmIB/qv3PSmA9wMy/3why2MrXNPpTNpI5sicKPNhXCKdqmJSSpbVfe61Pnu9N+2/mleUentiWHpsFxE9m8S6dqCSM6V6Sl4SpUAoidytfSoWW2aDN0oOOOOyG9/R3vTMesPI7rqNeysNsXawRqeoWBORK2849DSMDXogYqlICbtQeZSYHv4rjvMS0HqqxkBJPqZANwO5ZkWxhl3n7nmlg8/sAH3pf+6IMfSkuXsgkUHNXeQkvjI3duhYEBfrel1XfeyWj6vixwIZ75tBzvlkktpIPR4/1Mb5166qloFG9KKw5dgYZ2H3lv5fgjGDad21PW6+l9L9/mXRiM78WVcMNk4j6dzvHdzu/ajNNBP2cR/+DlKzgq6B3pYxd/LJ37/OdR1x76KX3ztI+whD38V/KqPwsOJW7gUaWXNp20ARmkRyK9GI344x//eHr2s54ZV7Tfh+XXVkzz2xBOWRhmXMW3CCLzKmUbnlfBw7JazwpznzpPT9iGMYBH8kxlvUUnue6m/FrsqYnbYCy701Km0/JOIdClVavBJJjO7bet+uDbvJzy02KyTmvjFjx9Ci9wovxqYk4NKqR1CkmPVwoECBvRVTS0txS4mq+7zuU0mfQJYxZxttz8YuM45fUyTwdOxpGjzWaw53Um0jWmVM058B0x5wgzxDjlJw7+LPvhaNjvfNe70EonhhbaRTtTg4p1WOkZAzgGEi26OqjQWpNrVTiV/Zvf+k76wEXv4+DcrdDWbQEMtOAdbqMgx1zeUcgyMsZ7n68TTqM7Gp5H/oclGe9xWoIVwj8dr7zxjbSPD8nCyF5/f3wG0zW4/h5B/hnmZLwuBmYLJJg1iRxDQOkAWBrYsGSP/6e429DAzVc3EHYw1NrOSLJ7zoGpe+GKtOmWy2nIsY4d6LfTwuPKd2gRN+XyRC5EWCmAsw7eTt+zgpMZ5h7EaIr5Zs1NFXJOmUERT4aQthphSCfaM8Il0yczFTt+1hp2sPh14iknpb/57N9ykOQHma/+exiHpwRg+u4ZXzRomQkQYmQaZbJxm4E0N4Q4xQXzQTtxemQ7eHVgTu7tulozPUheGzZugYFM50yx30wveulL06pTVgUDyR1ak9pqjSJoZxa5rWT4aE4w/q1hRs4iMZpdNDMJXDnju+1gO3A2k6fXE1zwmtekszn54eJPfiJ9/vOfZ03mfgQK5wVSPplIZti0pGiQOc96O7J8hunnT+EXHZ138d2GsJOhuYaECEiHH7KCky1ejMZ0ZjryKEz9YZZOq5nW+5yioQe+wiuYP/Kz4FOeETvqIKcTznivzsBPcjzt6U9PhxxySLrs0kvTpz796XT9DTeyUXYb5smTqV/aF3VkXRnf8pc6LGWtl9d4/jQGMX9/vhtn69YN3CvVl1Yeu4gjrtxobYF2phvIzw3Zmnd7UkZs4qPzxm210MjBzvhOTlWgjqShVm5qPdEOYLDitBWLzJtvuhlzaDXNfLKI2rNxxNOfeDl2GaBTuBftAKb0tLYseIojH5lII/2ttR3hKYDM9847V3PiQz7QNx9oDGM3Pe2FmgyY9i3nAexv4uC05kzam9anECeEsWlqWTwEg0yr3N5KQJ3u4nPuuc8P672/+qvP0A87oVkeVOa0Qra++QcDdl+o+fVr3dfOVSn04X/8x39Mx648Nr3ygldF23NtWvoNENkJdz5zooLAPvZ8ROEUi+WqmRBHwrjBTpYcpZZYvLrXJBan+Yh/MLc8us+UoC3meMbl3eRC8BfveEZlkD727rT8Zf0Zpo2hVLbBe9pZ7tLQ7DQxkmKjYZh5T5icZh/CYbA/XAhTW4P2o/CiS2skAbVpk0EPn5Ij1prk/36gYSmcpxx8GDfeTsVLAeS0Gumgq2NRNc0BR5LmC6H5CzyeFY18KtQ6WEi3A0g3N4N+iB3mR3P46Gf+8q84+eCnHKXDmW+cETcIcDWmTusBxixywtCZVhgFtn42frUcUd7CdNpWtBWnJLzG4DnPPTc94+xnMpV4ZprNBldPflCQOfUkjjIHYVlUGZhOWqo9SUM3hCoIZGRR32QS0YiT49IezJt5lx60yh6u5hiH3f7hnPjwgfd/MD332c9Jl331a+lLHL2zfi1rQQB3BOom2jClrughHrYsR/s+nSLSlWmwsGajnFu3cYU3eKk9PfWpT01nPfPsdPKqVemoJxyVJrCg7fpeMNxKEIirpXIAYJl+qTYrMOGCsyM86WVdOJhQeCzkmvILXv1bnHJ+cvrOd65k4PF36QY227oGp/bmNFpeSHe6Mwug8rQO4gc8N90KVzopTByJx9QkMBYtXcZ18k9O57/s5bHHZkds2h5M13Gs06bNmziRY1xaz1XnbWhRZBGFz0MdaeBeHY4qZm/TwQcvh/4cWkw+4mTervt4OsQ2BiEKghiIVe04hFLEpS3CX/znAbPl3izrCa+gdViqGteGNMxZF8XXnmKcjUzn3X77bdzNxCZ33kM4CalqA7HmVMExreXRTZ8xPfAGSPYgTVgBmskuOsutK7h2oQX93hvZnPuTH6drrv5BmsB0rG3KLPIaGE2gZGd+pEW/w6J3C9f2IEiJ+8ccbzQNjfL5L3wh/IXpbGY2PBnG8WokaKU3533LPaJwCiLSyYJaFcGUPLIXBRJtAuIxFTDI6Ilx5QAL5IP9bNjE3/PlpEssTgNiBx9hraZ/riOIy+I/l/Y5Ghg3yD1JbYzYOIHBKTKpmxlvrkzrtdUu9jCNA3/wsQGEyTiFHGCk2M+IkFuSUvfio9KkhUenTTetgZlADqjc5gyEmhRFUzsSRsDBz+J6UIZLKTtmHZsG5ixHnWfDIvSJzsxTyNHg0JiCAZh3EERA/s9CxTorlnBu6CM0jjeaxojzd377d9KZp5+Rvv7v/54uu+zL6cf/8z9xBI2CQwbsXKTrHE7TCCeEHMzQOnYaROsqpxYUyDuo/OlcuX0KJtNnPvMsdrCfxFTFEbG+YPX0RSfJzN9NhsILk1yH9ji/c52KPwWg7OU08gkTerLwIq9wRImy0xb7aGvupXHgtHj5EgQPxx8xCvbUgLOe9Sw0xSemX/v1X0vfu/I7dPhr0o9++CNOhb6XdbcN0DOPyM27aBSWVUagQBIPp488XHT+goPS8uXL0iqE0fEnnJCWwKgXcB9RxAcPhZJwnPrJU5MWCgbIQyZE0C/nBFDBCeFtPVA3MnhPWsiDhEGmbo9n0HFsOufsczgT8Sfpu1dema666qq4XfZ+7uqKa0/AVYbvFBGEtblFuwg8K3zbocMMpt+OPnoFdXkiZx4+metMDoUOC5KnSqgdSicLeNppp8bdWZ5e4GkQGWauE2tcuKEd0Z660GJXPeWpcRhuP0K1rPs4YPiV552bTjr5JAYj7H+yMWSsos1bdjOLh4wG92QGCOMQctK91FWQeRRiR7wAIJ/KeDkgOZMB1HI0z0nkKzcD8/gXHTHqMMc1vVh4KsqToIfOTbV5YGWPi6Lvcl0L76G/hOBekd7znovSt6/4VtBYPKN+omBilOmSFQXyI1fXlJz+0xjCAdQ2fp7mP5nr4T3E15kuehsMAkiZjIH7vvZnVOFkmYIjWNKoBttDlt5Wi4yxj4qPk7arnfzbOsenTYlpjnavbmZaBebS3y9DM4Ukt4GrDaDKD44n/cS0qWNW6oGgpIKONHQqn5YaeYcpsfn7CYSqvsRszzvKZFNhTAqZMK/lGBfV6p2DSKHpHOm/cElquyP2z2YhbvH5VcXJ70KgeAowp/o0opi69KTUMXsRkF0IZxHf6TyycgSfR/jqUwSZfWl4PAMdvKR1cS3mU6gHY/KsvENhOufAyG+66SYObb0ufeMb34jTA+6DiQ9gkbGDM8/My34tPAWDx+pMZSHXKZonHH0Uh8IeHXCWLl0aGyPVTHRFkxhH/HCBTsbJxfXiMp60Jzsawb1b+0I4bWP/04yOadHx3D4mfXUFjAv+A6TpnsjGUjYyWkYX5mW+amkzZs6In0z7rjvujM2WlusO1rNuv/32WIS/B8MLpyIVaqZVy3BUvnTJkjjY0yvjD8R02mvFFx54IGtpjiwgN3nFhk0QVogXv9CcH+PWOVSP5OWIpnIKQ53an05663fwIQfH7ymnncYenrvZtLkmBNSdlNvzEH++5ueh7TjA8NSOcdSFa0FLqjK7ydYNrnO5Rn7u3APYcDsj4NfzECe1lhdzYG/iJ5Muwia0ItuKjZL/4hdGC+zhybfWDu1dE+ce1rBejeaXtbaaMACm+fiT3uUnPAdQJayVn/xiNFfBMq4GBS5RaJzxylf+ekxHehVFycdn3ZkvgeEVgx/amm4ngy5CgKUG6KArvHfpT8krBgokLH3l9Kefzu3IT4rvUr4SVzzquNW/HbRYH56Y7lS2rgN+EXxCxAJRPHcDxwCyl/wZ4hbDELI8jiiU5Ion/7hhLR/ro/yGqcREqDEROAimKQcdmsY/7bXoQjBtR6T+q0Y9jrhVBbIqTKMmTKuY8W3jubCPKyG6pgGbxhdtwtnePH0VEzBWULTBvYPKMmvLpuVc7K8BOY8UcrpJ4wXvX++YMikEtxiLOv0x2ojflkXh4loc7Suc1/w9yLTagYcey2lFXCoo3Ywo/e1YpjMPaYufpNcvRqpiw0dp0AGw9sfOYKNWE9qJ8LGjL1myBM1geTrjjDM4MPYFccL0ZszOPfNLwwIbvelcgHUU7NNNkI6WnXufztqS8+Q6cbWjtToWftG5I/Thf+p4OuBx4LKtdxuHtG5E0+abcuY40MBC4vwOJsO3m0lde3CBXFfyirYqI/JsN2DOR9Pxp3NtTAvFLYyCHQmLb9CYMOkxgemnnik9AddRaVQWYQqjHdDEbw0DyqbNkqewh96t3cxM9BPnX9QFTNNbsY/grCNdof9U2s40Doo94ojDAy+nAOMEcabRrFPjuWgOcnFs1BTPR4SW3bFeBqAqu7ikkewVfA4ySxktkwMRaVbyLcy2lNmnv4Kb8czbtKYTB4WaU33GyemM9XB65ZZP0DAyCEuvh6cQzpArOBVcbMuuK6odFzxHq6eSto02L87+pJtTq4btritpbHeBPzDKu1PZQ7R4eKkKLvlpzjmOcAYGeiJtxs+BbG4TQbuHg9pdtPdY/FGFU1S8DYAXWaJaTH7HI+oF1Z1wp+3ksh3jOZDxsBNSWvGEXBhHeIXzluIFAKjl0+M6SDtFK4HxPVi1TQWsM6q5OeYNlTApTakRiiZ51JZY8vlffmY6UAzKv50Pj3Ccxlxdt4rfBMqzpTf1bVgHQyQOs2W2D9d1tPrx6VSgZOPYsPhGQUpbbPcLVqUO9kkNMmfsFJgpHd2pWjkvr2qvn393ooKF1sa7wlIhpat3tNKg7QD+ZAw2XN9jXYWnbvHixfHc5T8gEIKugltglw4XA5AKmFiJrxXYCpeA2QtvmBgEUWDEpkRoqiYS5+YpvSsApSwEx7rI/IUHtoRTq8ymJVwDkQFG7I7sIx1AXIObhAbkNeFz5mGiP4IzrsLITm4rdGAlvUwbzsyJEwM08RrR5YAWTiPGeXTPVnrzfAQnzrpSr76Lf2FQDircG+RvNFfah0/L3KGGCyEV9rkChlIKV2MVhY2wS52WGOJTcCoDHOPY9gI+4UWw+V1wdQD2KEWNLIRdymZaYZX8Cg71Z8GvpPNpOp1wHimtccSxwDC+7wXn4m+8XXEFhwKzTC0XPAou5VmHWfx8xjRvhbs46ISpK7Txu8CNgH3wz6jCqVWWiiHKHOmVVGbFAIIYMBGJxPwLTTq1MdViNLmR/jJYn8TCS+L5lpnVdkbxCqIu1VBPkyYkdrcHAOMRk//BkINJ5fQtvPbgSzSHKAgdRTx8Zyoy1oBYP0v3swdlzV2pTeHEbAD3+8VUXMQjblE4C61c7ngQQHOOfBI2q0tgEJSe0a00sCO4VpDJmmkPxFh3kpJBpwgNrB5GFRuzDbh0YoWSncKfzga8ndG1uLigKkMP4WCjr0juNEERflEG/wTyFJ14wiidxOdwTOIb/4LLEJKWivi0qTWrV3OSxPo0EYbX2idTtT3jm9Z8XDDWYmr+wgUxLVXPt+qfQhSxoIpakGndJ1Nws4xRphhwlUO5JEIAABg2SURBVFmAXIY2Rg927MhPoVTiWkbfxXh4AUVwDzrLVRieaBTGVPz99qcLelV1Ed8hhCx7bgv9lNFaKZUYMKp2VuCpeUifiFYRwzD9fJZ45V0hZfvzuzB28SlCqsQr6euwi595mcbv8twd5mu6Olzz1AljV5zxzddnwanA25X0xqmn9Vu61J30qOdhWElTypr7QNU+a7gXuoqTMEr8gms9n33lfVThZNVBgmBKjEHppI5i+aZN5uZr44TJEVEWOQBDjZM3cpvNZ8RhCWD84BVx0BzvpieN1mcBn28rIKZ3KljtHESHzDK76CORn4n4vzc4UbEcNms1ofFqiJQBkwGEbW/adueNaWDtXamHMsgSVA7jeDwSaBSiIyj8fTqQ6+2am8YvQeuczFQVa3AxagWsZZfN5mlRnjS+IEwQIxMkmLFAR3GlgftUKPm0I9igdd7cSouG5mquNTKLnFmAs1M7Ohk7ycMPTCJ4Vzp46ST1Dl3eLeOdq9eke++7L0+dBX6sVyKIcgnJJzIVTYUJpr2sC3nqQB1ulJNA25xrSeJnZK1Mdaal11baK4UjLNYNeIm0FQPT8CC3cdMbVgnfKLu5751OWlivajTF+V3KZvmNk6cto/APCTOusyE6BwjF4KaUuFVfwNAVRul7qZ/yXr59loFQwa8eVuIbpn8JK3nVv30XR8Pq4eVdWKM50+mi/VT5CM+0JY962rq/aQqzHyluPd2uvBd8C11Mo189zwKn5Fd/1vub/uVnmlK+xxLfgsvj/RxVOIlIaZR0zdBgIEMQIswc6eQxx5/bKS01+HUwN738uaBdgoUH/QMo9MRcwsrg0x9/nDqUbwd7dDRHYOgOxDW+fMXn3uDEWcQH0fhcWetAWil729sxi92xLm295cep7f47WLRHI5IfQgen8iSoZVZAOf2kYJNAWjaOY+Nu+8yF0CALjygnTFGzZCMFrZjK4y2CoAjPqJHwMdZwVxq0/vX3Eq90jkCN+iyQC6zoLJStLP6bzjo33MFDpCvAduFZOmX9WfByAd/7hLwCXadxQ316sIA3rQYCnnI9jbuWAsdawwhq8afCshLmuUSFQbUQpwAl/wKnfOf0OVfLWcJbaQtCe/hZ8C0Mq4VnDS/9pGUw9so/NGT8SvygDfEKvLDYLDCCnvmjhPtl2pHyrfsbr57Gb12pixJWngWf8p1jD8EYKXx43OFp6uElX+MUWD6HO9OU8JKmwCnfw9M82vcjpS9hBUb5LjgMf5Z4BfcSv+BW4pd4++JzVOGUGQ8VRKmCBQZHpkKrUaSFDyGFOJI3OKJ3j4B7ogoDLR186Nv0dBKmifzFqBWunq30nOazQfCTl5CxB51qOKCHAkxMfmlXwPisSlfMNDMzjIAo80PwJnbJPZMCccqL5fYmS83hOzuYx7vpR2ngjmvThPYNcFh0yyq/EF7Ik1AgASQMjbC4sDX18n7AYSfzB+FEWNxX5Oid+Apt6ZinN6WDeGeNJ+M/hJchdVcabt1vpPdc4gytvOd4Jd+hVPXw+vtQDPDJSNa9wq90GMPLu5H8do9TL5Z6szG00LIqRoASiExa9UA8/XWLFy+GMXKmIdOUdkiZZAQF/RTdOVWp20hU/yPy0rIUAtij0SuiRlxg8iztug5uT70XOtZxr7+38LK/1oqrf4lXnhGXeBEWf3PdlPBSb1VQq079rofV30vcXX3uStqCTz1f0w13xns0eCXOL5K2pBkp7xJWf9bxrvuX95FwLX7Dn8PTjAS7+O0qfgXm3vIcVTjlfqtGQ6e1WQenxJfeGezSxhB+clxjob77beNutZPc0EthZeThY7TwJKJxo2EJFQYTDF+BZySYsMJLTaqaOiuwdvcZaAE7BJAfOLOuMMpMJ/ArvhXufFbRI04gHlGgjdoGZYaVMlUCvptZa/rhlWn73VelaVqeAqKLIngkkdZ4mt2HWOFpGN4YVOA3YWGazKGxaeJMmKxhlF9coIsNy+x0Qab8Fn9zCarXER670yhbeTwMDiElkLDyOvz5sGTDPAoTKB2mBIfZK4TwBAYpHtMRZX0o2pO0sM3RPiCAwqkPgmrdlGFJI+sIIEEr6Sae+V/kM0S4ku3QsxREn1HitaIE3KGke8NbqePyfCScWuWwqI8UcVi4sEv84fnUv0d7f5SsHhZch/OwwBE8Rotf/MtzhKSjepU05TlqxN0I2BVYI8UpfsOfJeviX77HynNU4WQBFUu5m6sV5Wk2T0FwDSpOpeY9FpaDQRtTzYlmHNwhp60TKkb/QnVeCwYcmpaCjTQdqhTBrmUupI1FGo5USW6UE+RQB6nD3NV30YqyBFqlq+mD088HH6XM2UdPfiV67T2SKLXQFvsQpBrpDbBn6P4ffTdNYC9EP7NT3oQ7HmMHtnZhJk7pKHa/02Ekk/CehOJBr9PmHswiyhJgYf2k1hBTeRkX9DKyVwDmZ0Yocq+Q4/FLulK88txVcLsTvy6cfFfbUdD47tUTak46LZEso/+CUA5SouxZMO3goMIJ4zvThEkTh4RSZR4yJI4KfYT42LrdKfNjm/MvB63gXZ67A+0XSbM78Ju4DQVGosAjCqchrmzzdEjvM2tTmWFmdhCMxBCDndozDs/hLrMM0yiYWqlMxP+cR86BML1iDixCCTa1ob+YCzkSeQLDD/57NJDTlJqth+EGAlMNpwONTey9XsJ8tSLUKURjyol0jvBFSTq0c7JFuh9rsx9ckXrX/CC0JpW+4KuRDpgA1DaHpZSA7aZbDsVImwY608JlJ8aUHndbBk6K6eykVS53eRb/hz5znCrRbj9Kap+76qRISbcracrorjwVSjF1B003ck3GA/evY3sYl9fFVJ6HY0J76B4UIK7tSTNnNwnPnzOP6b9ZZGtdZgGXtxsoyLKr47c75SrpR3rWYY4Uvjf7lbraXVrsy2Xem+ujwe3RKbDLwslxu86/Mk9lSYgphVBdEAUjIYICYJjLrDYLN40dggnD4fVXl8gdKOeTpRPotXoV/lXQMLC79CkzVJrkQ1IFxaZAeJmGXDE1B5MThz7K0g0T7FYomWGUw7QwTJAJMPi3YUmm47zoNO7+W9O6f/1ceuB//i3Nxgiii2QKOwXcdooQRznxPYBHGEMgpZzu6yPL3vGHp65DT8HkfFbghr1UJQQVjIXq5gOAgFie5l7cL0EYQJTU5VmgPtpzd+NHHZifQh5CKpy8ikIz8g3r7qV0lBk//cuda9HOKLKDBGk/0DuQli5almbNUDhRR1iV5DDpAsxA2uFPdvruLp5V0hEfjyWsETP4X/IseJfn7mTzi6TZHfhN3IYCI1HgUYRT6doKkOyyIJFRFKZQfDITKAv3oVa0UpWssyAi9VBwaCXhE7HNUSYDx4lHAVFG3AXSbj2jGODJUyOLfLU3ENwF2xJOmfl1diqY0Jw8gdVD8RjN6zKaWoohVNlAHCe078QA4t6fpXX/cUm644pL03yObRpHdOO6lqS2ZNb9Tun5LefUj18f39tgrLMPPjx1zlmEQQVXTpBQxUEuHOXlmaczC32EVmqC15Ybya8VuFe8KIyy0ULWdHwP7ZPyeuncfevvCys8D+J0g2/Zb5SbgfSQhoShknqEUrHUy5p6KWKmg1TyJykl+d5PHZBsXEOBhgIPocCjCKfSrYcmlez0dvcYrVbP7BMB+hA8OhPNIcBrgW75BEPJ3v7Fv8SJl9Fg5nwf8S9wXMvxbC2ZmVNxGc+Mh9dR5MlIDkAFUPuDWNpt5qDQiRwy6R4gLudTz+t2Tk4ps2Nr6tiyLu249aa0+rtfSdtv/m6a17YxTe54gN3zCKEAglCqFcGiuJTkhtxuLv3bwga8zeMXpmXHncTu2wUYglAVxsfqD70Bxq1QLKxVbAnkb2a7PFqu+Pnce13RlsogQ+0oHMVaxx1Omzdv5a4ejmGBDu63Mp6nYNTT+d3FHUOzZs/KV4YTJ0pfE3xKsTycyJTau6my99ZXg1lDgT1NgUcRTkPolU5enjLK/D7k8/DYQz7lrcQuz8xwDS3whscc7bv478JTpo/AdEpPIVT9z4yN5LE+FpaBHIfCc/t9d6a13/5qattyd5oxaw5GdLM5/aIH6cJY/MGtaetdt6VNP7s29bGXKW24Ls2FipMmtXFuGzeWTmGqjmk7Zwk1I1dOwztbnFJr87aB3rRhx+Q05ehVqf0JJ6LAcUguSCmwlX15/cSE4lbKV17Ks/j7HMmvHr7n30PYIJDUlnQKJ7Up/X9+911xhYKnU3t/knFcX8obfhHLVbxBTuHQIGfWnAPidOp8vQBlx884xWhGaij6ck7m1riGAg0F9jUK7LJw2tcKNhxf2GD8c1XCqUe/yy5YtRKnKeF8WK5zwOPG9WnbtVemrp99I22eOjtt5O6gnVjScZQCm0N7uZtpTZrM1Q3IoYRyxeV3nI23hQvWMB9/EM1IpWCcPBN/GaXOWUKFlFZ9nHCftk2Ym+Yf/3QMIZYSXybNQaseA8XdGo78g5n7NPEYc0XYWEZPyV79c07M5h4nb1fVeZ5gbMINoZTploXbQFxeOGf+XDY2d2PlxxUMxNUVYSS9IHOLbvV34zWuoUBDgX2DAvuHcFIDYRitpZ37h+RccZCtIipG3SpF6i4IML7Hd7elqd397KXxgHGudMaqTuHClTYBR8HDjeScRE4lI4yE5+yfpuG+e6STLDOWrXiGpR5p4aepvxdBht/8Y56SJqw4GdPy6XyxlsXprwNYJ/YReQJqFyACFx5jwhWB5FOtSXr7833lscemX3vFy2PvkgSMKyioh5DmlF4yezKFZ5F5mvRRxBdOqEYRjZoDltaXDkEgdWtqTzo2rqFAQ4F9jwL7h3CSQ8nhZHgwL0+xkPF5vbxak+PuOPnCV9kbC/JehbEdyzvu/OMb4UNIl/wQIYeSE9qRRg9a3ymM1Ja0fNfoIczE8eOIQJWx8Bd0P9eDPDDYm9oXHJdmrnpGGpy6MAwhurApj02krfF/xsO/Y9E5ANB5urV3Kb3oxS9O/+fcc0NYGZbDFWJ58GDlxZgiwgbzrbZMvzod6wBAFye9E+5Unj/pXQXx1riGAg0F9jUK7GfCyek8RRFaEoxM7ca1qJjW4z3WLEJgoTGhBk3kUt/JDMMdiat5uWFWAz8TOguoMFL4uE7kt841Jl+JmsOIQ1Yh1Nb3crni5CXpiGe+IqXlx4HLOEDJUGXI/kXQASiDGmLIeO/zToFTNCYLo+ZTNuJ6N1PRrEYuaJ52lY6DDBy0tnQ9SsJKZ/dDaezisU/mYx1nGo4MrfFtKNBQYO+nwP4hnIJbyeA8rJapH5iZC+uwOt5VdWRx7rIxPEsT16DCOE+GSHo+Y59SvBPdqTqN/+SCO0jiXiaSxwjeOC2HZOsiPnfppf7uaWn2iWenjpWnp74Js4nLhW9INtg0zJXEpOvGWo+bskKg5SlI8dz3XRE+MR1XFUfh5LdCqxg/jFzSXAGuFSp6FONqTJ5U4onjIbQkXlWn1iaQ+SvtynNkyI1vQ4GGAnsnBfYP4QSPGtqXBTODIcq8wggiFqNkfhzeilCIO6VgcjuQKNwkzyWKpkXuIDucugvNyOjUp3JNp+DSTLyEKadM06nWheDqxQBiA99zn/jcNPmZL047e+YRY3IAUTQ5pejlEB1YULRpNeg8ojqVAMeQC60GwsT6Hs+4z4anl9vFOpNEw/lQzqhNZmGGNgmBnfrUaKKTysjXg0PciEtknCtO+DhGwGW/oWd4Nn8aCjQU2EcosH8IJypDbUn2FdpR8EA34zr11s5pDY7H2V+EpZwmzG0DXH3B7UwyOteQZJa+e2NtyDLeBRFTfDzDMAKZ4s23yhNNyNs1foC6d6ExPcgV9DOOf0kaf/p5Kc1YTBzvzYlxP8LLM+ackgIee5va1NzCKbTKFF/ltQ8/imDyqfOpkAoHgbMcrgRKxIEg+kcE/sZ7exrX5Z6zqk6Ikj+El+vE6DmNb7qHfmW/5m9DgYYCezsF9hvhVE6uaEMKxMnnMC31k7ieAqkjnxuHZUMWDgiJQUwg4GtqPi46hTZUMcAwcggP/Hm65sSpOmmgC6HDmojCTAXoXtas+uYcnxY8+Zw0+UnPxgBiMdN3Hu4KY/bYHbQBbx4N/gl3zmf4qUsplGSqVRhv+7obaVrvIWWqipv9KLcuJI7v0kHiZyGmj9ELiXy2/HLsHF6PYPzGNRRoKLDPUGA/Ek4aHsD40aBiYE4Vqa0oIORyIWv8tuqYz+Mgodin5MniyJvQmLTCiwhE1mKP5Y4wJVe+dLvfiQjbMDvfiAbV3zEvtS86Ji0784Wp84SnpZ0Tp+V9T8R1Co/VrWCoMlyntAKXmM6rcCDOWFrar2tMknhEF8QfFlIqS2/eIV9Ugc9wVRofJeyhYB76VaVqHg0FGgrs5RTYb4RTsC7njviv5qSVXAgqPTq81hrBxUYmjw9yP9Nm5uQ63VCrEOI7NCSFFLxOJqhTOGlLoXHEToTSNuIPTDwwtR20Is09+klp0glncjTRstTbwbE8nJ3X1YaxQyUMPSfO/N2/E4JJqEo5nqG98T6WpvWCYI/BnyJqyrMOciS/enjz3lCgocC+Q4H9RjiVNQ3Zv9NnPrMZueIgCwZPDW/jdtX2WQekSYc/MbVxbFEn14Z70aGL81qVhQaA4MhTe2ph/eyB2p529LJ5t21imnXI0anj8ONTmrck9U+cztQhB7qyOKUBRr+CDEmmDHLqzoX9wMMvEIyrs8FLfNStMpb7TmNqMG0o0FCgocBjRQEM12K4/ljB23vhaNjgNBzPUKCYQlMzQQLgtyObiSNI2njv6uXiux2c4+DJrYoP42hQUUjld3Eh9QDqSRHtnPg6gUONxvdwVUZnnEzeRT6ahxttgPC2napbCh/XvMDBCT43lMZ7FkqcfFrhWH2XvJpnQ4GGAg0F9hMK7DeaU+yRCTUl9CSqV/GglOE0CJ4DqkJIkHY1JE4Nb++axI0Z3LaqtUMII/4gnGLvER7KKgWXwsWfAkdT553AQVSFdjbe/CIOVz1giee+poKHccw/dKcKvroSKU0UeWb88mfzt6FAQ4GGAvsTBfYfzUnNBOHQptEBQsNrKUIY8bE9BBR7ZwhvR0B1xrybgqQSSCE0aBYhbHLzCBFH+E526g7uQGiN57BS1SPgd3B6NpODkUBh1G88vrswIfeK+taxSYTF6QYAzrJRcUSexd/X/ak1NmVtKNBQoKFARYH9RjjF2XWxSUmrBuUMwgNZ0o6RQj9CwxMjlC2uDSk8DNzJdJvaTNGWWtN6hMaaU5EcPjF0iDujQm8CRhErTNFpfuEG0UrHqiQO8AlBJPLXd3M0lX45bmhgvDeuoUBDgYYC+xsF9ptpPVSmED5qQypGITyQRiEe1KgUAgR4Z1DsfcJwIczMCQutpmoZJCWNYiTDGEBT2hknO2Dg4AZaYfBvAA3JWJqMu5HXS+izzDMnpvn4ztN4lawK+EIXcnmGZ/OnoUBDgYYC+x0F9hvNqYgUNZMsWobquugmxTZE8WGslivyouXx0JcsSkhVAfJbAaicURsr0AKuHvhkkFWkVl4VgJw0fId88GxcQ4GGAg0F9hMK7EfCqV6jRSjoNySGssiox6ve69FHCM5eFRzihkDJ0ic+8nRdow+NSromoKFAQ4GGAsMosN8Ip6wvFR1GKhTpwRsCpRg/DNGnhIeoGfKON6WVrsTJX/kvfgGwCtYzohd/NawhgfhQGEN5FchDPhl687ehQEOBhgL7AwX2G+G0P1RmU8aGAg0FGgqMFQpUm2rGSnGacjQUaCjQUKChwFigQCOcxkItNmVoKNBQoKHAGKNAI5zGWIU2xWko0FCgocBYoEAjnMZCLTZlaCjQUKChwBijQCOcxliFNsVpKNBQoKHAWKBAI5zGQi02ZWgo0FCgocAYo0AjnMZYhTbFaSjQUKChwFigQCOcxkItNmVoKNBQoKHAGKNAI5zGWIU2xWko0FCgocBYoEAjnMZCLTZlaCjQUKChwBijQCOcxliFNsVpKNBQoKHAWKBAI5zGQi02ZWgo0FCgocAYo0AjnMZYhTbFaSjQUKChwFigQCOcxkItNmVoKNBQoKHAGKNAI5zGWIU2xWko0FCgocBYoEAjnMZCLTZlaCjQUKChwBijQCOcxliFNsVpKNBQoKHAWKBAI5zGQi02ZWgo0FCgocAYo0AjnMZYhTbFaSjQUKChwFigQCOcxkItNmVoKNBQoKHAGKNAI5zGWIU2xWko0FCgocBYoEAjnMZCLTZlaCjQUKChwBijwP8HOE4BthknKVkAAAAASUVORK5CYII=;imageBorder=#666666;fontColor=#000000;" vertex="1" parent="1">
          <mxGeometry x="290" y="100" width="196.73" height="100" as="geometry" />
        </mxCell>
        <mxCell id="mdbk473jcDKpl6JDTXw1-6" value="docker-compose" style="shape=image;verticalLabelPosition=middle;labelBackgroundColor=none;verticalAlign=middle;aspect=fixed;imageAspect=0;image=data:image/png,iVBORw0KGgoAAAANSUhEUgAAAMcAAADHCAIAAAAiZ9CRAAAIM0lEQVR4nOzdMXDb1h2AcQqibYm+0LkzR3I176wl6STJq65uFk1R7Nm6TFniOrnmOlSxJ985CbtkaU/O0sGN3IVTlWrpUFKbPFQ606OJreRdiNqgKJFAL0KMY+VIAKU/+N4Dv9/E3FEWpHwCHh8egGxptZ0BRFmqNwApRFWQR1WQR1WQR1WQR1WQR1WQR1WQR1WQR1WQR1WQR1WQR1WQR1WQR1WQR1WQR1WQR1WQR1WQR1WQR1WQR1WQR1WQR1WQR1WQR1WQR1WQR1WQR1WQR1WQR1WQR1WQR1WQR1WQR1WQR1WQR1WQR1WQR1WQR1WQR1WQR1WQR1WQR1WQR1WQR1WQR1WQR1WQR1WQR1WQR1WQl1W9AdpZWbz09Z3LkW97Wuv99vHrsWyRedhXQR5VQR5VQR5VQR5VQR5VQR5VQR5VQR5VQR5VQR5VQR5VQd5UabWtehuQNuyrII+qIM+w9VVrt3NXclORb/vyieu4fiaTyeemvrydi3x/x/XvP3GD1wvlCys3LkZ+Sf15f6PWi7fVE8ewqm6+d7FYiN6/VqrdsKoPFy9Fvt9ueWFVxatWnC/JZDJUdRKOgJBHVZBHVZBHVRrJx/ggYgSq0kWxYNUevru6NKN6QwRQlS6+/yyfz02t3c59feey6TstqtLCyuKlcMZkZfHS3/9wpRRjAkVbBm96mtxdnh3+z2LB+utneXPDMnW702R4RxUyOiwjNzplju2oQsWC9adP3hn75gigKsXmStOnnIOaK02vxTiPqRvDzgPe++5VnLc1W17wwnH9W4+cyPcHJw0D9ReHcb6k2fbibEmkX78fcSZ7dWnmh52DeqMv8u3Gg1V7in3/eX6+HPG3XW/044SuD46Ail0vRf8vWChnF6LK04rKbS0VrOLV6N+p3fbCI9pcaTrODOFucxAe1GL+/wgPMfnc1FxpOvL9juvvNgfB6zP8IOH3yudi/WF/upyrm7O7UlnVp8uzKzFWMt17/LrZ+nkl058/eSfO+qobX/wYVPXT5/PP85Hvt1ve4hc/Bq9vvndx1LuineEHCcTJN7BQzuZzU8PjP51xBDSGQQdBqjLGfPmC6k2Iy5j8Mbxgv1Sw8rNT4RDTbnsd19fn+EhVKo3Uwfy1C9/cuTx/7cJJI0vH9feag91mX/n8FlWp1OmOUFWxYH1YOO0zQT43NV/Ozpezq0szdsvbqPUq1a7EZo6McZVKdstzXJk5+mOKBevu8mzt4btKzk9TlWLbSR6qgoUPyf37J6EqxZIeAFWqbqL//i+iKsU2ar2EDoLBEXajdpDQP34KqlLMcf31raSugVayo6IqLaxv7Sexu9qo9ZTsqBTPLGw/P4xzKYndHoSvN58dxLl7R+fNPJDj+k9j3A2hMzRvZLcHcb6k/vwwfH2GH2SY4/qVanftdvTJx/jslvdHRdMKrK/SQrFgrd3K3Yxavhef4/ofPOgcWx8xTsyCKhMsubm7nItctTcSu+V9/O1/FSZFVeNWKljXS9niVevm+xevx1srNpLtRv/ed6/UJqW4qm9iLGMyWn7WCropXrWOFugleEVyMDhb39pP7lvEp7KqmDcfw+m2G/3NnYOjeS/WLOBM7KOj216z32x7ey8Hm88O9IkpRFW6G179bAqVs6C26kGlETafqZnJPA/m1nX3WI8B+EiU7quELv9NsY1aT/k0wRmorKp5whkMhNb/Yd6OSnFVGn540cp2o7/XNPIPT2VVey+N/JWNjap1LOendlxFVSeyW55Z94EZprKqXTN37+Nh7o5K/biKKatftN3oq1pwJ0LxfFX9xaHaDdCT0Tsq9VUxYH/bRq1n7ogqoLgqE09HJE3hymApiquyWx5Dq2GVatfEyfRj1J8HZHcVslueJsvuzkl9VT/sUNXPKlU3Hecb1FdVb/STu3jXIAov3xOnvqqjyywn/QHGai/fE6dJVWkYTJxHpeqmYJAe0qIqx/Un+Xnr61v7qTn2BbSoKpPJPP3XhFZltzxVd8RLji5V1Rt90yeUz8Bx/VtfOen43DdMl6riP/koTXS4zjgJGlWVmjnAmCrV7uZOOk+ua1RV8IuekBM4lWo3fcOpkF5VOa4/CcdBhfesHg+9qgqG7ek+Dm7UevfePFYprbSrKjg67DbT+XlwEpLStCrH9T/+9lX6BlgTkpSmVYU3jEvTWef1rf0JSUrfqoIrcG49SklYlWr3/hOzl6KPRN+q0hFW8JD6dH/ie5vWVQVh/eaBY+gYa7vR/+BBZwLPROleVTDG+ugr88KqVLsfPXJSeUImkgFVhfebM2Ue66dd1P3OpB31hk1f+dXvVG9DXP/896HdGsyVsoneDPg8HNd/+Lfu7//y+j9O2pYhjMS8Z0MUC9bq0szq0ozqDfk/Rw852j96Is1E9xQwr6pA8KzOFQ3urU1PbzO1qoDatvaag82dA3p6m9lVBYoFa+FaduXGjOwDYU4SrLJX/hx2naWhqlCYV0KPiNHhof5GSFVVwxbK2eul7EI5m89ZZ4vMbnnbLw53Xw72mv3d5oDDXHypreqY4LFpRw8qmj7pQUXhwzycrj+Zs5dSJuWJI47rvzlycfxKnBlz6zALVUEeVUEeVUEeVUEeVUEeVUEeVUEeVUEeVUEeVUEeVUEeVUEeVUEeVUEeVUEeVUEeVUEeVUEeVUEeVUEeVUEeVUEeVUEeVUEeVUEeVUEeVUEeVUEeVUEeVUEeVUEeVUEeVUEeVUEeVUEeVUEeVUEeVUEeVUEeVUEeVUEeVUEeVUEeVUEeVUEeVUEeVUEeVUEeVUEeVUHe/wIAAP//trcOsraDmdcAAAAASUVORK5CYII=;html=1;labelPosition=right;align=left;fontColor=#666666;" vertex="1" parent="1">
          <mxGeometry x="290" y="30" width="30" height="30" as="geometry" />
        </mxCell>
        <mxCell id="mdbk473jcDKpl6JDTXw1-7" value="MongoDB" style="shape=image;verticalLabelPosition=bottom;labelBackgroundColor=none;verticalAlign=top;aspect=fixed;imageAspect=0;image=https://www.cdnlogo.com/logos/m/30/mongodb-icon.svg;imageBackground=#FFFFFF;imageBorder=#666666;fontColor=#000000;" vertex="1" parent="1">
          <mxGeometry x="355" y="-90" width="100" height="100" as="geometry" />
        </mxCell>
      </root>
    </mxGraphModel>
  </diagram>
</mxfile>
